<?xml version="1.0" encoding="UTF-8"?>
<svg data-name="—ÎÓÈ_1" viewBox="0 0 328.73 322.03" xmlns="http://www.w3.org/2000/svg" xmlns:xlink="http://www.w3.org/1999/xlink">
<defs>
<style>.cls-1{fill:none;}.cls-2{opacity:0.5;}.cls-3,.cls-30{fill:#0c0f38;}.cls-3{opacity:0.6;}.cls-4{fill:url(#d);}.cls-5{fill:url(#b);}.cls-6{fill:url(#a);}.cls-7{fill:#d4088c;}.cls-8{fill:#6ee8fc;}.cls-9{fill:url(#c);}.cls-10{fill:#370175;}.cls-11{fill:#6de0f6;}.cls-12{fill:#267fe5;}.cls-13{fill:#480689;}.cls-14{fill:url(#ad);}.cls-15{fill:url(#u);}.cls-16{fill:url(#o);}.cls-17{fill:url(#ab);}.cls-18{fill:url(#ac);}.cls-19{fill:url(#t);}.cls-20{fill:url(#n);}.cls-21{fill:url(#aa);}.cls-22{fill:url(#af);}.cls-23{fill:url(#s);}.cls-24{fill:url(#m);}.cls-25{fill:url(#z);}.cls-26{fill:url(#ae);}.cls-27{fill:url(#r);}.cls-28{fill:url(#l);}.cls-29{fill:url(#y);}.cls-30{opacity:0.8;}.cls-31{fill:url(#k);}.cls-32{fill:url(#q);}.cls-33{fill:url(#j);}.cls-34{fill:url(#x);}.cls-35{fill:url(#e);}.cls-36{clip-path:url(#g);}.cls-37{fill:#25bfec;}.cls-38{fill:#18d0f7;}.cls-39{fill:url(#i);}.cls-40{fill:url(#p);}.cls-41{fill:url(#h);}.cls-42{fill:url(#w);}.cls-43{fill:url(#v);}.cls-44{clip-path:url(#f);}</style>
<linearGradient id="d" x1="3839.7" x2="3923.1" y1="266.31" y2="266.31" gradientTransform="matrix(-1 0 0 1 4344 0)" gradientUnits="userSpaceOnUse">
<stop stop-color="#6ee8fc" offset="0"/>
<stop stop-color="#6ee8fc" offset=".22"/>
<stop stop-color="#6ee1f8" offset=".49"/>
<stop stop-color="#d4088c" offset=".77"/>
<stop stop-color="#d4088c" offset="1"/>
</linearGradient>
<linearGradient id="b" x1="2040.3" x2="2125.8" y1="167.85" y2="167.85" gradientTransform="translate(-1619.5)" gradientUnits="userSpaceOnUse">
<stop stop-color="#a31fa9" offset="0"/>
<stop stop-color="#8b17a0" offset=".07"/>
<stop stop-color="#740f98" offset=".15"/>
<stop stop-color="#640a92" offset=".24"/>
<stop stop-color="#5b078f" offset=".34"/>
<stop stop-color="#58068e" offset=".48"/>
<stop stop-color="#4d22a3" offset=".63"/>
<stop stop-color="#3168da" offset=".94"/>
<stop stop-color="#2c75e4" offset="1"/>
</linearGradient>
<linearGradient id="a" x1="2040.3" x2="2125.8" y1="242.22" y2="242.22" gradientTransform="translate(-1619.5)" gradientUnits="userSpaceOnUse">
<stop stop-color="#d4088c" offset="0"/>
<stop stop-color="#d4088c" offset=".23"/>
<stop stop-color="#6ee1f8" offset=".51"/>
<stop stop-color="#6ee8fc" offset=".78"/>
<stop stop-color="#6ee8fc" offset="1"/>
</linearGradient>
<linearGradient id="c" x1="1490.2" x2="1530.5" y1="-230.81" y2="-265.74" gradientTransform="matrix(.87 .5 -1 .58 -1094.5 -518.49)" gradientUnits="userSpaceOnUse">
<stop stop-color="#8d139b" offset="0"/>
<stop stop-color="#851ba1" offset=".17"/>
<stop stop-color="#6e33b2" offset=".43"/>
<stop stop-color="#4958cd" offset=".76"/>
<stop stop-color="#2979e4" offset="1"/>
</linearGradient>
<linearGradient id="ad" x1="4022.6" x2="4106" y1="266.31" y2="266.31" xlink:href="#d"/>
<linearGradient id="u" x1="1857.4" x2="1942.9" y1="167.85" y2="167.85" xlink:href="#b"/>
<linearGradient id="o" x1="1857.4" x2="1942.9" y1="242.22" y2="242.22" xlink:href="#a"/>
<linearGradient id="ab" x1="1384.6" x2="1425" y1="-139.38" y2="-174.31" xlink:href="#c"/>
<linearGradient id="ac" x1="3931.4" x2="4014.8" y1="329.49" y2="329.49" xlink:href="#d"/>
<linearGradient id="t" x1="1948.6" x2="2034.1" y1="231.03" y2="231.03" xlink:href="#b"/>
<linearGradient id="n" x1="1948.6" x2="2034.1" y1="305.4" y2="305.4" xlink:href="#a"/>
<linearGradient id="aa" x1="1500.5" x2="1540.8" y1="-130.27" y2="-165.21" xlink:href="#c"/>
<linearGradient id="af" x1="482.48" x2="535.36" y1="327.84" y2="327.84" xlink:href="#a"/>
<linearGradient id="s" x1="483.53" x2="535.56" y1="318.91" y2="318.91" xlink:href="#b"/>
<linearGradient id="m" x1="483.53" x2="535.56" y1="324.68" y2="324.68" xlink:href="#a"/>
<linearGradient id="z" x1="806.37" x2="830.87" y1="736.07" y2="714.84" gradientTransform="matrix(.87 .5 -1 .58 525 -518.49)" xlink:href="#c"/>
<linearGradient id="ae" x1="206.64" x2="259.52" y1="327.84" y2="327.84" xlink:href="#a"/>
<linearGradient id="r" x1="207.69" x2="259.72" y1="318.91" y2="318.91" xlink:href="#b"/>
<linearGradient id="l" x1="207.69" x2="259.72" y1="324.68" y2="324.68" xlink:href="#a"/>
<linearGradient id="y" x1="647.1" x2="671.61" y1="873.98" y2="852.76" gradientTransform="matrix(.87 .5 -1 .58 525 -518.49)" xlink:href="#c"/>
<linearGradient id="k" x1="393.56" x2="486.63" y1="368.08" y2="368.08" xlink:href="#a"/>
<linearGradient id="q" x1="393.51" x2="488.96" y1="311.93" y2="311.93" xlink:href="#b"/>
<linearGradient id="j" x1="393.51" x2="488.96" y1="341.19" y2="341.19" xlink:href="#a"/>
<linearGradient id="x" x1="728.96" x2="773.98" y1="756" y2="717.01" gradientTransform="matrix(.87 .5 -1 .58 525 -518.49)" xlink:href="#c"/>
<linearGradient id="e" x1="734.84" x2="768.35" y1="750.92" y2="721.89" gradientTransform="matrix(.87 .5 -1 .58 525 -518.49)" gradientUnits="userSpaceOnUse">
<stop stop-color="#630692" offset="0"/>
<stop stop-color="#5b0e94" offset=".23"/>
<stop stop-color="#432399" offset=".59"/>
<stop stop-color="#2142a1" offset="1"/>
</linearGradient>
<clipPath id="g" transform="translate(-206.64 -73.08)">
<path class="cls-1" d="M437.78,294.2l-17.95-10.36c-1.28-.74-1.12-2,.35-2.88L437.42,271a5.53,5.53,0,0,1,5-.21l18,10.37c1.27.73,1.11,2-.36,2.87l-17.24,10A5.53,5.53,0,0,1,437.78,294.2Z"/>
</clipPath>
<linearGradient id="i" x1="255.39" x2="348.47" y1="368.08" y2="368.08" xlink:href="#a"/>
<linearGradient id="p" x1="255.35" x2="350.8" y1="311.93" y2="311.93" xlink:href="#b"/>
<linearGradient id="h" x1="255.35" x2="350.8" y1="341.19" y2="341.19" xlink:href="#a"/>
<linearGradient id="w" x1="649.19" x2="694.21" y1="825.08" y2="786.09" gradientTransform="matrix(.87 .5 -1 .58 525 -518.49)" xlink:href="#c"/>
<linearGradient id="v" x1="655.06" x2="688.58" y1="819.99" y2="790.97" xlink:href="#e"/>
<clipPath id="f" transform="translate(-206.64 -73.08)">
<path class="cls-1" d="M299.62,294.2l-18-10.36c-1.27-.74-1.11-2,.36-2.88L299.26,271a5.53,5.53,0,0,1,5-.21l18,10.37c1.27.73,1.11,2-.36,2.87L304.6,294A5.53,5.53,0,0,1,299.62,294.2Z"/>
</clipPath>
</defs>
<title>illu49</title>
<g class="cls-2">
<path class="cls-3" transform="translate(-206.64 -73.08)" d="m466.38 285.74 29.82-17.22c2.12-1.22 1.86-3.36-0.59-4.77l-28.61-16.54c-2.45-1.41-6.15-1.56-8.27-0.34l-29.83 17.22c-2.12 1.23-1.85 3.36 0.6 4.78l28.6 16.53c2.45 1.42 6.16 1.6 8.28 0.34z"/>
<path class="cls-4" transform="translate(-206.64 -73.08)" d="M462.83,290.52a11.66,11.66,0,0,1-5.69-1.42L423.4,269.63c-1.62-.94-2.56-2.21-2.56-3.49a3.25,3.25,0,0,1,1.86-2.75l35.14-20.28c2.59-1.5,7.12-1.32,10.1.4L501.67,263c1.63.94,2.56,2.21,2.56,3.48a3.24,3.24,0,0,1-1.86,2.75l-35.13,20.29A9,9,0,0,1,462.83,290.52Zm-.58-47.73a8.2,8.2,0,0,0-4.06.93L423.06,264a2.56,2.56,0,0,0-1.51,2.14c0,1,.8,2.07,2.21,2.88l33.73,19.48c2.78,1.6,7,1.78,9.39.4L502,268.61a2.58,2.58,0,0,0,1.51-2.14c0-1-.81-2.06-2.21-2.87l-33.73-19.48A11,11,0,0,0,462.25,242.79Z"/>
<path class="cls-5" transform="translate(-206.64 -73.08)" d="m497.63 93.34h-14.79l-16.46-9.51c-2.12-1.22-5.83-1.07-8.28 0.35l-15.87 9.16h-14.78v139.09a2.38 2.38 0 0 0 1.42 2.21l29.83 17.22c2.12 1.23 5.82 1.07 8.27-0.34l28.64-16.52a3.51 3.51 0 0 0 2-2.56z"/>
<path class="cls-6" transform="translate(-206.64 -73.08)" d="m495.61 234.3-28.61 16.54c-2.45 1.41-6.15 1.56-8.27 0.34l-29.86-17.18a2.4 2.4 0 0 1-1.42-2.22v0.69a2.38 2.38 0 0 0 1.42 2.21l29.83 17.22c2.12 1.23 5.82 1.07 8.27-0.34l28.64-16.56a3.51 3.51 0 0 0 2-2.56v-0.69a3.48 3.48 0 0 1-2 2.55z"/>
<path class="cls-7" transform="translate(-206.64 -73.08)" d="M428.39,233.11h0V94h14.78L459,84.86c2.45-1.41,6.15-1.57,8.27-.34L483.78,94h13.85v-.68H482.84l-16.46-9.51c-2.12-1.22-5.83-1.07-8.28.35l-15.87,9.16H427.45V232.43h0a2.38,2.38,0,0,0,1.42,2.21l.17.1A2,2,0,0,1,428.39,233.11Z"/>
<path class="cls-8" transform="translate(-206.64 -73.08)" d="m496.79 94.14v139a2.57 2.57 0 0 1-0.7 1.52 3.17 3.17 0 0 0 1.54-2.26v-139a4.28 4.28 0 0 0-0.84 0.74z"/>
<path class="cls-9" transform="translate(-206.64 -73.08)" d="m458.7 112.78-29.83-17.22c-2.12-1.23-1.85-3.37 0.6-4.78l28.63-16.53c2.45-1.42 6.16-1.57 8.28-0.35l29.82 17.22c2.12 1.23 1.86 3.37-0.59 4.78l-28.61 16.53c-2.48 1.42-6.18 1.57-8.3 0.35z"/>
<path class="cls-8" transform="translate(-206.64 -73.08)" d="m496.2 91.12-29.82-17.22a7.73 7.73 0 0 0-4.18-0.8 6.87 6.87 0 0 1 3 0.8l29.8 17.22c2.12 1.23 1.85 3.37-0.6 4.78l-28.6 16.53a9.4 9.4 0 0 1-4.09 1.15 9.67 9.67 0 0 0 5.26-1.15l28.64-16.53c2.45-1.41 2.71-3.55 0.59-4.78z"/>
<path class="cls-7" transform="translate(-206.64 -73.08)" d="M460,112.78,430.21,95.56c-2.12-1.23-1.85-3.37.59-4.78l28.64-16.53a9.28,9.28,0,0,1,4-1.15,9.72,9.72,0,0,0-5.37,1.15L429.47,90.78c-2.45,1.41-2.72,3.55-.6,4.78l29.83,17.22a7.75,7.75,0,0,0,4.24.8A6.83,6.83,0,0,1,460,112.78Z"/>
<path class="cls-10" transform="translate(-206.64 -73.08)" d="M435.17,222.86l20.24,11.69a.75.75,0,0,0,1.13-.66V127.6a1.6,1.6,0,0,0-.79-1.38L435.5,114.54a.75.75,0,0,0-1.13.65V221.48A1.58,1.58,0,0,0,435.17,222.86Z"/>
<path class="cls-11" transform="translate(-206.64 -73.08)" d="M435,114.45a.75.75,0,0,0-.29.59V221.33a1.59,1.59,0,0,0,.79,1.38l20.25,11.69a.74.74,0,0,0,.5.08.75.75,0,0,1-.84.07l-20.24-11.69a1.58,1.58,0,0,1-.8-1.38V115.19A.75.75,0,0,1,435,114.45Z"/>
<path class="cls-11" transform="translate(-206.64 -73.08)" d="M453,145.46l-15.07-8.71a1.1,1.1,0,0,1-.46-.88v-1.31c0-.34.21-.49.46-.35l15.07,8.7a1.09,1.09,0,0,1,.46.88v1.32C453.45,145.45,453.25,145.6,453,145.46Z"/>
<path class="cls-12" transform="translate(-206.64 -73.08)" d="M438.53,136.41a1.09,1.09,0,0,1-.46-.88V134.3l-.15-.09c-.25-.14-.46,0-.46.35v1.31a1.1,1.1,0,0,0,.46.88L453,145.46c.26.14.46,0,.46-.35V145Z"/>
<path class="cls-11" transform="translate(-206.64 -73.08)" d="M453,149.27l-15.07-8.71a1.1,1.1,0,0,1-.46-.88v-1.31c0-.34.21-.49.46-.35l15.07,8.7a1.09,1.09,0,0,1,.46.88v1.32C453.45,149.26,453.25,149.41,453,149.27Z"/>
<path class="cls-12" transform="translate(-206.64 -73.08)" d="M438.53,140.22a1.09,1.09,0,0,1-.46-.88v-1.23l-.15-.09c-.25-.14-.46,0-.46.35v1.31a1.1,1.1,0,0,0,.46.88L453,149.27c.26.14.46,0,.46-.35v-.09Z"/>
<path class="cls-11" transform="translate(-206.64 -73.08)" d="M453,153.08l-15.07-8.71a1.1,1.1,0,0,1-.46-.88v-1.31c0-.34.21-.5.46-.35l15.07,8.7a1.09,1.09,0,0,1,.46.88v1.32C453.45,153.07,453.25,153.22,453,153.08Z"/>
<path class="cls-12" transform="translate(-206.64 -73.08)" d="M438.53,144a1.09,1.09,0,0,1-.46-.88v-1.23l-.15-.09c-.25-.15-.46,0-.46.35v1.31a1.1,1.1,0,0,0,.46.88L453,153.08c.26.14.46,0,.46-.35v-.09Z"/>
<path class="cls-11" transform="translate(-206.64 -73.08)" d="M453,156.88l-15.07-8.7a1.1,1.1,0,0,1-.46-.88V146c0-.34.21-.5.46-.35l15.07,8.7a1.09,1.09,0,0,1,.46.88v1.32C453.45,156.88,453.25,157,453,156.88Z"/>
<path class="cls-12" transform="translate(-206.64 -73.08)" d="M438.53,147.83a1.07,1.07,0,0,1-.46-.87v-1.23l-.15-.09c-.25-.15-.46,0-.46.35v1.31a1.1,1.1,0,0,0,.46.88l15.07,8.7c.26.15.46,0,.46-.34v-.09Z"/>
<path class="cls-11" transform="translate(-206.64 -73.08)" d="M453,164.78l-15.07-8.7a1.1,1.1,0,0,1-.46-.88v-1.31c0-.34.21-.5.46-.35l15.07,8.7a1.09,1.09,0,0,1,.46.88v1.32C453.45,164.78,453.25,164.93,453,164.78Z"/>
<path class="cls-12" transform="translate(-206.64 -73.08)" d="M438.53,155.74a1.11,1.11,0,0,1-.46-.88v-1.23l-.15-.09c-.25-.15-.46,0-.46.35v1.31a1.1,1.1,0,0,0,.46.88l15.07,8.7c.26.15.46,0,.46-.34v-.09Z"/>
<path class="cls-11" transform="translate(-206.64 -73.08)" d="M453,168.59l-15.07-8.7a1.1,1.1,0,0,1-.46-.88V157.7c0-.34.21-.5.46-.35l15.07,8.7a1.09,1.09,0,0,1,.46.88v1.32C453.45,168.59,453.25,168.74,453,168.59Z"/>
<path class="cls-12" transform="translate(-206.64 -73.08)" d="M438.53,159.54a1.07,1.07,0,0,1-.46-.87v-1.23l-.15-.09c-.25-.15-.46,0-.46.35V159a1.1,1.1,0,0,0,.46.88l15.07,8.7c.26.15.46,0,.46-.34v-.09Z"/>
<path class="cls-11" transform="translate(-206.64 -73.08)" d="M453,172.4l-15.07-8.7a1.12,1.12,0,0,1-.46-.88v-1.31c0-.34.21-.5.46-.35l15.07,8.7a1.09,1.09,0,0,1,.46.88v1.32C453.45,172.39,453.25,172.55,453,172.4Z"/>
<path class="cls-12" transform="translate(-206.64 -73.08)" d="M438.53,163.35a1.07,1.07,0,0,1-.46-.87v-1.23l-.15-.09c-.25-.15-.46,0-.46.35v1.31a1.12,1.12,0,0,0,.46.88L453,172.4c.26.15.46,0,.46-.34V172Z"/>
<path class="cls-11" transform="translate(-206.64 -73.08)" d="M453,176.21l-15.07-8.7a1.12,1.12,0,0,1-.46-.88v-1.31c0-.34.21-.5.46-.35l15.07,8.7a1.09,1.09,0,0,1,.46.88v1.32C453.45,176.2,453.25,176.36,453,176.21Z"/>
<path class="cls-12" transform="translate(-206.64 -73.08)" d="M438.53,167.16a1.08,1.08,0,0,1-.46-.88v-1.22l-.15-.09c-.25-.15-.46,0-.46.35v1.31a1.12,1.12,0,0,0,.46.88l15.07,8.7c.26.15.46,0,.46-.34v-.09Z"/>
<path class="cls-11" transform="translate(-206.64 -73.08)" d="M453,184.11l-15.07-8.7a1.12,1.12,0,0,1-.46-.88v-1.31c0-.34.21-.5.46-.35l15.07,8.7a1.09,1.09,0,0,1,.46.88v1.32C453.45,184.1,453.25,184.26,453,184.11Z"/>
<path class="cls-12" transform="translate(-206.64 -73.08)" d="M438.53,175.06a1.08,1.08,0,0,1-.46-.88V173l-.15-.09c-.25-.15-.46,0-.46.35v1.31a1.12,1.12,0,0,0,.46.88l15.07,8.7c.26.15.46,0,.46-.34v-.09Z"/>
<path class="cls-11" transform="translate(-206.64 -73.08)" d="M453,187.92l-15.07-8.7a1.12,1.12,0,0,1-.46-.88V177c0-.34.21-.5.46-.35l15.07,8.7a1.09,1.09,0,0,1,.46.88v1.32C453.45,187.91,453.25,188.07,453,187.92Z"/>
<path class="cls-12" transform="translate(-206.64 -73.08)" d="M438.53,178.87a1.08,1.08,0,0,1-.46-.88v-1.23l-.15-.08c-.25-.15-.46,0-.46.35v1.31a1.12,1.12,0,0,0,.46.88l15.07,8.7c.26.15.46,0,.46-.34v-.09Z"/>
<path class="cls-11" transform="translate(-206.64 -73.08)" d="m453 191.73-15.08-8.73a1.12 1.12 0 0 1-0.46-0.88v-1.31c0-0.34 0.21-0.5 0.46-0.35l15.07 8.7a1.09 1.09 0 0 1 0.46 0.88v1.32c0 0.36-0.2 0.52-0.45 0.37z"/>
<path class="cls-12" transform="translate(-206.64 -73.08)" d="M438.53,182.68a1.08,1.08,0,0,1-.46-.88v-1.23l-.15-.08c-.25-.15-.46,0-.46.35v1.31a1.12,1.12,0,0,0,.46.88l15.07,8.7c.26.15.46,0,.46-.35v-.08Z"/>
<path class="cls-11" transform="translate(-206.64 -73.08)" d="M453,195.54l-15.07-8.7a1.12,1.12,0,0,1-.46-.88v-1.31c0-.34.21-.5.46-.35L453,193a1.09,1.09,0,0,1,.46.88v1.31C453.45,195.53,453.25,195.69,453,195.54Z"/>
<path class="cls-12" transform="translate(-206.64 -73.08)" d="M438.53,186.49a1.08,1.08,0,0,1-.46-.88v-1.23l-.15-.08c-.25-.15-.46,0-.46.35V186a1.12,1.12,0,0,0,.46.88l15.07,8.7c.26.15.46,0,.46-.35v-.08Z"/>
<path class="cls-11" transform="translate(-206.64 -73.08)" d="M453,203.44l-15.07-8.7a1.12,1.12,0,0,1-.46-.88v-1.31c0-.34.21-.5.46-.35L453,200.9a1.09,1.09,0,0,1,.46.88v1.31C453.45,203.43,453.25,203.59,453,203.44Z"/>
<path class="cls-12" transform="translate(-206.64 -73.08)" d="M438.53,194.39a1.08,1.08,0,0,1-.46-.88v-1.23l-.15-.08c-.25-.15-.46,0-.46.35v1.31a1.12,1.12,0,0,0,.46.88l15.07,8.7c.26.15.46,0,.46-.35V203Z"/>
<path class="cls-11" transform="translate(-206.64 -73.08)" d="M453,207.25l-15.07-8.7a1.12,1.12,0,0,1-.46-.88v-1.31c0-.34.21-.5.46-.35l15.07,8.7a1.09,1.09,0,0,1,.46.88v1.31C453.45,207.24,453.25,207.4,453,207.25Z"/>
<path class="cls-12" transform="translate(-206.64 -73.08)" d="M438.53,198.2a1.08,1.08,0,0,1-.46-.88v-1.23l-.15-.08c-.25-.15-.46,0-.46.35v1.31a1.12,1.12,0,0,0,.46.88l15.07,8.7c.26.15.46,0,.46-.35v-.08Z"/>
<path class="cls-11" transform="translate(-206.64 -73.08)" d="M453,211.06l-15.07-8.7a1.12,1.12,0,0,1-.46-.88v-1.31c0-.34.21-.5.46-.35l15.07,8.7a1.09,1.09,0,0,1,.46.88v1.31C453.45,211.05,453.25,211.21,453,211.06Z"/>
<path class="cls-12" transform="translate(-206.64 -73.08)" d="M438.53,202a1.08,1.08,0,0,1-.46-.88V199.9l-.15-.08c-.25-.15-.46,0-.46.35v1.31a1.12,1.12,0,0,0,.46.88l15.07,8.7c.26.15.46,0,.46-.35v-.08Z"/>
<path class="cls-11" transform="translate(-206.64 -73.08)" d="M453,214.87l-15.07-8.7a1.12,1.12,0,0,1-.46-.88V204c0-.34.21-.5.46-.35l15.07,8.7a1.09,1.09,0,0,1,.46.88v1.31C453.45,214.86,453.25,215,453,214.87Z"/>
<path class="cls-12" transform="translate(-206.64 -73.08)" d="M438.53,205.82a1.09,1.09,0,0,1-.46-.88v-1.23l-.15-.08c-.25-.15-.46,0-.46.35v1.31a1.12,1.12,0,0,0,.46.88l15.07,8.7c.26.15.46,0,.46-.35v-.08Z"/>
<path class="cls-10" transform="translate(-206.64 -73.08)" d="M471.73,86.06l-12.19-7c-.25-.15-.22-.41.08-.58h0a1.11,1.11,0,0,1,1,0l12.18,7c.26.15.23.41-.07.58h0A1.11,1.11,0,0,1,471.73,86.06Z"/>
<path class="cls-13" transform="translate(-206.64 -73.08)" d="M459.46,79a.74.74,0,0,1,.16-.12,1.11,1.11,0,0,1,1,0l12.18,7a.2.2,0,0,1,.08.08.28.28,0,0,0-.08-.46l-12.18-7a1.11,1.11,0,0,0-1,0C459.36,78.6,459.32,78.8,459.46,79Z"/>
<path class="cls-10" transform="translate(-206.64 -73.08)" d="M469.55,87.32l-12.19-7c-.25-.15-.22-.41.08-.58h0a1.11,1.11,0,0,1,1,0l12.18,7c.26.15.23.41-.07.58h0A1.11,1.11,0,0,1,469.55,87.32Z"/>
<path class="cls-10" transform="translate(-206.64 -73.08)" d="M467.37,88.58l-12.19-7c-.25-.15-.22-.41.08-.58h0a1.14,1.14,0,0,1,1,0l12.18,7c.26.15.23.41-.07.58h0A1.11,1.11,0,0,1,467.37,88.58Z"/>
<path class="cls-10" transform="translate(-206.64 -73.08)" d="M465.19,89.84,453,82.8c-.25-.14-.22-.4.08-.57h0a1.11,1.11,0,0,1,1,0l12.18,7c.26.15.23.41-.07.58h0A1.11,1.11,0,0,1,465.19,89.84Z"/>
<path class="cls-10" transform="translate(-206.64 -73.08)" d="M463,91.1l-12.18-7c-.26-.15-.23-.4.07-.58h0a1.11,1.11,0,0,1,1,0l12.18,7c.26.14.23.4-.07.58h0A1.11,1.11,0,0,1,463,91.1Z"/>
<path class="cls-13" transform="translate(-206.64 -73.08)" d="M457.29,80.21a.47.47,0,0,1,.15-.12,1.11,1.11,0,0,1,1,0l12.19,7,.08.07a.27.27,0,0,0-.08-.45l-12.19-7a1.14,1.14,0,0,0-1,0C457.19,79.85,457.14,80.06,457.29,80.21Z"/>
<path class="cls-13" transform="translate(-206.64 -73.08)" d="M455.11,81.47a.64.64,0,0,1,.15-.13,1.13,1.13,0,0,1,1,0l12.18,7a.3.3,0,0,1,.08.08.27.27,0,0,0-.08-.45l-12.18-7a1.13,1.13,0,0,0-1,0C455,81.11,455,81.32,455.11,81.47Z"/>
<path class="cls-13" transform="translate(-206.64 -73.08)" d="M452.93,82.72a.74.74,0,0,1,.16-.12,1.11,1.11,0,0,1,1,0l12.18,7a.2.2,0,0,1,.08.08.28.28,0,0,0-.08-.46l-12.18-7a1.11,1.11,0,0,0-1,0C452.83,82.37,452.79,82.57,452.93,82.72Z"/>
<path class="cls-13" transform="translate(-206.64 -73.08)" d="M450.76,84a.47.47,0,0,1,.15-.12,1.14,1.14,0,0,1,1,0l12.19,7,.08.07a.27.27,0,0,0-.08-.45l-12.19-7a1.11,1.11,0,0,0-1,0C450.66,83.62,450.61,83.83,450.76,84Z"/>
<path class="cls-10" transform="translate(-206.64 -73.08)" d="M487.25,95l-12.18-7c-.26-.15-.23-.41.07-.58h0a1.11,1.11,0,0,1,1,0l12.19,7c.25.15.22.41-.08.58h0A1.11,1.11,0,0,1,487.25,95Z"/>
<path class="cls-13" transform="translate(-206.64 -73.08)" d="M475,87.92a.49.49,0,0,1,.15-.13,1.11,1.11,0,0,1,1,0l12.19,7a.6.6,0,0,1,.08.08.28.28,0,0,0-.08-.46l-12.19-7a1.11,1.11,0,0,0-1,0C474.89,87.56,474.84,87.76,475,87.92Z"/>
<path class="cls-10" transform="translate(-206.64 -73.08)" d="M485.07,96.28l-12.18-7c-.26-.15-.23-.41.07-.58h0a1.11,1.11,0,0,1,1,0l12.19,7c.25.15.22.41-.08.58h0A1.11,1.11,0,0,1,485.07,96.28Z"/>
<path class="cls-10" transform="translate(-206.64 -73.08)" d="M482.89,97.54l-12.18-7c-.26-.15-.23-.41.07-.58h0a1.11,1.11,0,0,1,1,0l12.19,7c.25.15.22.41-.08.58h0A1.11,1.11,0,0,1,482.89,97.54Z"/>
<path class="cls-10" transform="translate(-206.64 -73.08)" d="M480.71,98.8l-12.18-7c-.26-.15-.23-.41.07-.58h0a1.11,1.11,0,0,1,1,0l12.19,7c.25.15.22.41-.08.58h0A1.11,1.11,0,0,1,480.71,98.8Z"/>
<path class="cls-10" transform="translate(-206.64 -73.08)" d="M478.53,100.06l-12.18-7c-.26-.14-.23-.4.07-.57h0a1.11,1.11,0,0,1,1,0l12.19,7c.25.15.22.41-.08.58h0A1.11,1.11,0,0,1,478.53,100.06Z"/>
<path class="cls-13" transform="translate(-206.64 -73.08)" d="M472.81,89.17a.61.61,0,0,1,.15-.12,1.13,1.13,0,0,1,1,0l12.18,7s.05,0,.08.07a.27.27,0,0,0-.08-.45l-12.18-7a1.13,1.13,0,0,0-1,0C472.71,88.81,472.66,89,472.81,89.17Z"/>
<path class="cls-13" transform="translate(-206.64 -73.08)" d="M470.63,90.43a.75.75,0,0,1,.16-.13,1.11,1.11,0,0,1,1,0l12.18,7a.29.29,0,0,1,.08.07.27.27,0,0,0-.08-.45l-12.18-7a1.11,1.11,0,0,0-1,.05C470.53,90.07,470.48,90.28,470.63,90.43Z"/>
<path class="cls-13" transform="translate(-206.64 -73.08)" d="M468.46,91.69a.49.49,0,0,1,.15-.13,1.11,1.11,0,0,1,1,0l12.19,7,.08.08a.27.27,0,0,0-.08-.45l-12.19-7a1.11,1.11,0,0,0-1,0C468.36,91.33,468.31,91.54,468.46,91.69Z"/>
<path class="cls-13" transform="translate(-206.64 -73.08)" d="M466.28,92.94l.15-.12a1.13,1.13,0,0,1,1,0l12.18,7s.05,0,.08.08a.28.28,0,0,0-.08-.46l-12.18-7a1.13,1.13,0,0,0-1,0C466.18,92.59,466.13,92.79,466.28,92.94Z"/>
<path class="cls-10" transform="translate(-206.64 -73.08)" d="M459,93.48l-12.19-7c-.25-.15-.22-.41.07-.58h0a1.13,1.13,0,0,1,1,0l12.18,7c.26.14.23.4-.07.58h0A1.11,1.11,0,0,1,459,93.48Z"/>
<path class="cls-13" transform="translate(-206.64 -73.08)" d="M446.72,86.37a.64.64,0,0,1,.15-.13,1.13,1.13,0,0,1,1,0l12.18,7a.3.3,0,0,1,.08.08.27.27,0,0,0-.08-.45l-12.18-7a1.13,1.13,0,0,0-1,0C446.62,86,446.57,86.22,446.72,86.37Z"/>
<path class="cls-10" transform="translate(-206.64 -73.08)" d="M456.81,94.74l-12.19-7c-.25-.15-.22-.41.07-.58h0a1.13,1.13,0,0,1,1,0l12.18,7c.26.15.23.41-.07.58h0A1.11,1.11,0,0,1,456.81,94.74Z"/>
<path class="cls-10" transform="translate(-206.64 -73.08)" d="M454.63,96l-12.19-7c-.25-.15-.22-.41.07-.58h0a1.13,1.13,0,0,1,1,0l12.18,7c.26.15.23.41-.07.58h0A1.11,1.11,0,0,1,454.63,96Z"/>
<path class="cls-10" transform="translate(-206.64 -73.08)" d="M452.45,97.25l-12.19-7c-.25-.15-.22-.41.08-.58h0a1.11,1.11,0,0,1,1,0l12.18,7c.26.15.23.41-.07.58h0A1.11,1.11,0,0,1,452.45,97.25Z"/>
<path class="cls-10" transform="translate(-206.64 -73.08)" d="M450.27,98.51l-12.19-7c-.25-.15-.22-.41.08-.58h0a1.11,1.11,0,0,1,1,0l12.18,7c.26.15.23.41-.07.58h0A1.11,1.11,0,0,1,450.27,98.51Z"/>
<path class="cls-13" transform="translate(-206.64 -73.08)" d="M444.55,87.62a.49.49,0,0,1,.15-.12,1.11,1.11,0,0,1,1,0l12.18,7a.34.34,0,0,1,.09.08.28.28,0,0,0-.09-.46l-12.18-7a1.11,1.11,0,0,0-1,0C444.44,87.27,444.4,87.47,444.55,87.62Z"/>
<path class="cls-13" transform="translate(-206.64 -73.08)" d="M442.37,88.88a.61.61,0,0,1,.15-.12,1.14,1.14,0,0,1,1-.05l12.19,7s.05,0,.08.07a.27.27,0,0,0-.08-.45l-12.19-7a1.11,1.11,0,0,0-1,0C442.27,88.52,442.22,88.73,442.37,88.88Z"/>
<path class="cls-13" transform="translate(-206.64 -73.08)" d="M440.19,90.14a.64.64,0,0,1,.15-.13,1.13,1.13,0,0,1,1,0l12.18,7a.29.29,0,0,1,.08.07.27.27,0,0,0-.08-.45l-12.18-7a1.13,1.13,0,0,0-1,0C440.09,89.78,440,90,440.19,90.14Z"/>
<path class="cls-13" transform="translate(-206.64 -73.08)" d="M438,91.4a.53.53,0,0,1,.16-.13,1.11,1.11,0,0,1,1,0l12.18,7a.34.34,0,0,1,.09.08.28.28,0,0,0-.09-.46l-12.18-7a1.11,1.11,0,0,0-1,0C437.91,91,437.87,91.25,438,91.4Z"/>
<path class="cls-10" transform="translate(-206.64 -73.08)" d="M474.51,102.44l-12.18-7c-.26-.14-.23-.4.07-.57h0a1.11,1.11,0,0,1,1,0l12.18,7c.26.15.23.41-.07.58h0A1.11,1.11,0,0,1,474.51,102.44Z"/>
<path class="cls-13" transform="translate(-206.64 -73.08)" d="M462.24,95.33a.75.75,0,0,1,.16-.13,1.11,1.11,0,0,1,1,0l12.18,7a.29.29,0,0,1,.08.07.27.27,0,0,0-.08-.45l-12.18-7a1.11,1.11,0,0,0-1,0C462.14,95,462.1,95.18,462.24,95.33Z"/>
<path class="cls-10" transform="translate(-206.64 -73.08)" d="M472.33,103.7l-12.18-7c-.26-.15-.23-.4.07-.58h0a1.11,1.11,0,0,1,1,0l12.18,7c.26.15.23.4-.07.58h0A1.11,1.11,0,0,1,472.33,103.7Z"/>
<path class="cls-10" transform="translate(-206.64 -73.08)" d="M470.15,105l-12.18-7c-.26-.15-.23-.41.07-.58h0a1.11,1.11,0,0,1,1,0l12.18,7c.26.14.23.4-.07.57h0A1.11,1.11,0,0,1,470.15,105Z"/>
<path class="cls-10" transform="translate(-206.64 -73.08)" d="M468,106.21l-12.18-7c-.26-.15-.23-.41.07-.58h0a1.11,1.11,0,0,1,1,0l12.18,7c.26.15.23.41-.07.58h0A1.11,1.11,0,0,1,468,106.21Z"/>
<path class="cls-10" transform="translate(-206.64 -73.08)" d="M465.79,107.47l-12.18-7c-.26-.15-.23-.41.07-.58h0a1.11,1.11,0,0,1,1,0l12.18,7c.26.15.23.41-.07.58h0A1.11,1.11,0,0,1,465.79,107.47Z"/>
<path class="cls-13" transform="translate(-206.64 -73.08)" d="M460.07,96.59a.49.49,0,0,1,.15-.13,1.11,1.11,0,0,1,1,0l12.19,7,.08.08a.27.27,0,0,0-.08-.45l-12.19-7a1.11,1.11,0,0,0-1,0C460,96.23,459.92,96.44,460.07,96.59Z"/>
<path class="cls-13" transform="translate(-206.64 -73.08)" d="M457.89,97.84l.15-.12a1.13,1.13,0,0,1,1,0l12.18,7a.2.2,0,0,1,.08.08.28.28,0,0,0-.08-.46l-12.18-7a1.13,1.13,0,0,0-1,0C457.79,97.49,457.74,97.69,457.89,97.84Z"/>
<path class="cls-13" transform="translate(-206.64 -73.08)" d="M455.71,99.1a.52.52,0,0,1,.16-.12,1.11,1.11,0,0,1,1,0l12.18,7a.29.29,0,0,1,.08.07.27.27,0,0,0-.08-.45l-12.18-7a1.11,1.11,0,0,0-1,0C455.61,98.74,455.57,99,455.71,99.1Z"/>
<path class="cls-13" transform="translate(-206.64 -73.08)" d="M453.54,100.36a.49.49,0,0,1,.15-.13,1.11,1.11,0,0,1,1,0l12.19,7,.08.07a.27.27,0,0,0-.08-.45l-12.19-7a1.11,1.11,0,0,0-1,0C453.44,100,453.39,100.21,453.54,100.36Z"/>
<path class="cls-10" transform="translate(-206.64 -73.08)" d="M470.63,234.93a1.07,1.07,0,0,1-.52-.14,1,1,0,0,1-.52-.9V127.6a1.87,1.87,0,0,1,.94-1.62l20.24-11.69a1.07,1.07,0,0,1,1,0,1,1,0,0,1,.51.9V221.48a1.86,1.86,0,0,1-.93,1.62l-20.24,11.69A1.1,1.1,0,0,1,470.63,234.93Zm20.66-120.22a.44.44,0,0,0-.24.07l-20.24,11.69a1.29,1.29,0,0,0-.66,1.13V233.89a.48.48,0,0,0,.24.42.51.51,0,0,0,.48,0l20.24-11.69.14.24-.14-.24a1.34,1.34,0,0,0,.66-1.14V115.19a.46.46,0,0,0-.24-.41A.44.44,0,0,0,491.29,114.71Z"/>
<path class="cls-10" transform="translate(-206.64 -73.08)" d="M488.49,176.26l.5-.29a.66.66,0,0,0,.28-.54v-5.68c0-.21-.12-.3-.28-.21l-.5.28a.69.69,0,0,0-.28.54V176C488.21,176.25,488.34,176.35,488.49,176.26Z"/>
</g>
<g class="cls-2">
<path class="cls-3" transform="translate(-206.64 -73.08)" d="m283.52 285.74 29.82-17.22c2.12-1.22 1.86-3.36-0.59-4.77l-28.64-16.54c-2.45-1.41-6.15-1.56-8.27-0.34l-29.84 17.22c-2.12 1.23-1.85 3.36 0.6 4.78l28.63 16.53c2.46 1.42 6.17 1.6 8.29 0.34z"/>
<path class="cls-14" transform="translate(-206.64 -73.08)" d="M280,290.52a11.66,11.66,0,0,1-5.69-1.42l-33.74-19.47c-1.62-.94-2.56-2.21-2.56-3.49a3.25,3.25,0,0,1,1.86-2.75L275,243.11c2.59-1.5,7.12-1.32,10.1.4L318.81,263c1.63.94,2.56,2.21,2.56,3.48a3.24,3.24,0,0,1-1.86,2.75l-35.13,20.29A9,9,0,0,1,280,290.52Zm-.58-47.73a8.2,8.2,0,0,0-4.06.93L240.2,264a2.56,2.56,0,0,0-1.51,2.14c0,1,.8,2.07,2.21,2.88l33.73,19.48c2.78,1.6,7,1.78,9.39.4l35.14-20.29a2.58,2.58,0,0,0,1.51-2.14c0-1-.81-2.06-2.21-2.87l-33.74-19.48A11,11,0,0,0,279.39,242.79Z"/>
<path class="cls-15" transform="translate(-206.64 -73.08)" d="M314.77,93.34H300l-16.46-9.51c-2.12-1.22-5.83-1.07-8.28.35l-15.87,9.16H244.59V232.43h0a2.38,2.38,0,0,0,1.42,2.21l29.83,17.22c2.12,1.23,5.82,1.07,8.27-.34L312.75,235a3.51,3.51,0,0,0,2-2.56h0Z"/>
<path class="cls-16" transform="translate(-206.64 -73.08)" d="m312.75 234.3-28.64 16.54c-2.45 1.41-6.15 1.56-8.27 0.34l-29.84-17.18a2.4 2.4 0 0 1-1.42-2.22v0.69a2.38 2.38 0 0 0 1.42 2.21l29.83 17.22c2.12 1.23 5.82 1.07 8.27-0.34l28.65-16.56a3.51 3.51 0 0 0 2-2.56v-0.69a3.48 3.48 0 0 1-2 2.55z"/>
<path class="cls-7" transform="translate(-206.64 -73.08)" d="M245.52,233.11h0V94H260.3l15.88-9.16c2.44-1.41,6.15-1.57,8.27-.34L300.92,94h13.85v-.68H300l-16.46-9.51c-2.12-1.22-5.83-1.07-8.28.35l-15.87,9.16H244.59V232.43h0a2.38,2.38,0,0,0,1.42,2.21l.17.1A2.09,2.09,0,0,1,245.52,233.11Z"/>
<path class="cls-8" transform="translate(-206.64 -73.08)" d="m313.93 94.14v139a2.63 2.63 0 0 1-0.7 1.52 3.17 3.17 0 0 0 1.54-2.26v-139a4.28 4.28 0 0 0-0.84 0.74z"/>
<path class="cls-17" transform="translate(-206.64 -73.08)" d="m275.84 112.78-29.84-17.22c-2.12-1.23-1.85-3.37 0.6-4.78l28.63-16.53c2.45-1.42 6.16-1.57 8.28-0.35l29.82 17.22c2.12 1.23 1.86 3.37-0.59 4.78l-28.64 16.53c-2.44 1.42-6.1 1.57-8.26 0.35z"/>
<path class="cls-8" transform="translate(-206.64 -73.08)" d="m313.34 91.12-29.82-17.22a7.75 7.75 0 0 0-4.18-0.8 6.87 6.87 0 0 1 3 0.8l29.82 17.22c2.13 1.23 1.86 3.37-0.59 4.78l-28.64 16.53a9.4 9.4 0 0 1-4.09 1.15 9.67 9.67 0 0 0 5.26-1.15l28.65-16.53c2.45-1.41 2.71-3.55 0.59-4.78z"/>
<path class="cls-7" transform="translate(-206.64 -73.08)" d="m277.18 112.78-29.83-17.22c-2.12-1.23-1.85-3.37 0.59-4.78l28.64-16.53a9.28 9.28 0 0 1 4-1.15 9.7 9.7 0 0 0-5.37 1.15l-28.6 16.53c-2.45 1.41-2.72 3.55-0.6 4.78l29.83 17.22a7.75 7.75 0 0 0 4.24 0.8 6.83 6.83 0 0 1-2.9-0.8z"/>
<path class="cls-10" transform="translate(-206.64 -73.08)" d="M252.31,222.86l20.24,11.69a.75.75,0,0,0,1.13-.66V127.6a1.6,1.6,0,0,0-.79-1.38l-20.25-11.68a.75.75,0,0,0-1.13.65V221.48A1.58,1.58,0,0,0,252.31,222.86Z"/>
<path class="cls-11" transform="translate(-206.64 -73.08)" d="M252.14,114.45a.75.75,0,0,0-.29.59V221.33a1.59,1.59,0,0,0,.79,1.38l20.25,11.69a.74.74,0,0,0,.5.08.75.75,0,0,1-.84.07l-20.24-11.69a1.58,1.58,0,0,1-.8-1.38V115.19A.75.75,0,0,1,252.14,114.45Z"/>
<path class="cls-11" transform="translate(-206.64 -73.08)" d="m270.13 145.46-15.07-8.71a1.1 1.1 0 0 1-0.46-0.88v-1.31c0-0.34 0.21-0.49 0.46-0.35l15.07 8.7a1.09 1.09 0 0 1 0.46 0.88v1.32c0 0.34-0.2 0.49-0.46 0.35z"/>
<path class="cls-12" transform="translate(-206.64 -73.08)" d="M255.67,136.41a1.09,1.09,0,0,1-.46-.88V134.3l-.15-.09c-.25-.14-.46,0-.46.35v1.31a1.1,1.1,0,0,0,.46.88l15.07,8.71c.26.14.46,0,.46-.35V145Z"/>
<path class="cls-11" transform="translate(-206.64 -73.08)" d="m270.13 149.27-15.07-8.71a1.1 1.1 0 0 1-0.46-0.88v-1.31c0-0.34 0.21-0.49 0.46-0.35l15.07 8.7a1.09 1.09 0 0 1 0.46 0.88v1.32c0 0.34-0.2 0.49-0.46 0.35z"/>
<path class="cls-12" transform="translate(-206.64 -73.08)" d="M255.67,140.22a1.09,1.09,0,0,1-.46-.88v-1.23l-.15-.09c-.25-.14-.46,0-.46.35v1.31a1.1,1.1,0,0,0,.46.88l15.07,8.71c.26.14.46,0,.46-.35v-.09Z"/>
<path class="cls-11" transform="translate(-206.64 -73.08)" d="m270.13 153.08-15.07-8.71a1.1 1.1 0 0 1-0.46-0.88v-1.31c0-0.34 0.21-0.5 0.46-0.35l15.07 8.7a1.09 1.09 0 0 1 0.46 0.88v1.32c0 0.34-0.2 0.49-0.46 0.35z"/>
<path class="cls-12" transform="translate(-206.64 -73.08)" d="M255.67,144a1.09,1.09,0,0,1-.46-.88v-1.23l-.15-.09c-.25-.15-.46,0-.46.35v1.31a1.1,1.1,0,0,0,.46.88l15.07,8.71c.26.14.46,0,.46-.35v-.09Z"/>
<path class="cls-11" transform="translate(-206.64 -73.08)" d="m270.13 156.88-15.07-8.7a1.1 1.1 0 0 1-0.46-0.88v-1.3c0-0.34 0.21-0.5 0.46-0.35l15.07 8.7a1.09 1.09 0 0 1 0.46 0.88v1.32c0 0.33-0.2 0.45-0.46 0.33z"/>
<path class="cls-12" transform="translate(-206.64 -73.08)" d="M255.67,147.83a1.07,1.07,0,0,1-.46-.87v-1.23l-.15-.09c-.25-.15-.46,0-.46.35v1.31a1.1,1.1,0,0,0,.46.88l15.07,8.7c.26.15.46,0,.46-.34v-.09Z"/>
<path class="cls-11" transform="translate(-206.64 -73.08)" d="m270.13 164.78-15.07-8.7a1.1 1.1 0 0 1-0.46-0.88v-1.31c0-0.34 0.21-0.5 0.46-0.35l15.07 8.7a1.09 1.09 0 0 1 0.46 0.88v1.32c0 0.34-0.2 0.49-0.46 0.34z"/>
<path class="cls-12" transform="translate(-206.64 -73.08)" d="M255.67,155.74a1.11,1.11,0,0,1-.46-.88v-1.23l-.15-.09c-.25-.15-.46,0-.46.35v1.31a1.1,1.1,0,0,0,.46.88l15.07,8.7c.26.15.46,0,.46-.34v-.09Z"/>
<path class="cls-11" transform="translate(-206.64 -73.08)" d="m270.13 168.59-15.07-8.7a1.1 1.1 0 0 1-0.46-0.88v-1.31c0-0.34 0.21-0.5 0.46-0.35l15.07 8.7a1.09 1.09 0 0 1 0.46 0.88v1.32c0 0.34-0.2 0.49-0.46 0.34z"/>
<path class="cls-12" transform="translate(-206.64 -73.08)" d="M255.67,159.54a1.07,1.07,0,0,1-.46-.87v-1.23l-.15-.09c-.25-.15-.46,0-.46.35V159a1.1,1.1,0,0,0,.46.88l15.07,8.7c.26.15.46,0,.46-.34v-.09Z"/>
<path class="cls-11" transform="translate(-206.64 -73.08)" d="m270.13 172.4-15.07-8.7a1.12 1.12 0 0 1-0.46-0.88v-1.31c0-0.34 0.21-0.5 0.46-0.35l15.07 8.7a1.09 1.09 0 0 1 0.46 0.88v1.32c0 0.33-0.2 0.49-0.46 0.34z"/>
<path class="cls-12" transform="translate(-206.64 -73.08)" d="M255.67,163.35a1.07,1.07,0,0,1-.46-.87v-1.23l-.15-.09c-.25-.15-.46,0-.46.35v1.31a1.12,1.12,0,0,0,.46.88l15.07,8.7c.26.15.46,0,.46-.34V172Z"/>
<path class="cls-11" transform="translate(-206.64 -73.08)" d="m270.13 176.21-15.07-8.7a1.12 1.12 0 0 1-0.46-0.88v-1.31c0-0.34 0.21-0.5 0.46-0.35l15.07 8.7a1.09 1.09 0 0 1 0.46 0.88v1.32c0 0.33-0.2 0.49-0.46 0.34z"/>
<path class="cls-12" transform="translate(-206.64 -73.08)" d="M255.67,167.16a1.08,1.08,0,0,1-.46-.88v-1.22l-.15-.09c-.25-.15-.46,0-.46.35v1.31a1.12,1.12,0,0,0,.46.88l15.07,8.7c.26.15.46,0,.46-.34v-.09Z"/>
<path class="cls-11" transform="translate(-206.64 -73.08)" d="m270.13 184.11-15.07-8.7a1.12 1.12 0 0 1-0.46-0.88v-1.31c0-0.34 0.21-0.5 0.46-0.35l15.07 8.7a1.09 1.09 0 0 1 0.46 0.88v1.32c0 0.33-0.2 0.49-0.46 0.34z"/>
<path class="cls-12" transform="translate(-206.64 -73.08)" d="M255.67,175.06a1.08,1.08,0,0,1-.46-.88V173l-.15-.09c-.25-.15-.46,0-.46.35v1.31a1.12,1.12,0,0,0,.46.88l15.07,8.7c.26.15.46,0,.46-.34v-.09Z"/>
<path class="cls-11" transform="translate(-206.64 -73.08)" d="m270.13 187.92-15.07-8.7a1.12 1.12 0 0 1-0.46-0.88v-1.34c0-0.34 0.21-0.5 0.46-0.35l15.07 8.7a1.09 1.09 0 0 1 0.46 0.88v1.32c0 0.36-0.2 0.52-0.46 0.37z"/>
<path class="cls-12" transform="translate(-206.64 -73.08)" d="M255.67,178.87a1.08,1.08,0,0,1-.46-.88v-1.23l-.15-.08c-.25-.15-.46,0-.46.35v1.31a1.12,1.12,0,0,0,.46.88l15.07,8.7c.26.15.46,0,.46-.34v-.09Z"/>
<path class="cls-11" transform="translate(-206.64 -73.08)" d="m270.13 191.73-15.07-8.73a1.12 1.12 0 0 1-0.46-0.88v-1.31c0-0.34 0.21-0.5 0.46-0.35l15.07 8.7a1.09 1.09 0 0 1 0.46 0.88v1.32c0 0.36-0.2 0.52-0.46 0.37z"/>
<path class="cls-12" transform="translate(-206.64 -73.08)" d="M255.67,182.68a1.08,1.08,0,0,1-.46-.88v-1.23l-.15-.08c-.25-.15-.46,0-.46.35v1.31a1.12,1.12,0,0,0,.46.88l15.07,8.7c.26.15.46,0,.46-.35v-.08Z"/>
<path class="cls-11" transform="translate(-206.64 -73.08)" d="m270.13 195.54-15.07-8.7a1.12 1.12 0 0 1-0.46-0.88v-1.31c0-0.34 0.21-0.5 0.46-0.35l15.07 8.7a1.09 1.09 0 0 1 0.46 0.88v1.31c0 0.34-0.2 0.5-0.46 0.35z"/>
<path class="cls-12" transform="translate(-206.64 -73.08)" d="M255.67,186.49a1.08,1.08,0,0,1-.46-.88v-1.23l-.15-.08c-.25-.15-.46,0-.46.35V186a1.12,1.12,0,0,0,.46.88l15.07,8.7c.26.15.46,0,.46-.35v-.08Z"/>
<path class="cls-11" transform="translate(-206.64 -73.08)" d="m270.13 203.44-15.07-8.7a1.12 1.12 0 0 1-0.46-0.88v-1.31c0-0.34 0.21-0.5 0.46-0.35l15.07 8.7a1.09 1.09 0 0 1 0.46 0.88v1.31c0 0.34-0.2 0.5-0.46 0.35z"/>
<path class="cls-12" transform="translate(-206.64 -73.08)" d="M255.67,194.39a1.08,1.08,0,0,1-.46-.88v-1.23l-.15-.08c-.25-.15-.46,0-.46.35v1.31a1.12,1.12,0,0,0,.46.88l15.07,8.7c.26.15.46,0,.46-.35V203Z"/>
<path class="cls-11" transform="translate(-206.64 -73.08)" d="m270.13 207.25-15.07-8.7a1.12 1.12 0 0 1-0.46-0.88v-1.31c0-0.34 0.21-0.5 0.46-0.35l15.07 8.7a1.09 1.09 0 0 1 0.46 0.88v1.31c0 0.34-0.2 0.5-0.46 0.35z"/>
<path class="cls-12" transform="translate(-206.64 -73.08)" d="M255.67,198.2a1.08,1.08,0,0,1-.46-.88v-1.23l-.15-.08c-.25-.15-.46,0-.46.35v1.31a1.12,1.12,0,0,0,.46.88l15.07,8.7c.26.15.46,0,.46-.35v-.08Z"/>
<path class="cls-11" transform="translate(-206.64 -73.08)" d="m270.13 211.06-15.07-8.7a1.12 1.12 0 0 1-0.46-0.88v-1.31c0-0.34 0.21-0.5 0.46-0.35l15.07 8.7a1.09 1.09 0 0 1 0.46 0.88v1.31c0 0.34-0.2 0.5-0.46 0.35z"/>
<path class="cls-12" transform="translate(-206.64 -73.08)" d="M255.67,202a1.08,1.08,0,0,1-.46-.88V199.9l-.15-.08c-.25-.15-.46,0-.46.35v1.31a1.12,1.12,0,0,0,.46.88l15.07,8.7c.26.15.46,0,.46-.35v-.08Z"/>
<path class="cls-11" transform="translate(-206.64 -73.08)" d="m270.13 214.87-15.07-8.7a1.12 1.12 0 0 1-0.46-0.88v-1.29c0-0.34 0.21-0.5 0.46-0.35l15.07 8.7a1.09 1.09 0 0 1 0.46 0.88v1.31c0 0.32-0.2 0.46-0.46 0.33z"/>
<path class="cls-12" transform="translate(-206.64 -73.08)" d="M255.67,205.82a1.09,1.09,0,0,1-.46-.88v-1.23l-.15-.08c-.25-.15-.46,0-.46.35v1.31a1.12,1.12,0,0,0,.46.88l15.07,8.7c.26.15.46,0,.46-.35v-.08Z"/>
<path class="cls-10" transform="translate(-206.64 -73.08)" d="M288.87,86.06l-12.19-7c-.25-.15-.22-.41.08-.58h0a1.11,1.11,0,0,1,1,0l12.18,7c.26.15.23.41-.07.58h0A1.11,1.11,0,0,1,288.87,86.06Z"/>
<path class="cls-13" transform="translate(-206.64 -73.08)" d="M276.6,79a.74.74,0,0,1,.16-.12,1.11,1.11,0,0,1,1,0l12.18,7a.2.2,0,0,1,.08.08.28.28,0,0,0-.08-.46l-12.18-7a1.11,1.11,0,0,0-1,0C276.5,78.6,276.46,78.8,276.6,79Z"/>
<path class="cls-10" transform="translate(-206.64 -73.08)" d="M286.69,87.32l-12.19-7c-.25-.15-.22-.41.08-.58h0a1.11,1.11,0,0,1,1,0l12.18,7c.26.15.23.41-.07.58h0A1.11,1.11,0,0,1,286.69,87.32Z"/>
<path class="cls-10" transform="translate(-206.64 -73.08)" d="M284.51,88.58l-12.19-7c-.25-.15-.22-.41.08-.58h0a1.14,1.14,0,0,1,1,0l12.18,7c.26.15.23.41-.07.58h0A1.11,1.11,0,0,1,284.51,88.58Z"/>
<path class="cls-10" transform="translate(-206.64 -73.08)" d="M282.33,89.84l-12.19-7c-.25-.14-.22-.4.08-.57h0a1.11,1.11,0,0,1,1,0l12.18,7c.26.15.23.41-.07.58h0A1.11,1.11,0,0,1,282.33,89.84Z"/>
<path class="cls-10" transform="translate(-206.64 -73.08)" d="M280.15,91.1l-12.19-7c-.25-.15-.22-.4.08-.58h0a1.11,1.11,0,0,1,1,0l12.18,7c.26.14.23.4-.07.58h0A1.11,1.11,0,0,1,280.15,91.1Z"/>
<path class="cls-13" transform="translate(-206.64 -73.08)" d="M274.43,80.21a.47.47,0,0,1,.15-.12,1.11,1.11,0,0,1,1,0l12.19,7,.08.07a.27.27,0,0,0-.08-.45l-12.19-7a1.14,1.14,0,0,0-1,0C274.33,79.85,274.28,80.06,274.43,80.21Z"/>
<path class="cls-13" transform="translate(-206.64 -73.08)" d="M272.25,81.47a.64.64,0,0,1,.15-.13,1.13,1.13,0,0,1,1,0l12.18,7a.6.6,0,0,1,.08.08.27.27,0,0,0-.08-.45l-12.18-7a1.13,1.13,0,0,0-1,0C272.15,81.11,272.1,81.32,272.25,81.47Z"/>
<path class="cls-13" transform="translate(-206.64 -73.08)" d="M270.07,82.72a.74.74,0,0,1,.16-.12,1.11,1.11,0,0,1,1,0l12.18,7a.2.2,0,0,1,.08.08.28.28,0,0,0-.08-.46l-12.18-7a1.11,1.11,0,0,0-1,0C270,82.37,269.92,82.57,270.07,82.72Z"/>
<path class="cls-13" transform="translate(-206.64 -73.08)" d="M267.9,84a.47.47,0,0,1,.15-.12,1.14,1.14,0,0,1,1,0l12.19,7,.08.07a.27.27,0,0,0-.08-.45l-12.19-7a1.11,1.11,0,0,0-1,0C267.8,83.62,267.75,83.83,267.9,84Z"/>
<path class="cls-10" transform="translate(-206.64 -73.08)" d="M304.39,95l-12.18-7c-.26-.15-.23-.41.07-.58h0a1.11,1.11,0,0,1,1,0l12.19,7c.25.15.22.41-.08.58h0A1.11,1.11,0,0,1,304.39,95Z"/>
<path class="cls-13" transform="translate(-206.64 -73.08)" d="M292.13,87.92a.49.49,0,0,1,.15-.13,1.11,1.11,0,0,1,1,0l12.19,7,.08.08a.28.28,0,0,0-.08-.46l-12.19-7a1.11,1.11,0,0,0-1,0C292,87.56,292,87.76,292.13,87.92Z"/>
<path class="cls-10" transform="translate(-206.64 -73.08)" d="M302.21,96.28l-12.18-7c-.26-.15-.23-.41.07-.58h0a1.11,1.11,0,0,1,1,0l12.19,7c.25.15.22.41-.08.58h0A1.11,1.11,0,0,1,302.21,96.28Z"/>
<path class="cls-10" transform="translate(-206.64 -73.08)" d="M300,97.54l-12.18-7c-.26-.15-.23-.41.07-.58h0a1.11,1.11,0,0,1,1,0l12.19,7c.25.15.22.41-.08.58h0A1.11,1.11,0,0,1,300,97.54Z"/>
<path class="cls-10" transform="translate(-206.64 -73.08)" d="M297.85,98.8l-12.18-7c-.26-.15-.23-.41.07-.58h0a1.11,1.11,0,0,1,1,0l12.19,7c.25.15.22.41-.08.58h0A1.11,1.11,0,0,1,297.85,98.8Z"/>
<path class="cls-10" transform="translate(-206.64 -73.08)" d="M295.67,100.06l-12.18-7c-.26-.14-.23-.4.07-.57h0a1.11,1.11,0,0,1,1,0l12.19,7c.25.15.22.41-.08.58h0A1.11,1.11,0,0,1,295.67,100.06Z"/>
<path class="cls-13" transform="translate(-206.64 -73.08)" d="M290,89.17a.61.61,0,0,1,.15-.12,1.13,1.13,0,0,1,1,0l12.18,7s0,0,.08.07a.27.27,0,0,0-.08-.45l-12.18-7a1.13,1.13,0,0,0-1,0C289.85,88.81,289.8,89,290,89.17Z"/>
<path class="cls-13" transform="translate(-206.64 -73.08)" d="M287.77,90.43a.75.75,0,0,1,.16-.13,1.11,1.11,0,0,1,1,0l12.18,7a.29.29,0,0,1,.08.07.27.27,0,0,0-.08-.45l-12.18-7a1.11,1.11,0,0,0-1,.05C287.67,90.07,287.62,90.28,287.77,90.43Z"/>
<path class="cls-13" transform="translate(-206.64 -73.08)" d="M285.6,91.69a.49.49,0,0,1,.15-.13,1.11,1.11,0,0,1,1,0l12.19,7,.08.08a.27.27,0,0,0-.08-.45l-12.19-7a1.11,1.11,0,0,0-1,0C285.49,91.33,285.45,91.54,285.6,91.69Z"/>
<path class="cls-13" transform="translate(-206.64 -73.08)" d="M283.42,92.94l.15-.12a1.11,1.11,0,0,1,1,0l12.19,7s.05,0,.08.08a.28.28,0,0,0-.08-.46l-12.19-7a1.11,1.11,0,0,0-1,0C283.32,92.59,283.27,92.79,283.42,92.94Z"/>
<path class="cls-10" transform="translate(-206.64 -73.08)" d="M276.13,93.48l-12.19-7c-.25-.15-.22-.41.07-.58h0a1.13,1.13,0,0,1,1,0l12.18,7c.26.14.23.4-.07.58h0A1.11,1.11,0,0,1,276.13,93.48Z"/>
<path class="cls-13" transform="translate(-206.64 -73.08)" d="M263.86,86.37a.64.64,0,0,1,.15-.13,1.13,1.13,0,0,1,1,0l12.18,7a.3.3,0,0,1,.08.08.27.27,0,0,0-.08-.45l-12.18-7a1.13,1.13,0,0,0-1,0C263.76,86,263.71,86.22,263.86,86.37Z"/>
<path class="cls-10" transform="translate(-206.64 -73.08)" d="M274,94.74l-12.19-7c-.25-.15-.22-.41.07-.58h0a1.13,1.13,0,0,1,1,0l12.18,7c.26.15.23.41-.07.58h0A1.11,1.11,0,0,1,274,94.74Z"/>
<path class="cls-10" transform="translate(-206.64 -73.08)" d="M271.77,96l-12.19-7c-.25-.15-.22-.41.07-.58h0a1.13,1.13,0,0,1,1,0l12.18,7c.26.15.23.41-.07.58h0A1.11,1.11,0,0,1,271.77,96Z"/>
<path class="cls-10" transform="translate(-206.64 -73.08)" d="M269.59,97.25l-12.19-7c-.25-.15-.22-.41.07-.58h0a1.13,1.13,0,0,1,1,0l12.18,7c.26.15.23.41-.07.58h0A1.11,1.11,0,0,1,269.59,97.25Z"/>
<path class="cls-10" transform="translate(-206.64 -73.08)" d="M267.41,98.51l-12.19-7c-.25-.15-.22-.41.07-.58h0a1.13,1.13,0,0,1,1,0l12.18,7c.26.15.23.41-.07.58h0A1.11,1.11,0,0,1,267.41,98.51Z"/>
<path class="cls-13" transform="translate(-206.64 -73.08)" d="M261.68,87.62a.74.74,0,0,1,.16-.12,1.11,1.11,0,0,1,1,0l12.18,7a.2.2,0,0,1,.08.08.28.28,0,0,0-.08-.46l-12.18-7a1.11,1.11,0,0,0-1,0C261.58,87.27,261.54,87.47,261.68,87.62Z"/>
<path class="cls-13" transform="translate(-206.64 -73.08)" d="M259.51,88.88a.61.61,0,0,1,.15-.12,1.14,1.14,0,0,1,1-.05l12.19,7,.08.07a.27.27,0,0,0-.08-.45l-12.19-7a1.11,1.11,0,0,0-1,0C259.41,88.52,259.36,88.73,259.51,88.88Z"/>
<path class="cls-13" transform="translate(-206.64 -73.08)" d="M257.33,90.14a.64.64,0,0,1,.15-.13,1.13,1.13,0,0,1,1,0l12.18,7a.29.29,0,0,1,.08.07.27.27,0,0,0-.08-.45l-12.18-7a1.13,1.13,0,0,0-1,0C257.23,89.78,257.18,90,257.33,90.14Z"/>
<path class="cls-13" transform="translate(-206.64 -73.08)" d="M255.15,91.4a.53.53,0,0,1,.16-.13,1.11,1.11,0,0,1,1,0l12.18,7a.2.2,0,0,1,.08.08.28.28,0,0,0-.08-.46l-12.18-7a1.11,1.11,0,0,0-1,0C255.05,91,255,91.25,255.15,91.4Z"/>
<path class="cls-10" transform="translate(-206.64 -73.08)" d="M291.65,102.44l-12.19-7c-.25-.14-.22-.4.08-.57h0a1.11,1.11,0,0,1,1,0l12.18,7c.26.15.23.41-.07.58h0A1.11,1.11,0,0,1,291.65,102.44Z"/>
<path class="cls-13" transform="translate(-206.64 -73.08)" d="M279.38,95.33a.75.75,0,0,1,.16-.13,1.11,1.11,0,0,1,1,0l12.18,7a.29.29,0,0,1,.08.07.27.27,0,0,0-.08-.45l-12.18-7a1.11,1.11,0,0,0-1,0C279.28,95,279.24,95.18,279.38,95.33Z"/>
<path class="cls-10" transform="translate(-206.64 -73.08)" d="M289.47,103.7l-12.19-7c-.25-.15-.22-.4.08-.58h0a1.11,1.11,0,0,1,1,0l12.18,7c.26.15.23.4-.07.58h0A1.11,1.11,0,0,1,289.47,103.7Z"/>
<path class="cls-10" transform="translate(-206.64 -73.08)" d="M287.29,105l-12.18-7c-.26-.15-.23-.41.07-.58h0a1.11,1.11,0,0,1,1,0l12.18,7c.26.14.23.4-.07.57h0A1.11,1.11,0,0,1,287.29,105Z"/>
<path class="cls-10" transform="translate(-206.64 -73.08)" d="M285.11,106.21l-12.18-7c-.26-.15-.23-.41.07-.58h0a1.11,1.11,0,0,1,1,0l12.18,7c.26.15.23.41-.07.58h0A1.11,1.11,0,0,1,285.11,106.21Z"/>
<path class="cls-10" transform="translate(-206.64 -73.08)" d="M282.93,107.47l-12.18-7c-.26-.15-.23-.41.07-.58h0a1.11,1.11,0,0,1,1,0l12.18,7c.26.15.23.41-.07.58h0A1.11,1.11,0,0,1,282.93,107.47Z"/>
<path class="cls-13" transform="translate(-206.64 -73.08)" d="M277.21,96.59a.49.49,0,0,1,.15-.13,1.11,1.11,0,0,1,1,0l12.19,7,.08.08a.27.27,0,0,0-.08-.45l-12.19-7a1.11,1.11,0,0,0-1,0C277.11,96.23,277.06,96.44,277.21,96.59Z"/>
<path class="cls-13" transform="translate(-206.64 -73.08)" d="M275,97.84l.15-.12a1.13,1.13,0,0,1,1,0l12.18,7a.2.2,0,0,1,.08.08.28.28,0,0,0-.08-.46l-12.18-7a1.13,1.13,0,0,0-1,0C274.93,97.49,274.88,97.69,275,97.84Z"/>
<path class="cls-13" transform="translate(-206.64 -73.08)" d="M272.85,99.1A.52.52,0,0,1,273,99a1.11,1.11,0,0,1,1,0l12.18,7a.29.29,0,0,1,.08.07.27.27,0,0,0-.08-.45l-12.18-7a1.11,1.11,0,0,0-1,0C272.75,98.74,272.71,99,272.85,99.1Z"/>
<path class="cls-13" transform="translate(-206.64 -73.08)" d="M270.68,100.36a.49.49,0,0,1,.15-.13,1.11,1.11,0,0,1,1,0l12.19,7,.08.07a.27.27,0,0,0-.08-.45l-12.19-7a1.11,1.11,0,0,0-1,0C270.58,100,270.53,100.21,270.68,100.36Z"/>
<path class="cls-10" transform="translate(-206.64 -73.08)" d="M287.77,234.93a1.07,1.07,0,0,1-.52-.14,1,1,0,0,1-.52-.9V127.6a1.87,1.87,0,0,1,.94-1.62l20.24-11.69a1.07,1.07,0,0,1,1,0,1,1,0,0,1,.51.9V221.48a1.86,1.86,0,0,1-.93,1.62l-20.24,11.69A1.1,1.1,0,0,1,287.77,234.93Zm20.66-120.22a.44.44,0,0,0-.24.07L288,126.47a1.29,1.29,0,0,0-.66,1.13V233.89a.48.48,0,0,0,.24.42.51.51,0,0,0,.48,0l20.24-11.69.14.24-.14-.24a1.34,1.34,0,0,0,.66-1.14V115.19a.46.46,0,0,0-.24-.41A.44.44,0,0,0,308.43,114.71Z"/>
<path class="cls-10" transform="translate(-206.64 -73.08)" d="M305.63,176.26l.5-.29a.66.66,0,0,0,.28-.54v-5.68c0-.21-.12-.3-.28-.21l-.5.28a.69.69,0,0,0-.28.54V176C305.35,176.25,305.48,176.35,305.63,176.26Z"/>
</g>
<path class="cls-3" transform="translate(-206.64 -73.08)" d="m374.73 348.93 29.83-17.22c2.12-1.23 1.85-3.37-0.6-4.78l-28.63-16.53c-2.45-1.42-6.16-1.57-8.28-0.35l-29.82 17.22c-2.12 1.23-1.86 3.37 0.59 4.78l28.64 16.53c2.45 1.42 6.15 1.57 8.27 0.35z"/>
<path class="cls-18" transform="translate(-206.64 -73.08)" d="M371.18,353.7a11.79,11.79,0,0,1-5.69-1.41l-33.73-19.48c-1.63-.94-2.56-2.21-2.56-3.49a3.25,3.25,0,0,1,1.86-2.75l35.13-20.28c2.6-1.5,7.12-1.32,10.1.4L410,326.17c1.62.94,2.56,2.21,2.56,3.49a3.24,3.24,0,0,1-1.86,2.74l-35.14,20.29A9,9,0,0,1,371.18,353.7ZM370.6,306a8.19,8.19,0,0,0-4.05.93l-35.14,20.28a2.58,2.58,0,0,0-1.51,2.14c0,1,.81,2.07,2.21,2.88l33.73,19.48c2.79,1.6,7,1.78,9.4.4l35.13-20.28a2.59,2.59,0,0,0,1.51-2.14c0-1-.8-2.07-2.21-2.88L375.94,307.3A11,11,0,0,0,370.6,306Z"/>
<path class="cls-19" transform="translate(-206.64 -73.08)" d="M406,156.52H391.2L374.73,147c-2.12-1.22-5.82-1.07-8.27.35l-15.87,9.16H335.8V295.61h0a2.38,2.38,0,0,0,1.42,2.21L367.05,315c2.12,1.23,5.83,1.07,8.28-.34L404,298.17a3.53,3.53,0,0,0,2-2.56h0Z"/>
<path class="cls-20" transform="translate(-206.64 -73.08)" d="m404 297.48-28.67 16.52c-2.45 1.41-6.16 1.56-8.28 0.34l-29.82-17.22a2.4 2.4 0 0 1-1.42-2.22v0.69a2.38 2.38 0 0 0 1.42 2.21l29.82 17.2c2.12 1.23 5.83 1.07 8.28-0.34l28.67-16.49a3.53 3.53 0 0 0 2-2.56v-0.69a3.5 3.5 0 0 1-2 2.56z"/>
<path class="cls-7" transform="translate(-206.64 -73.08)" d="M336.74,296.29h0V157.2h14.78L367.39,148c2.45-1.41,6.15-1.57,8.28-.34l16.46,9.5H406v-.68H391.2L374.73,147c-2.12-1.22-5.82-1.07-8.27.35l-15.87,9.16H335.8V295.61h0a2.38,2.38,0,0,0,1.42,2.21l.17.1A2.09,2.09,0,0,1,336.74,296.29Z"/>
<path class="cls-8" transform="translate(-206.64 -73.08)" d="m405.15 157.32v139a2.65 2.65 0 0 1-0.71 1.52 3.21 3.21 0 0 0 1.55-2.26v-139a4.66 4.66 0 0 0-0.84 0.74z"/>
<path class="cls-21" transform="translate(-206.64 -73.08)" d="m367.05 176-29.82-17.22c-2.12-1.23-1.86-3.37 0.59-4.78l28.64-16.53c2.45-1.42 6.15-1.57 8.27-0.35l29.83 17.22c2.12 1.23 1.85 3.37-0.6 4.78l-28.63 16.53c-2.45 1.35-6.16 1.53-8.28 0.35z"/>
<path class="cls-8" transform="translate(-206.64 -73.08)" d="m404.56 154.3-29.83-17.22a7.72 7.72 0 0 0-4.17-0.8 7 7 0 0 1 3 0.8l29.83 17.22c2.12 1.23 1.86 3.37-0.59 4.78l-28.64 16.53a9.28 9.28 0 0 1-4.1 1.15 9.71 9.71 0 0 0 5.27-1.15l28.67-16.53c2.41-1.41 2.68-3.55 0.56-4.78z"/>
<path class="cls-7" transform="translate(-206.64 -73.08)" d="M368.39,176l-29.82-17.22c-2.13-1.23-1.86-3.37.59-4.78l28.64-16.53a9.38,9.38,0,0,1,4-1.15,9.7,9.7,0,0,0-5.37,1.15L337.82,154c-2.45,1.41-2.71,3.55-.59,4.78L367.05,176a7.79,7.79,0,0,0,4.24.8A6.87,6.87,0,0,1,368.39,176Z"/>
<path class="cls-10" transform="translate(-206.64 -73.08)" d="M343.52,286l20.25,11.69a.75.75,0,0,0,1.13-.66V190.78a1.59,1.59,0,0,0-.8-1.38l-20.24-11.68a.75.75,0,0,0-1.13.65V284.66A1.59,1.59,0,0,0,343.52,286Z"/>
<path class="cls-11" transform="translate(-206.64 -73.08)" d="M343.36,177.63a.73.73,0,0,0-.3.59V284.51a1.6,1.6,0,0,0,.8,1.38l20.24,11.69a.77.77,0,0,0,.51.08.75.75,0,0,1-.84.07L343.52,286a1.59,1.59,0,0,1-.79-1.38V178.37A.75.75,0,0,1,343.36,177.63Z"/>
<path class="cls-11" transform="translate(-206.64 -73.08)" d="m361.35 208.64-15.07-8.71a1.07 1.07 0 0 1-0.46-0.87v-1.32c0-0.34 0.2-0.49 0.46-0.35l15.07 8.71a1.1 1.1 0 0 1 0.46 0.87v1.32c0 0.34-0.21 0.49-0.46 0.35z"/>
<path class="cls-12" transform="translate(-206.64 -73.08)" d="M346.88,199.59a1.12,1.12,0,0,1-.46-.88v-1.23l-.14-.09c-.26-.14-.46,0-.46.35v1.32a1.07,1.07,0,0,0,.46.87l15.07,8.71c.25.14.46,0,.46-.35v-.09Z"/>
<path class="cls-11" transform="translate(-206.64 -73.08)" d="m361.35 212.45-15.07-8.71a1.08 1.08 0 0 1-0.46-0.88v-1.31c0-0.34 0.2-0.49 0.46-0.35l15.07 8.7a1.12 1.12 0 0 1 0.46 0.88v1.32c0 0.34-0.21 0.49-0.46 0.35z"/>
<path class="cls-12" transform="translate(-206.64 -73.08)" d="M346.88,203.4a1.12,1.12,0,0,1-.46-.88v-1.23l-.14-.09c-.26-.14-.46,0-.46.35v1.31a1.08,1.08,0,0,0,.46.88l15.07,8.71c.25.14.46,0,.46-.35V212Z"/>
<path class="cls-11" transform="translate(-206.64 -73.08)" d="m361.35 216.26-15.07-8.71a1.08 1.08 0 0 1-0.46-0.88v-1.31c0-0.34 0.2-0.49 0.46-0.35l15.07 8.7a1.12 1.12 0 0 1 0.46 0.88v1.32c0 0.34-0.21 0.49-0.46 0.35z"/>
<path class="cls-12" transform="translate(-206.64 -73.08)" d="M346.88,207.21a1.12,1.12,0,0,1-.46-.88V205.1l-.14-.09c-.26-.14-.46,0-.46.35v1.31a1.08,1.08,0,0,0,.46.88l15.07,8.71c.25.14.46,0,.46-.35v-.09Z"/>
<path class="cls-11" transform="translate(-206.64 -73.08)" d="m361.35 220.07-15.07-8.71a1.08 1.08 0 0 1-0.46-0.88v-1.31c0-0.34 0.2-0.5 0.46-0.35l15.07 8.7a1.12 1.12 0 0 1 0.46 0.88v1.32c0 0.34-0.21 0.49-0.46 0.35z"/>
<path class="cls-12" transform="translate(-206.64 -73.08)" d="M346.88,211a1.12,1.12,0,0,1-.46-.88v-1.23l-.14-.09c-.26-.15-.46,0-.46.35v1.31a1.08,1.08,0,0,0,.46.88l15.07,8.71c.25.14.46,0,.46-.35v-.09Z"/>
<path class="cls-11" transform="translate(-206.64 -73.08)" d="M361.35,228l-15.07-8.71a1.08,1.08,0,0,1-.46-.88v-1.31c0-.34.2-.5.46-.35l15.07,8.7a1.12,1.12,0,0,1,.46.88v1.32C361.81,228,361.6,228.11,361.35,228Z"/>
<path class="cls-12" transform="translate(-206.64 -73.08)" d="M346.88,218.92a1.12,1.12,0,0,1-.46-.88v-1.23l-.14-.09c-.26-.15-.46,0-.46.35v1.31a1.08,1.08,0,0,0,.46.88L361.35,228c.25.14.46,0,.46-.35v-.09Z"/>
<path class="cls-11" transform="translate(-206.64 -73.08)" d="m361.35 231.77-15.07-8.7a1.08 1.08 0 0 1-0.46-0.88v-1.31c0-0.34 0.2-0.5 0.46-0.35l15.07 8.7a1.12 1.12 0 0 1 0.46 0.88v1.32c0 0.34-0.21 0.49-0.46 0.34z"/>
<path class="cls-12" transform="translate(-206.64 -73.08)" d="M346.88,222.73a1.13,1.13,0,0,1-.46-.88v-1.23l-.14-.09c-.26-.15-.46,0-.46.35v1.31a1.08,1.08,0,0,0,.46.88l15.07,8.7c.25.15.46,0,.46-.34v-.09Z"/>
<path class="cls-11" transform="translate(-206.64 -73.08)" d="m361.35 235.58-15.07-8.7a1.08 1.08 0 0 1-0.46-0.88v-1.31c0-0.34 0.2-0.5 0.46-0.35l15.07 8.7a1.12 1.12 0 0 1 0.46 0.88v1.32c0 0.34-0.21 0.49-0.46 0.34z"/>
<path class="cls-12" transform="translate(-206.64 -73.08)" d="M346.88,226.53a1.1,1.1,0,0,1-.46-.87v-1.23l-.14-.09c-.26-.15-.46,0-.46.35V226a1.08,1.08,0,0,0,.46.88l15.07,8.7c.25.15.46,0,.46-.34v-.09Z"/>
<path class="cls-11" transform="translate(-206.64 -73.08)" d="m361.35 239.39-15.07-8.7a1.08 1.08 0 0 1-0.46-0.88v-1.31c0-0.34 0.2-0.5 0.46-0.35l15.07 8.7a1.12 1.12 0 0 1 0.46 0.88v1.32c0 0.34-0.21 0.49-0.46 0.34z"/>
<path class="cls-12" transform="translate(-206.64 -73.08)" d="M346.88,230.34a1.1,1.1,0,0,1-.46-.87v-1.23l-.14-.09c-.26-.15-.46,0-.46.35v1.31a1.09,1.09,0,0,0,.46.88l15.07,8.7c.25.15.46,0,.46-.34V239Z"/>
<path class="cls-11" transform="translate(-206.64 -73.08)" d="m361.35 247.29-15.07-8.7a1.08 1.08 0 0 1-0.46-0.88v-1.31c0-0.34 0.2-0.5 0.46-0.35l15.07 8.7a1.12 1.12 0 0 1 0.46 0.88v1.37c0 0.29-0.21 0.44-0.46 0.29z"/>
<path class="cls-12" transform="translate(-206.64 -73.08)" d="M346.88,238.24a1.1,1.1,0,0,1-.46-.87v-1.23l-.14-.09c-.26-.15-.46,0-.46.35v1.31a1.08,1.08,0,0,0,.46.88l15.07,8.7c.25.15.46,0,.46-.34v-.09Z"/>
<path class="cls-11" transform="translate(-206.64 -73.08)" d="m361.35 251.1-15.07-8.7a1.09 1.09 0 0 1-0.46-0.88v-1.31c0-0.34 0.2-0.5 0.46-0.35l15.07 8.7a1.12 1.12 0 0 1 0.46 0.88v1.32c0 0.33-0.21 0.49-0.46 0.34z"/>
<path class="cls-12" transform="translate(-206.64 -73.08)" d="M346.88,242.05a1.1,1.1,0,0,1-.46-.88V240l-.14-.09c-.26-.15-.46,0-.46.35v1.31a1.09,1.09,0,0,0,.46.88l15.07,8.7c.25.15.46,0,.46-.34v-.09Z"/>
<path class="cls-11" transform="translate(-206.64 -73.08)" d="m361.35 254.91-15.07-8.7a1.09 1.09 0 0 1-0.46-0.88v-1.33c0-0.34 0.2-0.5 0.46-0.35l15.07 8.7a1.12 1.12 0 0 1 0.46 0.88v1.32c0 0.35-0.21 0.51-0.46 0.36z"/>
<path class="cls-12" transform="translate(-206.64 -73.08)" d="M346.88,245.86a1.1,1.1,0,0,1-.46-.88v-1.23l-.14-.08c-.26-.15-.46,0-.46.35v1.31a1.09,1.09,0,0,0,.46.88l15.07,8.7c.25.15.46,0,.46-.34v-.09Z"/>
<path class="cls-11" transform="translate(-206.64 -73.08)" d="m361.35 258.72-15.07-8.72a1.09 1.09 0 0 1-0.46-0.88v-1.31c0-0.34 0.2-0.5 0.46-0.35l15.07 8.7a1.12 1.12 0 0 1 0.46 0.88v1.32c0 0.35-0.21 0.51-0.46 0.36z"/>
<path class="cls-12" transform="translate(-206.64 -73.08)" d="M346.88,249.67a1.1,1.1,0,0,1-.46-.88v-1.23l-.14-.08c-.26-.15-.46,0-.46.35v1.31a1.09,1.09,0,0,0,.46.88l15.07,8.7c.25.15.46,0,.46-.34v-.09Z"/>
<path class="cls-11" transform="translate(-206.64 -73.08)" d="m361.35 266.62-15.07-8.7a1.09 1.09 0 0 1-0.46-0.88v-1.31c0-0.34 0.2-0.5 0.46-0.35l15.07 8.7a1.12 1.12 0 0 1 0.46 0.88v1.32c0 0.33-0.21 0.49-0.46 0.34z"/>
<path class="cls-12" transform="translate(-206.64 -73.08)" d="M346.88,257.57a1.1,1.1,0,0,1-.46-.88v-1.23l-.14-.08c-.26-.15-.46,0-.46.35V257a1.09,1.09,0,0,0,.46.88l15.07,8.7c.25.15.46,0,.46-.34v-.09Z"/>
<path class="cls-11" transform="translate(-206.64 -73.08)" d="m361.35 270.43-15.07-8.7a1.09 1.09 0 0 1-0.46-0.88v-1.31c0-0.34 0.2-0.5 0.46-0.35l15.07 8.7a1.12 1.12 0 0 1 0.46 0.88v1.31c0 0.34-0.21 0.5-0.46 0.35z"/>
<path class="cls-12" transform="translate(-206.64 -73.08)" d="M346.88,261.38a1.1,1.1,0,0,1-.46-.88v-1.23l-.14-.08c-.26-.15-.46,0-.46.35v1.31a1.09,1.09,0,0,0,.46.88l15.07,8.7c.25.15.46,0,.46-.35V270Z"/>
<path class="cls-11" transform="translate(-206.64 -73.08)" d="m361.35 274.24-15.07-8.7a1.09 1.09 0 0 1-0.46-0.88v-1.31c0-0.34 0.2-0.5 0.46-0.35l15.07 8.7a1.12 1.12 0 0 1 0.46 0.88v1.31c0 0.34-0.21 0.5-0.46 0.35z"/>
<path class="cls-12" transform="translate(-206.64 -73.08)" d="M346.88,265.19a1.1,1.1,0,0,1-.46-.88v-1.23l-.14-.08c-.26-.15-.46,0-.46.35v1.31a1.09,1.09,0,0,0,.46.88l15.07,8.7c.25.15.46,0,.46-.35v-.08Z"/>
<path class="cls-11" transform="translate(-206.64 -73.08)" d="m361.35 278.05-15.07-8.7a1.09 1.09 0 0 1-0.46-0.88v-1.31c0-0.34 0.2-0.5 0.46-0.35l15.07 8.7a1.12 1.12 0 0 1 0.46 0.88v1.31c0 0.3-0.21 0.5-0.46 0.35z"/>
<path class="cls-12" transform="translate(-206.64 -73.08)" d="M346.88,269a1.1,1.1,0,0,1-.46-.88v-1.23l-.14-.08c-.26-.15-.46,0-.46.35v1.31a1.09,1.09,0,0,0,.46.88l15.07,8.7c.25.15.46,0,.46-.35v-.08Z"/>
<path class="cls-10" transform="translate(-206.64 -73.08)" d="M380.08,149.24l-12.18-7c-.26-.15-.22-.41.07-.58h0a1.11,1.11,0,0,1,1,0l12.19,7c.26.15.22.41-.07.58h0A1.13,1.13,0,0,1,380.08,149.24Z"/>
<path class="cls-13" transform="translate(-206.64 -73.08)" d="M367.82,142.13,368,142a1.11,1.11,0,0,1,1,0l12.19,7s0,.05.08.08a.28.28,0,0,0-.08-.46l-12.19-7a1.11,1.11,0,0,0-1,0C367.72,141.78,367.67,142,367.82,142.13Z"/>
<path class="cls-10" transform="translate(-206.64 -73.08)" d="M377.9,150.5l-12.18-7c-.26-.15-.22-.41.07-.58h0a1.13,1.13,0,0,1,1,0l12.18,7c.26.15.22.41-.07.58h0A1.13,1.13,0,0,1,377.9,150.5Z"/>
<path class="cls-10" transform="translate(-206.64 -73.08)" d="M375.72,151.76l-12.18-7c-.26-.15-.22-.41.07-.58h0a1.13,1.13,0,0,1,1,0l12.18,7c.26.15.22.41-.07.58h0A1.13,1.13,0,0,1,375.72,151.76Z"/>
<path class="cls-10" transform="translate(-206.64 -73.08)" d="M373.54,153l-12.18-7c-.26-.14-.22-.4.07-.57h0a1.13,1.13,0,0,1,1,0l12.18,7c.26.15.22.41-.07.58h0A1.13,1.13,0,0,1,373.54,153Z"/>
<path class="cls-10" transform="translate(-206.64 -73.08)" d="M371.36,154.28l-12.18-7c-.26-.15-.22-.4.07-.58h0a1.13,1.13,0,0,1,1,0l12.18,7c.26.15.22.4-.07.58h0A1.13,1.13,0,0,1,371.36,154.28Z"/>
<path class="cls-13" transform="translate(-206.64 -73.08)" d="M365.64,143.39a.52.52,0,0,1,.16-.12,1.11,1.11,0,0,1,1-.05l12.18,7a.29.29,0,0,1,.08.07.27.27,0,0,0-.08-.45l-12.18-7a1.11,1.11,0,0,0-1,0C365.54,143,365.49,143.24,365.64,143.39Z"/>
<path class="cls-13" transform="translate(-206.64 -73.08)" d="M363.47,144.65a.49.49,0,0,1,.15-.13,1.11,1.11,0,0,1,1,0l12.19,7,.08.07a.27.27,0,0,0-.08-.45l-12.19-7a1.11,1.11,0,0,0-1,0C363.36,144.29,363.32,144.5,363.47,144.65Z"/>
<path class="cls-13" transform="translate(-206.64 -73.08)" d="M361.29,145.91a.64.64,0,0,1,.15-.13,1.11,1.11,0,0,1,1,0l12.19,7s.05,0,.08.08a.28.28,0,0,0-.08-.46l-12.19-7a1.11,1.11,0,0,0-1,0C361.19,145.55,361.14,145.75,361.29,145.91Z"/>
<path class="cls-13" transform="translate(-206.64 -73.08)" d="M359.11,147.16a.61.61,0,0,1,.15-.12,1.13,1.13,0,0,1,1,0l12.18,7a.29.29,0,0,1,.08.07.27.27,0,0,0-.08-.45l-12.18-7a1.13,1.13,0,0,0-1,0C359,146.8,359,147,359.11,147.16Z"/>
<path class="cls-10" transform="translate(-206.64 -73.08)" d="M395.61,158.21l-12.19-7c-.25-.15-.22-.41.07-.58h0a1.13,1.13,0,0,1,1,0l12.18,7c.26.15.23.41-.07.58h0A1.11,1.11,0,0,1,395.61,158.21Z"/>
<path class="cls-13" transform="translate(-206.64 -73.08)" d="M383.34,151.1a.64.64,0,0,1,.15-.13,1.13,1.13,0,0,1,1,0l12.18,7a.2.2,0,0,1,.08.08.28.28,0,0,0-.08-.46l-12.18-7a1.13,1.13,0,0,0-1,0C383.24,150.74,383.19,151,383.34,151.1Z"/>
<path class="cls-10" transform="translate(-206.64 -73.08)" d="M393.43,159.46l-12.19-7c-.25-.15-.22-.41.07-.58h0a1.13,1.13,0,0,1,1,0l12.18,7c.26.15.23.41-.07.58h0A1.11,1.11,0,0,1,393.43,159.46Z"/>
<path class="cls-10" transform="translate(-206.64 -73.08)" d="M391.25,160.72l-12.19-7c-.25-.15-.22-.41.07-.58h0a1.13,1.13,0,0,1,1,0l12.18,7c.26.15.23.41-.07.58h0A1.11,1.11,0,0,1,391.25,160.72Z"/>
<path class="cls-10" transform="translate(-206.64 -73.08)" d="M389.07,162l-12.19-7c-.25-.15-.22-.41.07-.58h0a1.13,1.13,0,0,1,1,0l12.18,7c.26.15.23.41-.07.58h0A1.11,1.11,0,0,1,389.07,162Z"/>
<path class="cls-10" transform="translate(-206.64 -73.08)" d="M386.89,163.24l-12.19-7c-.25-.15-.22-.41.07-.58h0a1.13,1.13,0,0,1,1,0l12.18,7c.26.15.23.41-.07.58h0A1.11,1.11,0,0,1,386.89,163.24Z"/>
<path class="cls-13" transform="translate(-206.64 -73.08)" d="M381.17,152.35a.49.49,0,0,1,.15-.12,1.11,1.11,0,0,1,1,0l12.18,7a.34.34,0,0,1,.09.08.28.28,0,0,0-.09-.46l-12.18-7a1.11,1.11,0,0,0-1,0C381.06,152,381,152.2,381.17,152.35Z"/>
<path class="cls-13" transform="translate(-206.64 -73.08)" d="M379,153.61a1,1,0,0,1,.15-.13,1.11,1.11,0,0,1,1,0l12.19,7s.05.05.08.07a.27.27,0,0,0-.08-.45l-12.19-7a1.11,1.11,0,0,0-1,.05C378.89,153.25,378.84,153.46,379,153.61Z"/>
<path class="cls-13" transform="translate(-206.64 -73.08)" d="m376.81 154.87a0.64 0.64 0 0 1 0.15-0.13 1.13 1.13 0 0 1 1 0l12.18 7 0.08 0.08a0.27 0.27 0 0 0-0.08-0.45l-12.18-7a1.13 1.13 0 0 0-1 0c-0.25 0.14-0.3 0.35-0.15 0.5z"/>
<path class="cls-13" transform="translate(-206.64 -73.08)" d="M374.63,156.12a.74.74,0,0,1,.16-.12,1.11,1.11,0,0,1,1,0L388,163a.2.2,0,0,1,.08.08.28.28,0,0,0-.08-.46l-12.18-7a1.11,1.11,0,0,0-1,0C374.53,155.77,374.49,156,374.63,156.12Z"/>
<path class="cls-10" transform="translate(-206.64 -73.08)" d="M367.34,156.66l-12.18-7c-.26-.15-.23-.4.07-.58h0a1.11,1.11,0,0,1,1,0l12.19,7c.25.15.22.4-.08.58h0A1.11,1.11,0,0,1,367.34,156.66Z"/>
<path class="cls-13" transform="translate(-206.64 -73.08)" d="M355.08,149.55a.49.49,0,0,1,.15-.13,1.11,1.11,0,0,1,1,0l12.19,7,.08.07a.27.27,0,0,0-.08-.45l-12.19-7a1.11,1.11,0,0,0-1,0C355,149.19,354.93,149.4,355.08,149.55Z"/>
<path class="cls-10" transform="translate(-206.64 -73.08)" d="M365.16,157.92l-12.18-7c-.26-.15-.23-.41.07-.58h0a1.11,1.11,0,0,1,1,0l12.19,7c.25.14.22.4-.08.57h0A1.11,1.11,0,0,1,365.16,157.92Z"/>
<path class="cls-10" transform="translate(-206.64 -73.08)" d="M363,159.17l-12.18-7c-.26-.15-.23-.41.07-.58h0a1.11,1.11,0,0,1,1,0l12.19,7c.25.15.22.41-.08.58h0A1.11,1.11,0,0,1,363,159.17Z"/>
<path class="cls-10" transform="translate(-206.64 -73.08)" d="M360.8,160.43l-12.18-7c-.26-.15-.23-.41.07-.58h0a1.11,1.11,0,0,1,1,0l12.19,7c.25.15.22.41-.07.58h0A1.13,1.13,0,0,1,360.8,160.43Z"/>
<path class="cls-10" transform="translate(-206.64 -73.08)" d="M358.62,161.69l-12.18-7c-.26-.15-.23-.41.07-.58h0a1.11,1.11,0,0,1,1,0l12.19,7c.25.15.22.41-.07.58h0A1.13,1.13,0,0,1,358.62,161.69Z"/>
<path class="cls-13" transform="translate(-206.64 -73.08)" d="M352.9,150.81a.64.64,0,0,1,.15-.13,1.13,1.13,0,0,1,1,0l12.18,7a.2.2,0,0,1,.08.08.28.28,0,0,0-.08-.46l-12.18-7a1.13,1.13,0,0,0-1,0C352.8,150.45,352.75,150.65,352.9,150.81Z"/>
<path class="cls-13" transform="translate(-206.64 -73.08)" d="M350.72,152.06a.52.52,0,0,1,.16-.12,1.11,1.11,0,0,1,1,0l12.18,7a.29.29,0,0,1,.08.07.27.27,0,0,0-.08-.45l-12.18-7a1.11,1.11,0,0,0-1,0C350.62,151.7,350.58,151.91,350.72,152.06Z"/>
<path class="cls-13" transform="translate(-206.64 -73.08)" d="M348.55,153.32a.67.67,0,0,1,.15-.13,1.11,1.11,0,0,1,1,0l12.19,7,.08.07a.27.27,0,0,0-.08-.45l-12.19-7a1.11,1.11,0,0,0-1,0C348.45,153,348.4,153.17,348.55,153.32Z"/>
<path class="cls-13" transform="translate(-206.64 -73.08)" d="M346.37,154.58a.64.64,0,0,1,.15-.13,1.13,1.13,0,0,1,1,0l12.18,7a.3.3,0,0,1,.08.08.27.27,0,0,0-.08-.45l-12.18-7a1.13,1.13,0,0,0-1,0C346.27,154.22,346.22,154.43,346.37,154.58Z"/>
<path class="cls-10" transform="translate(-206.64 -73.08)" d="M382.86,165.62l-12.18-7c-.26-.15-.22-.41.07-.58h0a1.13,1.13,0,0,1,1,0l12.18,7c.26.15.22.41-.07.58h0A1.13,1.13,0,0,1,382.86,165.62Z"/>
<path class="cls-13" transform="translate(-206.64 -73.08)" d="M370.6,158.51a1,1,0,0,1,.15-.13,1.13,1.13,0,0,1,1,0l12.18,7s.05.05.08.07a.27.27,0,0,0-.08-.45l-12.18-7a1.13,1.13,0,0,0-1,0C370.5,158.15,370.45,158.36,370.6,158.51Z"/>
<path class="cls-10" transform="translate(-206.64 -73.08)" d="M380.68,166.88l-12.18-7c-.26-.14-.22-.4.07-.58h0a1.13,1.13,0,0,1,1,0l12.18,7c.26.15.22.41-.07.58h0A1.13,1.13,0,0,1,380.68,166.88Z"/>
<path class="cls-10" transform="translate(-206.64 -73.08)" d="M378.5,168.14l-12.18-7c-.26-.15-.22-.41.07-.58h0a1.13,1.13,0,0,1,1,0l12.18,7c.26.14.22.4-.07.57h0A1.13,1.13,0,0,1,378.5,168.14Z"/>
<path class="cls-10" transform="translate(-206.64 -73.08)" d="M376.32,169.4l-12.18-7c-.26-.15-.22-.41.07-.58h0a1.13,1.13,0,0,1,1,0l12.18,7c.26.15.22.41-.07.58h0A1.16,1.16,0,0,1,376.32,169.4Z"/>
<path class="cls-10" transform="translate(-206.64 -73.08)" d="M374.14,170.65l-12.18-7c-.26-.15-.22-.41.07-.58h0a1.13,1.13,0,0,1,1,0l12.18,7c.26.15.22.41-.07.58h0A1.13,1.13,0,0,1,374.14,170.65Z"/>
<path class="cls-13" transform="translate(-206.64 -73.08)" d="M368.42,159.77a.53.53,0,0,1,.16-.13,1.11,1.11,0,0,1,1,0l12.18,7a.3.3,0,0,1,.08.08.27.27,0,0,0-.08-.45l-12.18-7a1.11,1.11,0,0,0-1,0C368.32,159.41,368.27,159.62,368.42,159.77Z"/>
<path class="cls-13" transform="translate(-206.64 -73.08)" d="M366.25,161a.65.65,0,0,1,.15-.12,1.11,1.11,0,0,1,1,0l12.19,7a.6.6,0,0,1,.08.08.28.28,0,0,0-.08-.46l-12.19-7a1.11,1.11,0,0,0-1,0C366.15,160.67,366.1,160.87,366.25,161Z"/>
<path class="cls-13" transform="translate(-206.64 -73.08)" d="M364.07,162.28a.61.61,0,0,1,.15-.12,1.13,1.13,0,0,1,1,0l12.18,7s0,0,.08.07a.27.27,0,0,0-.08-.45l-12.18-7a1.13,1.13,0,0,0-1,0C364,161.92,363.92,162.13,364.07,162.28Z"/>
<path class="cls-13" transform="translate(-206.64 -73.08)" d="M361.89,163.54a.53.53,0,0,1,.16-.13,1.11,1.11,0,0,1,1,0l12.18,7a.29.29,0,0,1,.08.07.27.27,0,0,0-.08-.45l-12.18-7a1.11,1.11,0,0,0-1,0C361.79,163.18,361.74,163.39,361.89,163.54Z"/>
<path class="cls-10" transform="translate(-206.64 -73.08)" d="M379,298.11a1.06,1.06,0,0,1-.51-.14,1,1,0,0,1-.52-.9V190.78a1.88,1.88,0,0,1,.93-1.62l20.25-11.69a1,1,0,0,1,1,0,1,1,0,0,1,.52.9V284.66a1.88,1.88,0,0,1-.93,1.62L379.5,298A1.07,1.07,0,0,1,379,298.11Zm20.66-120.22a.48.48,0,0,0-.23.07l-20.25,11.69a1.3,1.3,0,0,0-.65,1.13V297.07a.48.48,0,0,0,.24.42.49.49,0,0,0,.47,0l20.25-11.69a1.33,1.33,0,0,0,.65-1.14V178.37a.47.47,0,0,0-.24-.41A.48.48,0,0,0,399.64,177.89Z"/>
<path class="cls-10" transform="translate(-206.64 -73.08)" d="M396.85,239.44l.5-.29a.69.69,0,0,0,.28-.54v-5.68c0-.21-.13-.3-.28-.21l-.5.28a.66.66,0,0,0-.28.54v5.68C396.57,239.43,396.69,239.53,396.85,239.44Z"/>
<path class="cls-3" transform="translate(-206.64 -73.08)" d="m505.1 339.41-16.21-9.35c-2-1.14-1.72-3.12 0.56-4.43l15.61-9c2.27-1.32 5.71-1.46 7.68-0.32l16.26 9.31c2 1.14 1.72 3.13-0.56 4.44l-15.61 9c-2.32 1.34-5.76 1.48-7.73 0.35z"/>
<path class="cls-22" transform="translate(-206.64 -73.08)" d="m508.33 343.27a8.69 8.69 0 0 1-4.27-1l-19.77-11.4a3.17 3.17 0 0 1-1.81-2.69c0-1.25 0.91-2.49 2.49-3.4l19-11c2.87-1.66 7.25-1.83 9.76-0.39l19.77 11.41a3.16 3.16 0 0 1 1.81 2.69c0 1.24-0.9 2.48-2.49 3.4l-19 11a11.21 11.21 0 0 1-5.49 1.38zm1.18-30.08a10.51 10.51 0 0 0-5.1 1.27l-19.05 11c-1.33 0.77-2.1 1.76-2.1 2.72a2.44 2.44 0 0 0 1.43 2l19.77 11.4c2.29 1.32 6.31 1.14 9-0.39l19.05-11c1.33-0.77 2.09-1.76 2.09-2.71a2.42 2.42 0 0 0-1.42-2l-19.77-11.4a7.82 7.82 0 0 0-3.9-0.89z"/>
<path class="cls-23" transform="translate(-206.64 -73.08)" d="m530.27 309.53h-13.72l-3.81-2.19c-2-1.13-5.41-1-7.68 0.32l-3.77 2.19h-13.72v9.22a2.23 2.23 0 0 0 1.31 2.06l16.21 9.34c2 1.14 5.41 1 7.68-0.32l15.61-9a3.25 3.25 0 0 0 1.87-2.37z"/>
<path class="cls-24" transform="translate(-206.64 -73.08)" d="m528.39 320.49-15.61 9c-2.27 1.31-5.71 1.45-7.68 0.32l-16.21-9.35a2.23 2.23 0 0 1-1.31-2.06v0.64a2.23 2.23 0 0 0 1.31 2.06l16.21 9.34c2 1.14 5.41 1 7.68-0.32l15.61-9a3.25 3.25 0 0 0 1.87-2.37v-0.64a3.26 3.26 0 0 1-1.87 2.38z"/>
<path class="cls-7" transform="translate(-206.64 -73.08)" d="m488.44 319.7v-9.21h13.72l3.77-2.19c2.27-1.32 5.71-1.46 7.67-0.32l3.81 2.19h12.86v-0.64h-13.72l-3.81-2.19c-2-1.13-5.41-1-7.68 0.32l-3.77 2.19h-13.72v9.22a2.23 2.23 0 0 0 1.31 2.06l0.16 0.09a2 2 0 0 1-0.6-1.52z"/>
<path class="cls-25" transform="translate(-206.64 -73.08)" d="m505.1 321.26-16.21-9.35c-2-1.13-1.72-3.12 0.56-4.43l15.61-9c2.27-1.31 5.71-1.46 7.68-0.32l16.26 9.32c2 1.13 1.72 3.12-0.56 4.43l-15.61 9c-2.32 1.34-5.76 1.48-7.73 0.35z"/>
<path class="cls-8" transform="translate(-206.64 -73.08)" d="m529 307.48-16.21-9.35a7.16 7.16 0 0 0-3.88-0.75 6.44 6.44 0 0 1 2.8 0.75l16.2 9.35c2 1.13 1.72 3.12-0.55 4.43l-15.61 9a8.89 8.89 0 0 1-3.81 1.07 9.11 9.11 0 0 0 4.89-1.07l15.61-9c2.23-1.31 2.47-3.3 0.56-4.43z"/>
<path class="cls-7" transform="translate(-206.64 -73.08)" d="m506.34 321.26-16.2-9.35c-2-1.13-1.73-3.12 0.55-4.43l15.61-9a8.73 8.73 0 0 1 3.75-1.07 9.08 9.08 0 0 0-5 1.07l-15.61 9c-2.28 1.31-2.52 3.3-0.56 4.43l16.21 9.35a7.18 7.18 0 0 0 3.91 0.74 6.41 6.41 0 0 1-2.66-0.74z"/>
<path class="cls-3" transform="translate(-206.64 -73.08)" d="m229.26 339.41-16.21-9.35c-2-1.14-1.72-3.12 0.55-4.43l15.62-9c2.27-1.32 5.71-1.46 7.68-0.32l16.2 9.34c2 1.14 1.73 3.13-0.55 4.44l-15.61 9c-2.28 1.31-5.71 1.45-7.68 0.32z"/>
<path class="cls-26" transform="translate(-206.64 -73.08)" d="m232.49 343.27a8.69 8.69 0 0 1-4.27-1l-19.77-11.4a3.17 3.17 0 0 1-1.81-2.69c0-1.25 0.9-2.49 2.49-3.4l19.05-11c2.87-1.66 7.25-1.83 9.75-0.39l19.77 11.41a3.15 3.15 0 0 1 1.82 2.68c0 1.25-0.91 2.49-2.49 3.41l-19 11a11.24 11.24 0 0 1-5.54 1.38zm1.18-30.08a10.51 10.51 0 0 0-5.1 1.27l-19 11c-1.33 0.77-2.1 1.76-2.1 2.72a2.44 2.44 0 0 0 1.43 2l19.77 11.4c2.29 1.32 6.31 1.14 9-0.39l19-11c1.33-0.77 2.09-1.76 2.09-2.72a2.41 2.41 0 0 0-1.42-2l-19.77-11.4a7.85 7.85 0 0 0-3.9-0.88z"/>
<path class="cls-27" transform="translate(-206.64 -73.08)" d="m254.43 309.53h-13.72l-3.81-2.19c-2-1.13-5.41-1-7.68 0.32l-3.77 2.19h-13.72v9.22a2.25 2.25 0 0 0 1.32 2.06l16.21 9.34c2 1.14 5.4 1 7.68-0.32l15.61-9a3.25 3.25 0 0 0 1.87-2.37z"/>
<path class="cls-28" transform="translate(-206.64 -73.08)" d="m252.55 320.49-15.61 9c-2.28 1.31-5.71 1.45-7.68 0.32l-16.21-9.35a2.25 2.25 0 0 1-1.32-2.06v0.64a2.25 2.25 0 0 0 1.32 2.06l16.21 9.34c2 1.14 5.4 1 7.68-0.32l15.61-9a3.25 3.25 0 0 0 1.87-2.37v-0.64a3.26 3.26 0 0 1-1.87 2.38z"/>
<path class="cls-7" transform="translate(-206.64 -73.08)" d="M212.6,319.7h0v-9.21h13.71l3.78-2.19c2.27-1.32,5.71-1.46,7.67-.32l3.81,2.19h12.86v-.64H240.71l-3.81-2.19c-2-1.13-5.41-1-7.68.32l-3.77,2.19H211.73v9.22h0a2.25,2.25,0,0,0,1.32,2.06l.16.09A1.93,1.93,0,0,1,212.6,319.7Z"/>
<path class="cls-29" transform="translate(-206.64 -73.08)" d="m229.26 321.26-16.21-9.35c-2-1.13-1.72-3.12 0.55-4.43l15.62-9c2.27-1.31 5.71-1.46 7.68-0.32l16.2 9.35c2 1.13 1.73 3.12-0.55 4.43l-15.61 9c-2.28 1.31-5.71 1.45-7.68 0.32z"/>
<path class="cls-8" transform="translate(-206.64 -73.08)" d="m253.1 307.48-16.2-9.35a7.18 7.18 0 0 0-3.88-0.75 6.36 6.36 0 0 1 2.79 0.75l16.19 9.35c2 1.13 1.72 3.12-0.55 4.43l-15.62 9a8.81 8.81 0 0 1-3.8 1.07 9.11 9.11 0 0 0 4.89-1.07l15.61-9c2.29-1.31 2.54-3.3 0.57-4.43z"/>
<path class="cls-7" transform="translate(-206.64 -73.08)" d="M230.5,321.26l-16.21-9.35c-2-1.13-1.72-3.12.56-4.43l15.61-9a8.73,8.73,0,0,1,3.74-1.07,9.06,9.06,0,0,0-5,1.07l-15.62,9c-2.27,1.31-2.52,3.3-.55,4.43l16.21,9.35a7.16,7.16,0,0,0,3.93.74A6.41,6.41,0,0,1,230.5,321.26Z"/>
<path class="cls-30" transform="translate(-206.64 -73.08)" d="m435.81 389.78-33.29-19.22c-2.37-1.37-2.07-3.76 0.66-5.33l32-18.46c2.74-1.57 6.87-1.75 9.24-0.38l33.28 19.22c2.37 1.37 2.07 3.75-0.66 5.33l-32 18.45c-2.73 1.61-6.87 1.75-9.23 0.39z"/>
<path class="cls-31" transform="translate(-206.64 -73.08)" d="M439.77,395.11a10,10,0,0,1-4.92-1.13l-39.21-22.64a3.62,3.62,0,0,1-2.08-3.07c0-1.43,1-2.84,2.86-3.89l37.65-21.74c3.32-1.92,8.37-2.12,11.27-.45l39.21,22.64a3.62,3.62,0,0,1,2.08,3.07c0,1.42-1,2.84-2.86,3.89l-37.65,21.74A13.11,13.11,0,0,1,439.77,395.11Zm-4.53-1.81c2.68,1.54,7.38,1.34,10.48-.45l37.65-21.74c1.57-.91,2.47-2.08,2.47-3.21a2.88,2.88,0,0,0-1.68-2.39l-39.22-22.64c-2.67-1.55-7.38-1.34-10.48.45l-37.65,21.74c-1.57.9-2.47,2.07-2.47,3.21a2.89,2.89,0,0,0,1.69,2.39Z"/>
<path class="cls-32" transform="translate(-206.64 -73.08)" d="m479.26 282.5h-16.51l-18.37-10.61c-2.37-1.36-6.5-1.19-9.24 0.38l-17.71 10.23h-16.5v47.77a2.68 2.68 0 0 0 1.59 2.47l33.29 19.26c2.36 1.37 6.5 1.2 9.23-0.38l32-18.45a3.92 3.92 0 0 0 2.25-2.86z"/>
<path class="cls-33" transform="translate(-206.64 -73.08)" d="m477 332.36-32 18.45c-2.73 1.58-6.87 1.75-9.23 0.39l-33.25-19.2a2.7 2.7 0 0 1-1.59-2.48v0.77a2.68 2.68 0 0 0 1.59 2.47l33.29 19.24c2.36 1.37 6.5 1.2 9.23-0.38l32-18.45a3.92 3.92 0 0 0 2.25-2.86v-0.77a3.92 3.92 0 0 1-2.29 2.82z"/>
<path class="cls-7" transform="translate(-206.64 -73.08)" d="M402,331h0V283.27h16.5L436.18,273c2.74-1.58,6.87-1.75,9.24-.38l18.38,10.61h15.46v-.77H462.75l-18.37-10.61c-2.37-1.36-6.5-1.19-9.24.38L417.43,282.5h-16.5v47.77h0a2.68,2.68,0,0,0,1.59,2.47l.19.11A2.33,2.33,0,0,1,402,331Z"/>
<path class="cls-8" transform="translate(-206.64 -73.08)" d="m478.32 283.39v47.71a2.89 2.89 0 0 1-0.79 1.69 3.54 3.54 0 0 0 1.73-2.52v-47.65a4.94 4.94 0 0 0-0.94 0.77z"/>
<path class="cls-34" transform="translate(-206.64 -73.08)" d="m435.81 304.19-33.29-19.19c-2.37-1.37-2.07-3.76 0.66-5.34l32-18.45c2.74-1.58 6.87-1.75 9.24-0.38l33.24 19.17c2.37 1.36 2.07 3.75-0.66 5.33l-32 18.45c-2.69 1.61-6.83 1.78-9.19 0.41z"/>
<path class="cls-8" transform="translate(-206.64 -73.08)" d="m477.66 280-33.28-19.22a8.58 8.58 0 0 0-4.66-0.9 7.58 7.58 0 0 1 3.35 0.9l33.29 19.22c2.37 1.36 2.07 3.75-0.66 5.33l-32 18.45a10.52 10.52 0 0 1-4.58 1.28 10.78 10.78 0 0 0 5.88-1.28l32-18.45c2.73-1.55 3-3.94 0.66-5.33z"/>
<path class="cls-35" transform="translate(-206.64 -73.08)" d="m436.9 298.65-24.78-14.31c-1.76-1-1.54-2.79 0.49-4l23.8-13.73a7.61 7.61 0 0 1 6.87-0.29l24.78 14.31c1.77 1 1.55 2.79-0.49 4l-23.79 13.74a7.66 7.66 0 0 1-6.88 0.28z"/>
<path class="cls-11" transform="translate(-206.64 -73.08)" d="M437.78,294.2l-17.95-10.36c-1.28-.74-1.12-2,.35-2.88L437.42,271a5.53,5.53,0,0,1,5-.21l18,10.37c1.27.73,1.11,2-.36,2.87l-17.24,10A5.53,5.53,0,0,1,437.78,294.2Z"/>
<path class="cls-7" transform="translate(-206.64 -73.08)" d="M437.3,304.19,404,285c-2.36-1.37-2.07-3.76.66-5.34l32-18.45a10.45,10.45,0,0,1,4.5-1.28,11,11,0,0,0-6,1.28l-32,18.45c-2.73,1.58-3,4-.66,5.34l33.29,19.21a8.61,8.61,0,0,0,4.73.9A7.58,7.58,0,0,1,437.3,304.19Z"/>
<g class="cls-36">
<path class="cls-12" transform="translate(-206.64 -73.08)" d="M420.18,282.36l17.24-9.95a5.5,5.5,0,0,1,5-.21l18,10.37a1.9,1.9,0,0,1,.62.56,1.32,1.32,0,0,0-.62-2l-18-10.37a5.53,5.53,0,0,0-5,.2l-17.24,10c-1.15.66-1.49,1.59-1,2.31A2.76,2.76,0,0,1,420.18,282.36Z"/>
<path class="cls-37" transform="translate(-206.64 -73.08)" d="M420.18,284.05l17.24-9.95a5.53,5.53,0,0,1,5-.21l18,10.37a2.08,2.08,0,0,1,.52.44,1.34,1.34,0,0,0-.52-2.13l-18-10.37a5.5,5.5,0,0,0-5,.21l-17.24,9.95c-1.22.7-1.53,1.7-.89,2.44A3.09,3.09,0,0,1,420.18,284.05Z"/>
<path class="cls-38" transform="translate(-206.64 -73.08)" d="m419.47 286.67a3 3 0 0 1 0.71-0.55l17.24-10a5.53 5.53 0 0 1 5-0.2l18 10.37a2.22 2.22 0 0 1 0.35 0.25 1.36 1.36 0 0 0-0.35-2.32l-18-10.37a5.53 5.53 0 0 0-5 0.21l-17.24 9.95c-1.32 0.8-1.58 1.91-0.71 2.66z"/>
</g>
<path class="cls-11" transform="translate(-206.64 -73.08)" d="M451.57,339.39l-1.85,1.06c-.47.28-.86,0-.86-.65V314a2.07,2.07,0,0,1,.86-1.64l1.85-1.07c.47-.27.86,0,.86.65v25.78A2.09,2.09,0,0,1,451.57,339.39Z"/>
<path class="cls-12" transform="translate(-206.64 -73.08)" d="M451.57,311.31l-.44.26v25.31a2.09,2.09,0,0,1-.86,1.65l-1.41.81v.46c0,.63.39.93.86.65l1.85-1.06a2.09,2.09,0,0,0,.86-1.65V312C452.43,311.33,452,311,451.57,311.31Z"/>
<path class="cls-11" transform="translate(-206.64 -73.08)" d="M458.37,335.46l-1.84,1.06c-.48.28-.86,0-.86-.65V310.1a2.06,2.06,0,0,1,.86-1.65l1.84-1.06c.48-.28.86,0,.86.65v25.78A2.05,2.05,0,0,1,458.37,335.46Z"/>
<path class="cls-11" transform="translate(-206.64 -73.08)" d="M465.17,331.53l-1.84,1.07c-.48.27-.86,0-.86-.65V306.17a2.07,2.07,0,0,1,.86-1.65l1.84-1.06c.48-.27.86,0,.86.65v25.78A2,2,0,0,1,465.17,331.53Z"/>
<path class="cls-11" transform="translate(-206.64 -73.08)" d="M472,327.61l-1.84,1.06c-.48.28-.86,0-.86-.65V302.24a2,2,0,0,1,.86-1.64l1.84-1.07c.48-.27.86,0,.86.65V326A2.06,2.06,0,0,1,472,327.61Z"/>
<path class="cls-12" transform="translate(-206.64 -73.08)" d="M458.37,307.39l-.44.25V333a2.08,2.08,0,0,1-.86,1.64l-1.4.81v.46c0,.64.38.93.86.65l1.84-1.06a2.05,2.05,0,0,0,.86-1.64V308C459.23,307.4,458.85,307.11,458.37,307.39Z"/>
<path class="cls-12" transform="translate(-206.64 -73.08)" d="M465.17,303.46l-.44.26V329a2,2,0,0,1-.86,1.64l-1.4.81V332c0,.63.38.92.86.65l1.84-1.07a2,2,0,0,0,.86-1.64V304.11C466,303.48,465.65,303.19,465.17,303.46Z"/>
<path class="cls-12" transform="translate(-206.64 -73.08)" d="M472,299.53l-.44.26V325.1a2.07,2.07,0,0,1-.86,1.65l-1.4.81V328c0,.63.38.93.86.65l1.84-1.06a2.06,2.06,0,0,0,.86-1.65V300.18C472.83,299.55,472.45,299.26,472,299.53Z"/>
<path class="cls-13" transform="translate(-206.64 -73.08)" d="M433.06,342.55a1.39,1.39,0,0,1-.68-.2l-24-13.88a3.49,3.49,0,0,1-1.48-2.82V298.38a1.49,1.49,0,0,1,.6-1.34,1.13,1.13,0,0,1,1.17.08l24,13.87a3.51,3.51,0,0,1,1.48,2.82v27.28a1.47,1.47,0,0,1-.6,1.33A1,1,0,0,1,433.06,342.55Zm-.39-.69a.57.57,0,0,0,.59.07.94.94,0,0,0,.33-.84V313.81a3,3,0,0,0-1.21-2.33l-24-13.88a.62.62,0,0,0-.59-.07,1,1,0,0,0-.33.85v27.27a3,3,0,0,0,1.21,2.33Z"/>
<path class="cls-11" transform="translate(-206.64 -73.08)" d="M411.56,303.72c0,.75-.53,1-1.17.68a2.59,2.59,0,0,1-1.17-2c0-.75.52-1.05,1.17-.68A2.63,2.63,0,0,1,411.56,303.72Z"/>
<path class="cls-11" transform="translate(-206.64 -73.08)" d="M411.56,307.52c0,.74-.53,1.05-1.17.67a2.57,2.57,0,0,1-1.17-2c0-.75.52-1.05,1.17-.68A2.6,2.6,0,0,1,411.56,307.52Z"/>
<path class="cls-11" transform="translate(-206.64 -73.08)" d="M411.56,311.31c0,.75-.53,1.05-1.17.68a2.57,2.57,0,0,1-1.17-2c0-.74.52-1,1.17-.67A2.6,2.6,0,0,1,411.56,311.31Z"/>
<path class="cls-12" transform="translate(-206.64 -73.08)" d="M411,311.53a2.61,2.61,0,0,1-1.17-2,1.36,1.36,0,0,1,.06-.37c-.38,0-.64.31-.64.83a2.57,2.57,0,0,0,1.17,2c.52.3,1,.15,1.11-.31A1,1,0,0,1,411,311.53Z"/>
<path class="cls-12" transform="translate(-206.64 -73.08)" d="M411,307.73a2.61,2.61,0,0,1-1.17-2,1.36,1.36,0,0,1,.06-.37c-.38,0-.64.31-.64.83a2.57,2.57,0,0,0,1.17,2c.52.3,1,.16,1.11-.31A1,1,0,0,1,411,307.73Z"/>
<path class="cls-12" transform="translate(-206.64 -73.08)" d="M411,303.93a2.6,2.6,0,0,1-1.17-2,1.23,1.23,0,0,1,.06-.36c-.38,0-.64.3-.64.83a2.57,2.57,0,0,0,1.17,2c.52.31,1,.16,1.11-.31A1,1,0,0,1,411,303.93Z"/>
<path class="cls-13" transform="translate(-206.64 -73.08)" d="M430.9,328.93l-.78-.44a1.07,1.07,0,0,1-.44-.84v-3.72c0-.32.2-.47.44-.33l.78.45a1,1,0,0,1,.43.83v3.72C431.33,328.92,431.14,329.07,430.9,328.93Z"/>
<path class="cls-11" transform="translate(-206.64 -73.08)" d="m431.66 275.06a1.57 1.57 0 1 1-1.57-1.57 1.57 1.57 0 0 1 1.57 1.57z"/>
<path class="cls-11" transform="translate(-206.64 -73.08)" d="m444.63 264.51a2.69 2.69 0 1 1-2.69-2.68 2.68 2.68 0 0 1 2.69 2.68z"/>
<path class="cls-11" transform="translate(-206.64 -73.08)" d="M439.33,262.8a.69.69,0,1,1-.69-.69A.69.69,0,0,1,439.33,262.8Z"/>
<path class="cls-11" transform="translate(-206.64 -73.08)" d="m451.7 249.32a1.34 1.34 0 1 1-1.34-1.34 1.34 1.34 0 0 1 1.34 1.34z"/>
<path class="cls-11" transform="translate(-206.64 -73.08)" d="M444.24,237.92a1,1,0,1,1-.95-.95A.95.95,0,0,1,444.24,237.92Z"/>
<path class="cls-11" transform="translate(-206.64 -73.08)" d="m433.38 230.65a1.72 1.72 0 1 1-1.72-1.72 1.72 1.72 0 0 1 1.72 1.72z"/>
<path class="cls-11" transform="translate(-206.64 -73.08)" d="m444.63 218.47a3.48 3.48 0 1 1-3.48-3.47 3.48 3.48 0 0 1 3.48 3.47z"/>
<path class="cls-11" transform="translate(-206.64 -73.08)" d="m437.67 216.26a1 1 0 1 1-1-1 1 1 0 0 1 1 1z"/>
<circle class="cls-11" cx="237.32" cy="149.57" r="1.13"/>
<path class="cls-11" transform="translate(-206.64 -73.08)" d="M445.92,220.29a.55.55,0,0,1-.54.55.55.55,0,1,1,0-1.1A.55.55,0,0,1,445.92,220.29Z"/>
<path class="cls-11" transform="translate(-206.64 -73.08)" d="m453 208.55a1.58 1.58 0 1 1-1.57-1.58 1.57 1.57 0 0 1 1.57 1.58z"/>
<path class="cls-30" transform="translate(-206.64 -73.08)" d="m297.65 389.78-33.29-19.22c-2.37-1.37-2.07-3.76 0.66-5.33l32-18.46c2.73-1.57 6.87-1.75 9.24-0.38l33.28 19.22c2.37 1.37 2.07 3.75-0.66 5.33l-32 18.45c-2.73 1.61-6.88 1.75-9.23 0.39z"/>
<path class="cls-39" transform="translate(-206.64 -73.08)" d="M301.61,395.11a10,10,0,0,1-4.92-1.13l-39.22-22.64a3.64,3.64,0,0,1-2.08-3.07c0-1.43,1.05-2.84,2.87-3.89l37.64-21.74c3.33-1.92,8.38-2.12,11.27-.45l39.22,22.64a3.62,3.62,0,0,1,2.08,3.07c0,1.42-1.05,2.84-2.86,3.89L308,393.53A13.14,13.14,0,0,1,301.61,395.11Zm-4.53-1.81c2.67,1.54,7.38,1.34,10.48-.45l37.65-21.74c1.57-.91,2.47-2.08,2.47-3.21a2.88,2.88,0,0,0-1.69-2.39l-39.21-22.64c-2.67-1.55-7.38-1.34-10.48.45l-37.65,21.74c-1.57.9-2.47,2.07-2.47,3.21a2.89,2.89,0,0,0,1.69,2.39Z"/>
<path class="cls-40" transform="translate(-206.64 -73.08)" d="m341.1 282.5h-16.51l-18.37-10.61c-2.37-1.36-6.51-1.19-9.24 0.38l-17.71 10.23h-16.5v47.77a2.67 2.67 0 0 0 1.59 2.47l33.29 19.26c2.36 1.37 6.5 1.2 9.23-0.38l32-18.45a3.92 3.92 0 0 0 2.25-2.86z"/>
<path class="cls-41" transform="translate(-206.64 -73.08)" d="m338.84 332.36-32 18.45c-2.73 1.58-6.87 1.75-9.23 0.39l-33.25-19.2a2.68 2.68 0 0 1-1.59-2.48v0.77a2.67 2.67 0 0 0 1.59 2.47l33.29 19.24c2.36 1.37 6.5 1.2 9.23-0.38l32-18.45a3.92 3.92 0 0 0 2.25-2.86v-0.77a3.92 3.92 0 0 1-2.29 2.82z"/>
<path class="cls-7" transform="translate(-206.64 -73.08)" d="M263.81,331h0V283.27h16.5L298,273c2.74-1.58,6.87-1.75,9.24-.38l18.37,10.61H341.1v-.77H324.59l-18.37-10.61c-2.37-1.36-6.51-1.19-9.24.38L279.27,282.5h-16.5v47.77h0a2.67,2.67,0,0,0,1.59,2.47l.18.11A2.35,2.35,0,0,1,263.81,331Z"/>
<path class="cls-8" transform="translate(-206.64 -73.08)" d="m340.16 283.39v47.71a2.89 2.89 0 0 1-0.79 1.69 3.54 3.54 0 0 0 1.73-2.52v-47.65a4.94 4.94 0 0 0-0.94 0.77z"/>
<path class="cls-42" transform="translate(-206.64 -73.08)" d="m297.65 304.19-33.29-19.19c-2.37-1.37-2.07-3.76 0.66-5.34l32-18.45c2.73-1.58 6.87-1.75 9.24-0.38l33.24 19.17c2.37 1.36 2.07 3.75-0.66 5.33l-32 18.45c-2.69 1.61-6.84 1.78-9.19 0.41z"/>
<path class="cls-8" transform="translate(-206.64 -73.08)" d="m339.5 280-33.28-19.22a8.58 8.58 0 0 0-4.66-0.9 7.58 7.58 0 0 1 3.35 0.9l33.29 19.22c2.37 1.36 2.07 3.75-0.66 5.33l-32 18.45a10.52 10.52 0 0 1-4.58 1.28 10.78 10.78 0 0 0 5.88-1.28l32-18.45c2.73-1.55 3.03-3.94 0.66-5.33z"/>
<path class="cls-43" transform="translate(-206.64 -73.08)" d="M298.74,298.65,274,284.34c-1.76-1-1.54-2.79.49-4l23.8-13.73a7.61,7.61,0,0,1,6.87-.29l24.78,14.31c1.77,1,1.54,2.79-.49,4l-23.8,13.74A7.64,7.64,0,0,1,298.74,298.65Z"/>
<path class="cls-11" transform="translate(-206.64 -73.08)" d="M299.62,294.2l-18-10.36c-1.27-.74-1.11-2,.36-2.88L299.26,271a5.53,5.53,0,0,1,5-.21l18,10.37c1.27.73,1.11,2-.36,2.87L304.6,294A5.53,5.53,0,0,1,299.62,294.2Z"/>
<path class="cls-7" transform="translate(-206.64 -73.08)" d="M299.14,304.19,265.85,285c-2.37-1.37-2.07-3.76.66-5.34l32-18.45a10.53,10.53,0,0,1,4.51-1.28,11,11,0,0,0-6,1.28l-32,18.45c-2.73,1.58-3,4-.66,5.34l33.29,19.21a8.61,8.61,0,0,0,4.73.9A7.58,7.58,0,0,1,299.14,304.19Z"/>
<g class="cls-44">
<path class="cls-12" transform="translate(-206.64 -73.08)" d="M282,282.36l17.25-9.95a5.5,5.5,0,0,1,5-.21l18,10.37a1.84,1.84,0,0,1,.63.56,1.32,1.32,0,0,0-.63-2l-18-10.37a5.53,5.53,0,0,0-5,.2L282,281c-1.14.66-1.48,1.59-1,2.31A2.81,2.81,0,0,1,282,282.36Z"/>
<path class="cls-37" transform="translate(-206.64 -73.08)" d="M282,284.05l17.25-9.95a5.53,5.53,0,0,1,5-.21l18,10.37a2,2,0,0,1,.53.44,1.34,1.34,0,0,0-.53-2.13l-18-10.37a5.5,5.5,0,0,0-5,.21L282,282.36c-1.21.7-1.52,1.7-.88,2.44A3,3,0,0,1,282,284.05Z"/>
<path class="cls-38" transform="translate(-206.64 -73.08)" d="m281.31 286.67a3.16 3.16 0 0 1 0.7-0.55l17.25-10a5.53 5.53 0 0 1 5-0.2l18 10.37a1.91 1.91 0 0 1 0.36 0.25 1.36 1.36 0 0 0-0.36-2.32l-18-10.37a5.53 5.53 0 0 0-5 0.21l-17.26 9.99c-1.3 0.76-1.56 1.87-0.69 2.62z"/>
</g>
<path class="cls-11" transform="translate(-206.64 -73.08)" d="M313.41,339.39l-1.85,1.06c-.47.28-.86,0-.86-.65V314a2.07,2.07,0,0,1,.86-1.64l1.85-1.07c.47-.27.86,0,.86.65v25.78A2.09,2.09,0,0,1,313.41,339.39Z"/>
<path class="cls-12" transform="translate(-206.64 -73.08)" d="M313.41,311.31l-.44.26v25.31a2.09,2.09,0,0,1-.86,1.65l-1.41.81v.46c0,.63.39.93.86.65l1.85-1.06a2.09,2.09,0,0,0,.86-1.65V312C314.27,311.33,313.88,311,313.41,311.31Z"/>
<path class="cls-11" transform="translate(-206.64 -73.08)" d="M320.21,335.46l-1.85,1.06c-.47.28-.86,0-.86-.65V310.1a2.09,2.09,0,0,1,.86-1.65l1.85-1.06c.47-.28.86,0,.86.65v25.78A2.08,2.08,0,0,1,320.21,335.46Z"/>
<path class="cls-11" transform="translate(-206.64 -73.08)" d="M327,331.53l-1.84,1.07c-.48.27-.86,0-.86-.65V306.17a2.07,2.07,0,0,1,.86-1.65l1.84-1.06c.48-.27.86,0,.86.65v25.78A2,2,0,0,1,327,331.53Z"/>
<path class="cls-11" transform="translate(-206.64 -73.08)" d="M333.81,327.61,332,328.67c-.48.28-.86,0-.86-.65V302.24a2,2,0,0,1,.86-1.64l1.84-1.07c.48-.27.86,0,.86.65V326A2.06,2.06,0,0,1,333.81,327.61Z"/>
<path class="cls-12" transform="translate(-206.64 -73.08)" d="M320.21,307.39l-.44.25V333a2.08,2.08,0,0,1-.86,1.64l-1.41.81v.46c0,.64.39.93.86.65l1.85-1.06a2.08,2.08,0,0,0,.86-1.64V308C321.07,307.4,320.68,307.11,320.21,307.39Z"/>
<path class="cls-12" transform="translate(-206.64 -73.08)" d="M327,303.46l-.44.26V329a2.07,2.07,0,0,1-.86,1.64l-1.4.81V332c0,.63.38.92.86.65l1.84-1.07a2,2,0,0,0,.86-1.64V304.11C327.87,303.48,327.49,303.19,327,303.46Z"/>
<path class="cls-12" transform="translate(-206.64 -73.08)" d="M333.81,299.53l-.44.26V325.1a2.07,2.07,0,0,1-.86,1.65l-1.4.81V328c0,.63.38.93.86.65l1.84-1.06a2.06,2.06,0,0,0,.86-1.65V300.18C334.67,299.55,334.29,299.26,333.81,299.53Z"/>
<path class="cls-13" transform="translate(-206.64 -73.08)" d="M294.9,342.55a1.39,1.39,0,0,1-.68-.2l-24-13.88a3.49,3.49,0,0,1-1.48-2.82V298.38a1.49,1.49,0,0,1,.6-1.34,1.13,1.13,0,0,1,1.17.08l24,13.87a3.51,3.51,0,0,1,1.48,2.82v27.28a1.47,1.47,0,0,1-.6,1.33A1,1,0,0,1,294.9,342.55Zm-.39-.69a.57.57,0,0,0,.59.07.94.94,0,0,0,.33-.84V313.81a3,3,0,0,0-1.21-2.33l-24-13.88a.64.64,0,0,0-.6-.07,1,1,0,0,0-.32.85v27.27a3,3,0,0,0,1.21,2.33Z"/>
<path class="cls-11" transform="translate(-206.64 -73.08)" d="M273.4,303.72c0,.75-.53,1-1.17.68a2.59,2.59,0,0,1-1.17-2c0-.75.52-1.05,1.17-.68A2.63,2.63,0,0,1,273.4,303.72Z"/>
<path class="cls-11" transform="translate(-206.64 -73.08)" d="M273.4,307.52c0,.74-.53,1.05-1.17.67a2.57,2.57,0,0,1-1.17-2c0-.75.52-1.05,1.17-.68A2.6,2.6,0,0,1,273.4,307.52Z"/>
<path class="cls-11" transform="translate(-206.64 -73.08)" d="M273.4,311.31c0,.75-.53,1.05-1.17.68a2.57,2.57,0,0,1-1.17-2c0-.74.52-1,1.17-.67A2.6,2.6,0,0,1,273.4,311.31Z"/>
<path class="cls-12" transform="translate(-206.64 -73.08)" d="M272.81,311.53a2.61,2.61,0,0,1-1.17-2,1.36,1.36,0,0,1,.06-.37c-.38,0-.64.31-.64.83a2.57,2.57,0,0,0,1.17,2c.52.3,1,.15,1.11-.31A1,1,0,0,1,272.81,311.53Z"/>
<path class="cls-12" transform="translate(-206.64 -73.08)" d="M272.81,307.73a2.61,2.61,0,0,1-1.17-2,1.36,1.36,0,0,1,.06-.37c-.38,0-.64.31-.64.83a2.57,2.57,0,0,0,1.17,2c.52.3,1,.16,1.11-.31A1,1,0,0,1,272.81,307.73Z"/>
<path class="cls-12" transform="translate(-206.64 -73.08)" d="M272.81,303.93a2.6,2.6,0,0,1-1.17-2,1.23,1.23,0,0,1,.06-.36c-.38,0-.64.3-.64.83a2.57,2.57,0,0,0,1.17,2c.52.31,1,.16,1.11-.31A1,1,0,0,1,272.81,303.93Z"/>
<path class="cls-13" transform="translate(-206.64 -73.08)" d="M292.73,328.93l-.77-.44a1.07,1.07,0,0,1-.44-.84v-3.72c0-.32.2-.47.44-.33l.77.45a1,1,0,0,1,.44.83v3.72C293.17,328.92,293,329.07,292.73,328.93Z"/>
<path class="cls-11" transform="translate(-206.64 -73.08)" d="m293.5 275.06a1.57 1.57 0 1 1-1.57-1.57 1.57 1.57 0 0 1 1.57 1.57z"/>
<path class="cls-11" transform="translate(-206.64 -73.08)" d="m306.47 264.51a2.69 2.69 0 1 1-2.69-2.68 2.68 2.68 0 0 1 2.69 2.68z"/>
<path class="cls-11" transform="translate(-206.64 -73.08)" d="M301.17,262.8a.69.69,0,1,1-.69-.69A.69.69,0,0,1,301.17,262.8Z"/>
<path class="cls-11" transform="translate(-206.64 -73.08)" d="m313.54 249.32a1.34 1.34 0 1 1-1.34-1.32 1.34 1.34 0 0 1 1.34 1.32z"/>
<path class="cls-11" transform="translate(-206.64 -73.08)" d="M306.08,237.92a.95.95,0,1,1-.95-.95A.95.95,0,0,1,306.08,237.92Z"/>
<path class="cls-11" transform="translate(-206.64 -73.08)" d="m295.22 230.65a1.72 1.72 0 1 1-1.72-1.72 1.72 1.72 0 0 1 1.72 1.72z"/>
<path class="cls-11" transform="translate(-206.64 -73.08)" d="m306.47 218.47a3.48 3.48 0 1 1-3.47-3.47 3.48 3.48 0 0 1 3.47 3.47z"/>
<path class="cls-11" transform="translate(-206.64 -73.08)" d="m299.51 216.26a1 1 0 1 1-1-1 1 1 0 0 1 1 1z"/>
<circle class="cls-11" cx="99.16" cy="149.57" r="1.13"/>
<path class="cls-11" transform="translate(-206.64 -73.08)" d="M307.76,220.29a.55.55,0,1,1-.54-.55A.55.55,0,0,1,307.76,220.29Z"/>
<path class="cls-11" transform="translate(-206.64 -73.08)" d="m314.85 208.55a1.58 1.58 0 1 1-1.57-1.58 1.57 1.57 0 0 1 1.57 1.58z"/>
</svg>
