<?xml version="1.0" encoding="UTF-8"?>
<svg viewBox="0 0 274.94 266.08" xmlns="http://www.w3.org/2000/svg" xmlns:xlink="http://www.w3.org/1999/xlink">
<defs>
<style>.cls-1{isolation:isolate;}.cls-2{fill:#6ee1f8;}.cls-3{fill:#267fe5;}.cls-10,.cls-11,.cls-19,.cls-21,.cls-4,.cls-9{fill:#d4088c;}.cls-5{fill:url(#b);}.cls-6{fill:#0c0f38;}.cls-19,.cls-6{opacity:0.8;}.cls-7{fill:url(#c);}.cls-8{fill:#6de0f6;}.cls-14,.cls-16,.cls-9{opacity:0.5;}.cls-10,.cls-11,.cls-19,.cls-20,.cls-21,.cls-9{mix-blend-mode:lighten;}.cls-10{opacity:0.3;}.cls-11{opacity:0.15;}.cls-12{fill:url(#a);}.cls-13{fill:#161242;}.cls-14{fill:#13113d;}.cls-15{fill:url(#f);}.cls-16{fill:#38025b;}.cls-17{fill:url(#e);}.cls-18{fill:url(#d);}.cls-20{fill:#6ee8fc;}</style>
<linearGradient id="b" x1="93.02" x2="310.52" y1="301.08" y2="301.08" gradientUnits="userSpaceOnUse">
<stop stop-color="#d4088c" offset="0"/>
<stop stop-color="#8d139b" offset=".23"/>
<stop stop-color="#6ee1f8" offset=".51"/>
<stop stop-color="#6ee8fc" offset=".78"/>
<stop stop-color="#6ee8fc" offset="1"/>
</linearGradient>
<linearGradient id="c" x1="100.95" x2="307.55" y1="242.96" y2="242.96" gradientUnits="userSpaceOnUse">
<stop stop-color="#a31fa9" offset="0"/>
<stop stop-color="#8b17a0" offset=".07"/>
<stop stop-color="#740f98" offset=".15"/>
<stop stop-color="#640a92" offset=".24"/>
<stop stop-color="#5b078f" offset=".34"/>
<stop stop-color="#58068e" offset=".48"/>
<stop stop-color="#4d22a3" offset=".63"/>
<stop stop-color="#3168da" offset=".94"/>
<stop stop-color="#2c75e4" offset="1"/>
</linearGradient>
<linearGradient id="a" x1="463.01" x2="560.46" y1="810.37" y2="725.97" gradientTransform="matrix(.87 .5 -1 .58 525 -518.49)" gradientUnits="userSpaceOnUse">
<stop stop-color="#8d139b" offset="0"/>
<stop stop-color="#851ba1" offset=".17"/>
<stop stop-color="#6e33b2" offset=".43"/>
<stop stop-color="#4958cd" offset=".76"/>
<stop stop-color="#2979e4" offset="1"/>
</linearGradient>
<linearGradient id="f" x1="128.37" x2="269.04" y1="117.71" y2="150.05" xlink:href="#a"/>
<linearGradient id="e" x1="64.74" x2="205.4" y1="156" y2="188.34" xlink:href="#a"/>
<linearGradient id="d" x1="2928.9" x2="2779.4" y1="-604.33" y2="-539.04" gradientTransform="matrix(-.87 -.5 0 -1.15 2662.8 948.07)" xlink:href="#a"/>
</defs>
<title>illu52</title>
<g class="cls-1">
<g data-name="—ÎÓÈ_1">
<polygon class="cls-2" points="201.15 8.74 192.41 8.74 192.41 5.74 198.15 5.74 198.15 0 201.15 0"/>
<polygon class="cls-2" points="193.91 15.98 185.17 15.98 185.17 12.98 190.91 12.98 190.91 7.24 193.91 7.24"/>
<polygon class="cls-2" points="193.91 14.48 190.91 14.48 190.91 5.74 199.65 5.74 199.65 8.74 193.91 8.74"/>
<path class="cls-3" transform="translate(-53.64 -97.97)" d="m310.07 187.74a6.5 6.5 0 1 1 6.5-6.5 6.51 6.51 0 0 1-6.5 6.5zm0-10a3.5 3.5 0 1 0 3.5 3.5 3.5 3.5 0 0 0-3.5-3.5z"/>
<path class="cls-4" transform="translate(-53.64 -97.97)" d="m81.45 190.26-7.45-7.41 7.41-7.41 7.41 7.41zm-3.17-7.41 3.17 3.15 3.17-3.17-3.17-3.17z"/>
<path class="cls-3" transform="translate(-53.64 -97.97)" d="m310.07 278-7.41-7.41 7.41-7.42 7.41 7.42zm-3.17-7.41 3.17 3.17 3.17-3.17-3.17-3.17z"/>
<rect class="cls-2" x="112.05" y="7.36" width="10.88" height="3"/>
<rect class="cls-2" x="115.99" y="3.42" width="3" height="10.88"/>
<rect class="cls-4" transform="translate(-222.96 35.25) rotate(-45)" x="74.66" y="265.56" width="3" height="10.87"/>
<rect class="cls-4" transform="translate(-222.96 35.26) rotate(-45)" x="70.72" y="269.5" width="10.87" height="3"/>
<path class="cls-5" transform="translate(-53.64 -97.97)" d="m201 364.05a23.11 23.11 0 0 1-11.31-2.6l-92-53.14c-3-1.73-4.65-4.14-4.65-6.79 0-3.17 2.36-6.35 6.48-8.73l88.36-51c7.67-4.42 19.33-4.9 26-1.06l92 53.14c3 1.73 4.64 4.14 4.64 6.79 0 3.18-2.36 6.36-6.47 8.73l-88.37 51a30.15 30.15 0 0 1-14.68 3.66zm1.52-125a29.14 29.14 0 0 0-14.21 3.55l-88.37 51c-3.83 2.21-6 5.11-6 7.95 0 2.31 1.49 4.45 4.19 6l92 53.13c6.41 3.71 17.66 3.23 25.08-1.05l88.36-51c3.83-2.21 6-5.11 6-7.95 0-2.31-1.49-4.44-4.19-6l-92-53.13a22.15 22.15 0 0 0-10.85-2.55z"/>
<path class="cls-6" transform="translate(-53.64 -97.97)" d="m193 345.4-68-39.26c-4.84-2.8-4.23-7.67 1.35-10.9l65.29-37.69c5.59-3.22 14-3.57 18.87-0.78l68 39.26c4.83 2.79 4.23 7.67-1.36 10.89l-65.29 37.69c-5.56 3.23-14.01 3.58-18.86 0.79z"/>
<path class="cls-7" transform="translate(-53.64 -97.97)" d="M286.56,180.91H250.83l-39.78-23c-5.13-3-14.07-2.59-20,.83l-38.34,22.13H117V281h0c-.15,2,1,3.94,3.43,5.36L192.5,328c5.12,3,14.07,2.59,20-.83l69.18-39.94c3.07-1.78,4.71-4,4.87-6.19h0Z"/>
<path class="cls-4" transform="translate(-53.64 -97.97)" d="m126.05 180.91h-9v100.09a5.07 5.07 0 0 0 1.64 4 4.84 4.84 0 0 1-1-3.3v-100.08h9.14c-0.3-0.25-0.54-0.48-0.78-0.71z"/>
<path class="cls-8" transform="translate(-53.64 -97.97)" d="M275.12,180.91c-.06.2-.13.41-.2.61h11V281.61h0a6.47,6.47,0,0,1-2,4,7,7,0,0,0,2.64-4.59h0V180.91Z"/>
<polygon class="cls-9" points="88.59 200.98 88.59 84.88 75.62 84.88 75.62 193.49"/>
<polygon class="cls-10" points="96.56 205.58 96.56 92.68 93.02 92.68 93.02 203.53"/>
<polygon class="cls-11" points="102.91 209.25 102.91 94.04 99.36 94.04 99.36 207.2"/>
<path class="cls-12" transform="translate(-53.64 -97.97)" d="m192.5 227.87-72.06-41.6c-5.12-3-4.48-8.13 1.44-11.54l69.18-39.94c5.92-3.42 14.86-3.79 20-0.83l72.05 41.6c5.13 3 4.48 8.12-1.43 11.54l-69.19 39.9c-5.92 3.46-14.87 3.83-19.99 0.87z"/>
<path class="cls-4" transform="translate(-53.64 -97.97)" d="m193.29 227.87-72.06-41.6c-5.12-3-4.48-8.13 1.44-11.54l69.18-39.94a22.77 22.77 0 0 1 10.15-2.79 23.08 23.08 0 0 0-11 2.8l-69.18 39.94c-5.92 3.41-6.56 8.58-1.44 11.54l72.06 41.6a18.49 18.49 0 0 0 9.8 2 18 18 0 0 1-8.95-2.01z"/>
<path class="cls-8" transform="translate(-53.64 -97.97)" d="m283.1 175.56-72.05-41.56a18.39 18.39 0 0 0-9.82-2 18 18 0 0 1 8.9 2l72.05 41.6c5.12 3 4.48 8.12-1.43 11.54l-69.19 39.86a22.77 22.77 0 0 1-10.17 2.79 23.06 23.06 0 0 0 11.1-2.79l69.18-39.94c5.91-3.38 6.56-8.54 1.43-11.5z"/>
<path class="cls-8" transform="translate(-53.64 -97.97)" d="m194.87 215.87-53.65-31c-3.81-2.2-3.33-6.05 1.07-8.59l51.51-29.74c4.4-2.54 11.06-2.82 14.88-0.62l53.64 31c3.82 2.2 3.34 6-1.06 8.59l-51.51 29.74c-4.41 2.55-11.07 2.83-14.88 0.62z"/>
<path class="cls-3" transform="translate(-53.64 -97.97)" d="M142.29,182.1l51.51-29.74c4.4-2.54,11.06-2.82,14.88-.62l53.64,31a6.87,6.87,0,0,1,1.28.95c2-2.32,1.69-5-1.28-6.73l-53.64-31c-3.82-2.2-10.48-1.92-14.88.62l-51.51,29.74c-3.83,2.21-4.69,5.4-2.34,7.65A9.09,9.09,0,0,1,142.29,182.1Z"/>
<path class="cls-8" transform="translate(-53.64 -97.97)" d="m214.54 235 61-35.25a2.42 2.42 0 0 0 1-1.93v-1c0-0.74-0.45-1.08-1-0.76l-61 35.25a2.42 2.42 0 0 0-1 1.93v1c-0.01 0.76 0.46 1.06 1 0.76z"/>
<path class="cls-3" transform="translate(-53.64 -97.97)" d="M274.16,199a2.43,2.43,0,0,0,1-1.93v-.82l.32-.18c.56-.32,1,0,1,.76v1a2.42,2.42,0,0,1-1,1.93l-61,35.25c-.56.33-1,0-1-.76V234Z"/>
<path class="cls-8" transform="translate(-53.64 -97.97)" d="m214.54 245.7 61-35.25a2.43 2.43 0 0 0 1-1.93v-1c0-0.75-0.45-1.09-1-0.77l-61 35.26a2.42 2.42 0 0 0-1 1.93v1c-0.01 0.74 0.46 1.06 1 0.76z"/>
<path class="cls-3" transform="translate(-53.64 -97.97)" d="M274.16,209.68a2.4,2.4,0,0,0,1-1.93v-.81l.32-.19c.56-.32,1,0,1,.77v1a2.43,2.43,0,0,1-1,1.93l-61,35.25c-.56.32-1,0-1-.76v-.19Z"/>
<path class="cls-8" transform="translate(-53.64 -97.97)" d="m214.54 256.43 61-35.26a2.4 2.4 0 0 0 1-1.93v-1c0-0.74-0.45-1.08-1-0.76l-61 35.26a2.4 2.4 0 0 0-1 1.93v1c-0.01 0.74 0.46 1.08 1 0.76z"/>
<path class="cls-3" transform="translate(-53.64 -97.97)" d="M274.16,220.41a2.4,2.4,0,0,0,1-1.93v-.81l.32-.19c.56-.32,1,0,1,.76v1a2.4,2.4,0,0,1-1,1.93l-61,35.26c-.56.32-1,0-1-.76v-.19Z"/>
<path class="cls-8" transform="translate(-53.64 -97.97)" d="m214.54 267.16 61-35.26a2.42 2.42 0 0 0 1-1.93v-1c0-0.74-0.45-1.08-1-0.76l-61 35.25a2.43 2.43 0 0 0-1 1.93v1c-0.01 0.75 0.46 1.09 1 0.77z"/>
<path class="cls-3" transform="translate(-53.64 -97.97)" d="M274.16,231.14a2.42,2.42,0,0,0,1-1.93v-.81l.32-.19c.56-.32,1,0,1,.76v1a2.42,2.42,0,0,1-1,1.93l-61,35.26c-.56.32-1,0-1-.77v-.18Z"/>
<path class="cls-8" transform="translate(-53.64 -97.97)" d="m214.54 277.88 61-35.25a2.42 2.42 0 0 0 1-1.93v-1c0-0.74-0.45-1.09-1-0.76l-61 35.25a2.42 2.42 0 0 0-1 1.93v1c-0.01 0.74 0.46 1.08 1 0.76z"/>
<path class="cls-3" transform="translate(-53.64 -97.97)" d="M274.16,241.86a2.4,2.4,0,0,0,1-1.92v-.82l.32-.18c.56-.33,1,0,1,.76v1a2.42,2.42,0,0,1-1,1.93l-61,35.25c-.56.32-1,0-1-.76v-.19Z"/>
<path class="cls-8" transform="translate(-53.64 -97.97)" d="m214.54 288.61 61-35.26a2.4 2.4 0 0 0 1-1.92v-1c0-0.75-0.45-1.09-1-0.77l-61 35.26a2.4 2.4 0 0 0-1 1.93v1c-0.01 0.74 0.46 1.08 1 0.76z"/>
<path class="cls-3" transform="translate(-53.64 -97.97)" d="M274.16,252.59a2.4,2.4,0,0,0,1-1.93v-.81l.32-.19c.56-.32,1,0,1,.77v1a2.4,2.4,0,0,1-1,1.92l-61,35.26c-.56.32-1,0-1-.76v-.19Z"/>
<path class="cls-8" transform="translate(-53.64 -97.97)" d="m214.54 299.34 61-35.26a2.4 2.4 0 0 0 1-1.93v-1c0-0.74-0.45-1.08-1-0.76l-61 35.25a2.43 2.43 0 0 0-1 1.93v1c-0.01 0.75 0.46 1.09 1 0.77z"/>
<path class="cls-3" transform="translate(-53.64 -97.97)" d="M274.16,263.32a2.42,2.42,0,0,0,1-1.93v-.81l.32-.19c.56-.32,1,0,1,.76v1a2.4,2.4,0,0,1-1,1.93l-61,35.26c-.56.32-1,0-1-.77v-.18Z"/>
<path class="cls-8" transform="translate(-53.64 -97.97)" d="m214.54 310.06 61-35.25a2.42 2.42 0 0 0 1-1.93v-1c0-0.74-0.45-1.09-1-0.76l-61 35.25a2.42 2.42 0 0 0-1 1.93v1c-0.01 0.7 0.46 1.09 1 0.76z"/>
<path class="cls-3" transform="translate(-53.64 -97.97)" d="M274.16,274.05a2.43,2.43,0,0,0,1-1.93v-.82l.32-.18c.56-.33,1,0,1,.76v1a2.42,2.42,0,0,1-1,1.93l-61,35.25c-.56.33-1,0-1-.76v-.19Z"/>
<path class="cls-8" transform="translate(-53.64 -97.97)" d="m214.54 320.79 61-35.25a2.43 2.43 0 0 0 1-1.93v-1c0-0.75-0.45-1.09-1-0.77l-61 35.26a2.4 2.4 0 0 0-1 1.93v1c-0.01 0.74 0.46 1.08 1 0.76z"/>
<path class="cls-3" transform="translate(-53.64 -97.97)" d="M274.16,284.77a2.4,2.4,0,0,0,1-1.93V282l.32-.19c.56-.32,1,0,1,.77v1a2.43,2.43,0,0,1-1,1.93l-61,35.25c-.56.32-1,0-1-.76v-.19Z"/>
<circle class="cls-8" cx="148.13" cy="138.75" r="1.64"/>
<path class="cls-3" transform="translate(-53.64 -97.97)" d="m201.77 237.74a1.62 1.62 0 0 1-1.6-1.33 1.55 1.55 0 0 0 0 0.31 1.64 1.64 0 1 0 3.27 0 1.55 1.55 0 0 0 0-0.31 1.64 1.64 0 0 1-1.67 1.33z"/>
<path class="cls-8" transform="translate(-53.64 -97.97)" d="m203.41 247.45a1.64 1.64 0 1 1-1.64-1.64 1.63 1.63 0 0 1 1.64 1.64z"/>
<path class="cls-3" transform="translate(-53.64 -97.97)" d="m201.77 248.47a1.62 1.62 0 0 1-1.6-1.33 1.55 1.55 0 0 0 0 0.31 1.64 1.64 0 0 0 3.27 0 1.55 1.55 0 0 0 0-0.31 1.64 1.64 0 0 1-1.67 1.33z"/>
<circle class="cls-8" cx="148.13" cy="160.21" r="1.64"/>
<path class="cls-3" transform="translate(-53.64 -97.97)" d="m201.77 259.2a1.63 1.63 0 0 1-1.6-1.33 1.53 1.53 0 0 0 0 0.3 1.64 1.64 0 1 0 3.27 0 1.53 1.53 0 0 0 0-0.3 1.65 1.65 0 0 1-1.67 1.33z"/>
<circle class="cls-8" cx="148.13" cy="170.93" r="1.64"/>
<path class="cls-3" transform="translate(-53.64 -97.97)" d="m201.77 269.92a1.62 1.62 0 0 1-1.6-1.33 1.64 1.64 0 1 0 3.21 0 1.64 1.64 0 0 1-1.61 1.33z"/>
<circle class="cls-8" cx="148.13" cy="181.66" r="1.64"/>
<path class="cls-3" transform="translate(-53.64 -97.97)" d="m201.77 280.65a1.62 1.62 0 0 1-1.6-1.33 1.55 1.55 0 0 0 0 0.31 1.64 1.64 0 0 0 3.27 0 1.55 1.55 0 0 0 0-0.31 1.64 1.64 0 0 1-1.67 1.33z"/>
<circle class="cls-8" cx="148.13" cy="192.39" r="1.64"/>
<path class="cls-3" transform="translate(-53.64 -97.97)" d="m201.77 291.38a1.63 1.63 0 0 1-1.6-1.33 1.53 1.53 0 0 0 0 0.3 1.64 1.64 0 1 0 3.27 0 1.53 1.53 0 0 0 0-0.3 1.65 1.65 0 0 1-1.67 1.33z"/>
<circle class="cls-8" cx="148.13" cy="203.11" r="1.64"/>
<path class="cls-3" transform="translate(-53.64 -97.97)" d="m201.77 302.1a1.62 1.62 0 0 1-1.6-1.32 1.45 1.45 0 0 0 0 0.3 1.64 1.64 0 1 0 3.27 0 1.45 1.45 0 0 0 0-0.3 1.64 1.64 0 0 1-1.67 1.32z"/>
<circle class="cls-8" cx="148.13" cy="213.84" r="1.64"/>
<path class="cls-3" transform="translate(-53.64 -97.97)" d="m201.77 312.83a1.62 1.62 0 0 1-1.6-1.33 1.55 1.55 0 0 0 0 0.31 1.64 1.64 0 0 0 3.27 0 1.55 1.55 0 0 0 0-0.31 1.64 1.64 0 0 1-1.67 1.33z"/>
<circle class="cls-8" cx="148.13" cy="224.57" r="1.64"/>
<path class="cls-3" transform="translate(-53.64 -97.97)" d="m201.77 323.56a1.62 1.62 0 0 1-1.6-1.33 1.55 1.55 0 0 0 0 0.31 1.64 1.64 0 0 0 3.27 0 1.55 1.55 0 0 0 0-0.31 1.64 1.64 0 0 1-1.67 1.33z"/>
<path class="cls-13" transform="translate(-53.64 -97.97)" d="M178.38,306.85a2.11,2.11,0,0,1-1-.31l-2.44-1.41a5.73,5.73,0,0,1-2.41-4.57V234.72a2.26,2.26,0,0,1,.92-2.06,1.68,1.68,0,0,1,1.74.12l2.44,1.41a5.71,5.71,0,0,1,2.4,4.57V304.6a2.26,2.26,0,0,1-.91,2.06A1.33,1.33,0,0,1,178.38,306.85Zm-3.22-2.15,2.44,1.41a1.24,1.24,0,0,0,1.24.12,1.79,1.79,0,0,0,.67-1.63V238.76a5.18,5.18,0,0,0-2.16-4.14l-2.44-1.41a1.25,1.25,0,0,0-1.25-.12,1.81,1.81,0,0,0-.66,1.63v65.84a5.21,5.21,0,0,0,2.16,4.14Z"/>
<path class="cls-13" transform="translate(-53.64 -97.97)" d="M137.78,283.76a2,2,0,0,1-1-.31L134.31,282a5.73,5.73,0,0,1-2.41-4.57V211.63a2.25,2.25,0,0,1,.91-2.06,1.7,1.7,0,0,1,1.74.12L137,211.1a5.73,5.73,0,0,1,2.41,4.57v65.84a2.25,2.25,0,0,1-.91,2.06A1.38,1.38,0,0,1,137.78,283.76Zm-3.23-2.15L137,283a1.25,1.25,0,0,0,1.25.12,1.81,1.81,0,0,0,.66-1.63V215.67a5.2,5.2,0,0,0-2.15-4.14l-2.44-1.41a1.23,1.23,0,0,0-1.25-.12,1.81,1.81,0,0,0-.66,1.63v65.84a5.17,5.17,0,0,0,2.15,4.14Z"/>
<path class="cls-13" transform="translate(-53.64 -97.97)" d="M158.08,295.3a2.09,2.09,0,0,1-1-.3l-2.44-1.41A5.75,5.75,0,0,1,152.2,289V223.17a2.28,2.28,0,0,1,.91-2.06,1.74,1.74,0,0,1,1.75.12l2.44,1.41a5.77,5.77,0,0,1,2.4,4.58v65.84a2.28,2.28,0,0,1-.91,2.06A1.47,1.47,0,0,1,158.08,295.3Zm-4.25-73.88a.94.94,0,0,0-.47.12,1.82,1.82,0,0,0-.66,1.63V289a5.21,5.21,0,0,0,2.16,4.15l2.44,1.41a1.24,1.24,0,0,0,1.24.12,1.82,1.82,0,0,0,.67-1.63V227.22a5.21,5.21,0,0,0-2.16-4.15l-2.44-1.41A1.59,1.59,0,0,0,153.83,221.42Z"/>
<polygon class="cls-14" points="212.68 67.82 210.38 80.36 222.34 73.5"/>
<path class="cls-15" transform="translate(-53.64 -97.97)" d="M203.49,105.21l-2.79,1.62,2.79,3.18V133.6c0,5.15,3.13,11.14,7,13.37l51.34,29.64.16.08,1.66,1.89,2.6-1.52.11-.06.25-.15h0c1.37-.92,2.23-2.84,2.23-5.53V142.93Z"/>
<path class="cls-8" transform="translate(-53.64 -97.97)" d="m200.7 106.83 65.3 37.72v28.39c0 5.15-3.14 7.52-7 5.29l-51.3-29.64c-3.87-2.23-7-8.22-7-13.37z"/>
<polygon class="cls-16" points="145.52 119.25 133.01 126.53 76.87 94.12 88.5 87.44"/>
<path class="cls-17" transform="translate(-53.64 -97.97)" d="M139.86,143.5l-2.79,1.62,2.79,3.18v23.59c0,5.15,3.13,11.14,7,13.37L198.2,214.9l.16.08,1.66,1.89,2.6-1.52.11-.06.25-.15h0c1.37-.92,2.22-2.84,2.22-5.53V181.22Z"/>
<path class="cls-18" transform="translate(-53.64 -97.97)" d="m137.07 145.12 65.33 37.72v28.39c0 5.15-3.13 7.52-7 5.29l-51.35-29.64c-3.86-2.23-7-8.22-7-13.37z"/>
<path class="cls-16" transform="translate(-53.64 -97.97)" d="m276.18 171.58-9.85-5.79z"/>
<path class="cls-19" transform="translate(-53.64 -97.97)" d="m92.44 129.83a2 2 0 1 1-2-2 2 2 0 0 1 2 2z"/>
<circle class="cls-20" cx="273.65" cy="99.34" r="1.29"/>
<path class="cls-20" transform="translate(-53.64 -97.97)" d="m74.12 250.13a1.81 1.81 0 1 1-1.81-1.81 1.81 1.81 0 0 1 1.81 1.81z"/>
<path class="cls-20" transform="translate(-53.64 -97.97)" d="m117.55 293.94a1.74 1.74 0 1 1-1.74-1.75 1.74 1.74 0 0 1 1.74 1.75z"/>
<circle class="cls-20" cx="1" cy="130.71" r="1"/>
<path class="cls-21" transform="translate(-53.64 -97.97)" d="m238.82 102.51a1.19 1.19 0 1 1-1.19-1.18 1.19 1.19 0 0 1 1.19 1.18z"/>
<circle class="cls-21" cx="221.04" cy="258.73" r="1.71"/>
<path class="cls-21" transform="translate(-53.64 -97.97)" d="m257.51 343a1 1 0 1 1-1-1 1 1 0 0 1 1 1z"/>
<path class="cls-21" transform="translate(-53.64 -97.97)" d="M277.64,338.4a.52.52,0,1,1-1,0,.52.52,0,0,1,1,0Z"/>
</g>
</g>
</svg>
