<?xml version="1.0" encoding="UTF-8"?>
<svg data-name="—ÎÓÈ_1" viewBox="0 0 191.65 248.8" xmlns="http://www.w3.org/2000/svg" xmlns:xlink="http://www.w3.org/1999/xlink">
<defs>
<style>.cls-1{fill:none;}.cls-2{fill:url(#d);}.cls-3,.cls-42{opacity:0.1;}.cls-3{fill:url(#k);}.cls-31,.cls-4,.cls-43{opacity:0.4;}.cls-5{fill:url(#a);}.cls-6{fill:#d4088c;}.cls-7{fill:url(#c);}.cls-26,.cls-8{fill:#6ee8fc;}.cls-9{fill:#480689;}.cls-10,.cls-26,.cls-27{opacity:0.5;}.cls-11{fill:url(#w);}.cls-12{fill:url(#y);}.cls-13{opacity:0.7;}.cls-14{fill:url(#v);}.cls-15{fill:url(#x);}.cls-16{fill:url(#u);}.cls-17{fill:url(#l);}.cls-18{fill:url(#j);}.cls-19,.cls-27{fill:#25bfec;}.cls-20{fill:#6de0f6;}.cls-21{fill:#267fe5;}.cls-22{fill:url(#m);}.cls-23{fill:url(#t);}.cls-24{fill:#38025b;}.cls-25{clip-path:url(#i);}.cls-28{fill:url(#b);}.cls-29{fill:url(#s);}.cls-30{fill:#50deff;}.cls-31{fill:#0c0f38;}.cls-32{clip-path:url(#h);}.cls-33{fill:url(#q);}.cls-34{fill:url(#r);}.cls-35{clip-path:url(#g);}.cls-36{fill:url(#e);}.cls-37{fill:url(#p);}.cls-38{clip-path:url(#f);}.cls-39{fill:url(#n);}.cls-40{fill:url(#o);}.cls-41,.cls-42,.cls-43{fill:#2c75e4;}</style>
<linearGradient id="d" x1="303.46" x2="475.57" y1="296.85" y2="296.85" gradientUnits="userSpaceOnUse">
<stop stop-color="#d4088c" offset="0"/>
<stop stop-color="#8d139b" offset=".23"/>
<stop stop-color="#6ee1f8" offset=".51"/>
<stop stop-color="#6ee8fc" offset=".78"/>
<stop stop-color="#6ee8fc" offset="1"/>
</linearGradient>
<linearGradient id="k" x1="303.46" x2="475.57" y1="305.99" y2="305.99" xlink:href="#d"/>
<linearGradient id="a" x1="287.72" x2="496.32" y1="280.79" y2="280.79" gradientUnits="userSpaceOnUse">
<stop stop-color="#a31fa9" offset="0"/>
<stop stop-color="#8b17a0" offset=".07"/>
<stop stop-color="#740f98" offset=".15"/>
<stop stop-color="#640a92" offset=".24"/>
<stop stop-color="#5b078f" offset=".34"/>
<stop stop-color="#58068e" offset=".48"/>
<stop stop-color="#4d22a3" offset=".63"/>
<stop stop-color="#3168da" offset=".94"/>
<stop stop-color="#2c75e4" offset="1"/>
</linearGradient>
<linearGradient id="c" x1="646.58" x2="744.97" y1="782.43" y2="697.21" gradientTransform="matrix(.87 .5 -1 .58 525 -518.49)" gradientUnits="userSpaceOnUse">
<stop stop-color="#8d139b" offset="0"/>
<stop stop-color="#851ba1" offset=".17"/>
<stop stop-color="#6e33b2" offset=".43"/>
<stop stop-color="#4958cd" offset=".76"/>
<stop stop-color="#2979e4" offset="1"/>
</linearGradient>
<linearGradient id="w" x1="287.72" x2="496.32" y1="247.42" y2="247.42" xlink:href="#a"/>
<linearGradient id="y" x1="613.21" x2="711.61" y1="753.54" y2="668.32" xlink:href="#c"/>
<linearGradient id="v" x1="287.72" x2="496.32" y1="214.06" y2="214.06" xlink:href="#a"/>
<linearGradient id="x" x1="579.85" x2="678.24" y1="724.64" y2="639.43" xlink:href="#c"/>
<linearGradient id="u" x1="287.72" x2="496.32" y1="180.69" y2="180.69" xlink:href="#a"/>
<linearGradient id="l" x1="546.48" x2="644.88" y1="695.75" y2="610.53" gradientTransform="matrix(.87 .5 -1 .58 525 -518.49)" gradientUnits="userSpaceOnUse">
<stop stop-color="#267fe5" offset="0"/>
<stop stop-color="#2c87e7" offset=".17"/>
<stop stop-color="#3d9feb" offset=".44"/>
<stop stop-color="#59c4f2" offset=".78"/>
<stop stop-color="#6ee1f8" offset="1"/>
</linearGradient>
<linearGradient id="j" x1="325.4" x2="453.63" y1="156.47" y2="156.47" gradientUnits="userSpaceOnUse">
<stop stop-color="#6de0f6" offset="0"/>
<stop stop-color="#68d8f5" offset=".16"/>
<stop stop-color="#5ac0f1" offset=".41"/>
<stop stop-color="#439bea" offset=".73"/>
<stop stop-color="#2c75e4" offset="1"/>
</linearGradient>
<linearGradient id="m" x1="321.44" x2="457.59" y1="163.27" y2="149.67" gradientUnits="userSpaceOnUse">
<stop stop-color="#a31fa9" offset="0"/>
<stop stop-color="#8b17a0" offset=".05"/>
<stop stop-color="#740f98" offset=".11"/>
<stop stop-color="#640a92" offset=".18"/>
<stop stop-color="#5b078f" offset=".26"/>
<stop stop-color="#58068e" offset=".36"/>
<stop stop-color="#4d22a3" offset=".54"/>
<stop stop-color="#3168da" offset=".93"/>
<stop stop-color="#2c75e4" offset="1"/>
</linearGradient>
<linearGradient id="t" x1="338.62" x2="440.43" y1="143.26" y2="143.26" xlink:href="#a"/>
<clipPath id="i" transform="translate(-295.02 -107.04)">
<path class="cls-1" d="m280.15 266.06 38.94-19.79c0-1.24 1-1.67 2.25-1l48.57 28a4.65 4.65 0 0 1 2.24 3.54v2.4c0 1.24-1 1.67-2.24 1l-31 22.06c-1.2-0.69-58.76-34.97-58.76-36.21z"/>
</clipPath>
<linearGradient id="b" x1="402.23" x2="457.72" y1="2090.1" y2="2114.8" gradientTransform="translate(2353.9 958.58) rotate(119.98)" gradientUnits="userSpaceOnUse">
<stop stop-color="#2c75e4" offset="0"/>
<stop stop-color="#3168da" offset=".06"/>
<stop stop-color="#4d22a3" offset=".37"/>
<stop stop-color="#58068e" offset=".52"/>
<stop stop-color="#5b078f" offset=".66"/>
<stop stop-color="#640a92" offset=".76"/>
<stop stop-color="#740f98" offset=".85"/>
<stop stop-color="#8b17a0" offset=".93"/>
<stop stop-color="#a31fa9" offset="1"/>
</linearGradient>
<linearGradient id="s" x1="424.97" x2="351.37" y1="2100.7" y2="2100.7" gradientTransform="translate(2353.9 958.58) rotate(119.98)" xlink:href="#a"/>
<clipPath id="h" transform="translate(-295.02 -107.04)">
<path class="cls-1" d="m280.15 233.17 38.94-19.79c0-1.24 1-1.67 2.25-0.95l48.57 28a4.64 4.64 0 0 1 2.24 3.54v2.4c0 1.24-1 1.66-2.24 1l-30.91 22.03c-1.29-0.71-58.85-34.99-58.85-36.23z"/>
</clipPath>
<linearGradient id="q" x1="373.74" x2="429.23" y1="2106.6" y2="2131.3" xlink:href="#b"/>
<linearGradient id="r" x1="396.48" x2="322.88" y1="2117.1" y2="2117.1" gradientTransform="translate(2353.9 958.58) rotate(119.98)" xlink:href="#a"/>
<clipPath id="g" transform="translate(-295.02 -107.04)">
<path class="cls-1" d="m501.55 266.06-38.95-19.79c0-1.24-1-1.67-2.24-1l-48.57 28a4.67 4.67 0 0 0-2.25 3.54v2.4c0 1.24 1 1.67 2.25 1l31 22.06c1.21-0.69 58.76-34.97 58.76-36.21z"/>
</clipPath>
<linearGradient id="e" x1="-303.55" x2="-248.06" y1="866.71" y2="891.41" gradientTransform="matrix(.5 .87 .87 -.5 -159.76 958.58)" gradientUnits="userSpaceOnUse">
<stop stop-color="#58068e" offset="0"/>
<stop stop-color="#4d22a3" offset=".28"/>
<stop stop-color="#3168da" offset=".89"/>
<stop stop-color="#2c75e4" offset="1"/>
</linearGradient>
<linearGradient id="p" x1="-280.81" x2="-354.41" y1="877.27" y2="877.27" gradientTransform="matrix(.5 .87 .87 -.5 -159.76 958.58)" xlink:href="#b"/>
<clipPath id="f" transform="translate(-295.02 -107.04)">
<path class="cls-1" d="m501.55 233.17-38.95-19.79c0-1.24-1-1.67-2.24-0.95l-48.57 28a4.65 4.65 0 0 0-2.25 3.54v2.4c0 1.24 1 1.66 2.25 1l31 22.06c1.21-0.74 58.76-35.02 58.76-36.26z"/>
</clipPath>
<linearGradient id="n" x1="-332.04" x2="-276.55" y1="883.15" y2="907.85" xlink:href="#e"/>
<linearGradient id="o" x1="-309.3" x2="-382.9" y1="893.71" y2="893.71" gradientTransform="matrix(.5 .87 .87 -.5 -159.76 958.58)" xlink:href="#b"/>
</defs>
<title>illu51</title>
<path class="cls-2" transform="translate(-295.02 -107.04)" d="M388.91,346.71a18.28,18.28,0,0,1-9-2.07l-72.75-42c-2.4-1.38-3.72-3.32-3.72-5.44,0-2.54,1.89-5.08,5.16-7l69.86-40.33c6.08-3.52,15.33-3.89,20.62-.84l72.75,42c2.4,1.39,3.72,3.32,3.72,5.44,0,2.54-1.89,5.08-5.17,7l-69.85,40.33A24,24,0,0,1,388.91,346.71Zm-8.54-2.83c5,2.91,13.9,2.54,19.74-.83L470,302.72c3-1.74,4.72-4,4.72-6.22,0-1.8-1.16-3.46-3.28-4.68l-72.75-42c-5-2.91-13.9-2.54-19.74.84L309.06,291c-3,1.73-4.72,4-4.72,6.21,0,1.8,1.16,3.46,3.27,4.68Z"/>
<path class="cls-3" transform="translate(-295.02 -107.04)" d="m388.91 355.84a18.39 18.39 0 0 1-9-2.06l-72.75-42c-2.4-1.38-3.72-3.31-3.72-5.44 0-2.54 1.89-5.08 5.16-7l69.88-40.34c6.08-3.51 15.33-3.89 20.62-0.84l72.75 42c2.4 1.38 3.72 3.31 3.72 5.44 0 2.54-1.89 5.08-5.17 7l-69.85 40.33a23.9 23.9 0 0 1-11.64 2.91zm1.21-98.84a23 23 0 0 0-11.2 2.8l-69.86 40.33c-3 1.73-4.72 4-4.72 6.21 0 1.8 1.16 3.46 3.27 4.68l72.76 42c5 2.91 13.9 2.53 19.74-0.84l69.89-40.33c3-1.73 4.72-4 4.72-6.21 0-1.8-1.16-3.46-3.28-4.68l-72.75-42a17.49 17.49 0 0 0-8.57-1.96z"/>
<g class="cls-4">
<path class="cls-5" transform="translate(-295.02 -107.04)" d="M475.13,256.57H439.05l-40.17-23.19c-5.17-3-14.21-2.62-20.18.83L340,256.57H303.92v24.22h0c-.15,2,1,4,3.46,5.41l72.76,42c5.17,3,14.21,2.61,20.18-.84L470.19,287c3.1-1.79,4.75-4.06,4.91-6.24h0Z"/>
<path class="cls-6" transform="translate(-295.02 -107.04)" d="M306.21,282.46h0V258.24h36.07L381,235.88c6-3.45,15-3.82,20.19-.83l40.16,23.19h33.81v-1.67H439.05l-40.17-23.19c-5.17-3-14.21-2.62-20.18.83L340,256.57H303.92v24.22h0c-.15,2,1,4,3.46,5.41l.41.23A5.06,5.06,0,0,1,306.21,282.46Z"/>
<path class="cls-7" transform="translate(-295.02 -107.04)" d="m380.15 304-72.76-42c-5.17-3-4.52-8.2 1.45-11.65l69.86-40.35c6-3.45 15-3.82 20.18-0.84l72.75 42c5.18 3 4.53 8.2-1.44 11.65l-69.86 40.33c-5.97 3.45-15.01 3.86-20.18 0.86z"/>
<path class="cls-8" transform="translate(-295.02 -107.04)" d="m471.63 251.16-72.75-42a18.81 18.81 0 0 0-10.18-2 16.87 16.87 0 0 1 7.33 2l72.76 42c5.17 3 4.52 8.2-1.45 11.65l-69.86 40.33a23.17 23.17 0 0 1-10 2.81 23.71 23.71 0 0 0 12.84-2.81l69.86-40.33c5.98-3.45 6.63-8.66 1.45-11.65z"/>
<path class="cls-9" transform="translate(-295.02 -107.04)" d="M389.06,294a13.87,13.87,0,0,1-6.83-1.57l-54.16-31.27a5.08,5.08,0,0,1-2.92-4.31c0-2,1.46-4,4-5.44l52-30c4.61-2.66,11.63-2.94,15.65-.62L451,252a5.09,5.09,0,0,1,2.92,4.31c0,2-1.46,4-4,5.44l-52,30A18.16,18.16,0,0,1,389.06,294Zm-6.21-2.64c3.68,2.12,10.14,1.84,14.41-.63l52-30c2.14-1.24,3.37-2.83,3.37-4.37a3.9,3.9,0,0,0-2.29-3.23l-54.16-31.27c-3.68-2.12-10.14-1.84-14.41.62l-52,30c-2.14,1.24-3.37,2.83-3.37,4.37a3.9,3.9,0,0,0,2.29,3.23Z"/>
<path class="cls-6" transform="translate(-295.02 -107.04)" d="M383.41,304l-72.75-42c-5.17-3-4.53-8.2,1.45-11.65L382,210a22.91,22.91,0,0,1,9.84-2.79A23.8,23.8,0,0,0,378.7,210l-69.86,40.33c-6,3.45-6.62,8.67-1.45,11.65l72.76,42a18.81,18.81,0,0,0,10.34,1.95A16.7,16.7,0,0,1,383.41,304Z"/>
</g>
<g class="cls-10">
<path class="cls-11" transform="translate(-295.02 -107.04)" d="M475.13,223.2H439.05L398.88,200c-5.17-3-14.21-2.61-20.18.84L340,223.2H303.92v24.22h0c-.15,2,1,4,3.46,5.41l72.76,42c5.17,3,14.21,2.62,20.18-.83l69.86-40.33c3.1-1.79,4.75-4.06,4.91-6.25h0Z"/>
<path class="cls-6" transform="translate(-295.02 -107.04)" d="M306.21,249.09h0V224.87h36.07L381,202.52c6-3.45,15-3.83,20.19-.84l40.16,23.19h33.81V223.2H439.05L398.88,200c-5.17-3-14.21-2.61-20.18.84L340,223.2H303.92v24.22h0c-.15,2,1,4,3.46,5.41l.41.24A5.08,5.08,0,0,1,306.21,249.09Z"/>
<path class="cls-12" transform="translate(-295.02 -107.04)" d="m380.15 270.61-72.76-42c-5.17-3-4.52-8.21 1.45-11.65l69.86-40.33c6-3.45 15-3.83 20.18-0.84l72.75 42c5.18 3 4.53 8.21-1.44 11.66l-69.86 40.33c-5.97 3.44-15.01 3.82-20.18 0.83z"/>
<path class="cls-8" transform="translate(-295.02 -107.04)" d="m471.63 217.79-72.75-42a18.72 18.72 0 0 0-10.18-2 16.87 16.87 0 0 1 7.33 2l72.76 42c5.17 3 4.52 8.21-1.45 11.66l-69.86 40.33a23 23 0 0 1-10 2.8 23.8 23.8 0 0 0 12.84-2.8l69.86-40.33c5.98-3.45 6.63-8.67 1.45-11.66z"/>
<path class="cls-9" transform="translate(-295.02 -107.04)" d="M389.07,260.61a14,14,0,0,1-6.84-1.57l-54.16-31.28a5.07,5.07,0,0,1-2.92-4.3c0-2,1.46-4,4-5.45l52-30c4.61-2.67,11.64-2.94,15.65-.63L451,218.64a5.07,5.07,0,0,1,2.92,4.3c0,2-1.46,4-4,5.45l-52,30A18,18,0,0,1,389.07,260.61ZM390,187a16.89,16.89,0,0,0-8.19,2l-52,30c-2.14,1.24-3.37,2.83-3.37,4.37a3.9,3.9,0,0,0,2.29,3.23L382.85,258c3.68,2.12,10.14,1.84,14.41-.62l52-30c2.14-1.23,3.37-2.83,3.37-4.37a3.91,3.91,0,0,0-2.29-3.23l-54.16-31.27A12.68,12.68,0,0,0,390,187Z"/>
<path class="cls-6" transform="translate(-295.02 -107.04)" d="m383.41 270.61-72.75-42c-5.17-3-4.53-8.21 1.45-11.65l69.89-40.33a22.92 22.92 0 0 1 9.84-2.8 23.72 23.72 0 0 0-13.1 2.8l-69.9 40.37c-6 3.44-6.62 8.66-1.45 11.65l72.76 42a18.9 18.9 0 0 0 10.34 2 16.7 16.7 0 0 1-7.08-2.04z"/>
</g>
<g class="cls-13">
<path class="cls-14" transform="translate(-295.02 -107.04)" d="M475.13,189.83H439.05l-40.17-23.18c-5.17-3-14.21-2.62-20.18.83L340,189.83H303.92v24.23h0c-.15,2,1,4,3.46,5.4l72.76,42c5.17,3,14.21,2.61,20.18-.84l69.86-40.33c3.1-1.79,4.75-4.06,4.91-6.24h0Z"/>
<path class="cls-6" transform="translate(-295.02 -107.04)" d="M306.21,215.73h0V191.5h36.07L381,169.15c6-3.45,15-3.82,20.19-.84l40.16,23.19h33.81v-1.67H439.05l-40.17-23.19c-5.17-3-14.21-2.61-20.18.84L340,189.83H303.92v24.23h0c-.15,2,1,4,3.46,5.4l.41.24A5.06,5.06,0,0,1,306.21,215.73Z"/>
<path class="cls-15" transform="translate(-295.02 -107.04)" d="m380.15 237.25-72.76-42c-5.17-3-4.52-8.2 1.45-11.65l69.86-40.33c6-3.45 15-3.82 20.18-0.84l72.75 42c5.18 3 4.53 8.2-1.44 11.65l-69.86 40.33c-5.97 3.45-15.01 3.82-20.18 0.84z"/>
<path class="cls-8" transform="translate(-295.02 -107.04)" d="m471.63 184.43-72.75-42a18.91 18.91 0 0 0-10.18-2 17 17 0 0 1 7.33 2l72.76 42c5.17 3 4.52 8.2-1.45 11.65l-69.86 40.33a23 23 0 0 1-10 2.8 23.71 23.71 0 0 0 12.84-2.8l69.86-40.33c5.98-3.45 6.63-8.67 1.45-11.65z"/>
<path class="cls-9" transform="translate(-295.02 -107.04)" d="m389.06 227.24a13.87 13.87 0 0 1-6.83-1.57l-54.16-31.27a5.1 5.1 0 0 1-2.92-4.31c0-2 1.46-4 4-5.44l52-30c4.61-2.66 11.63-2.94 15.65-0.62l54.2 31.24a5.08 5.08 0 0 1 2.92 4.31c0 2-1.46 4-4 5.44l-52 30a18.16 18.16 0 0 1-8.86 2.22zm0.9-73.59a16.79 16.79 0 0 0-8.19 2l-52 30c-2.14 1.24-3.37 2.83-3.37 4.37a3.9 3.9 0 0 0 2.29 3.23l54.16 31.27c3.68 2.13 10.14 1.85 14.41-0.62l52-30c2.14-1.24 3.37-2.83 3.37-4.37a3.9 3.9 0 0 0-2.29-3.23l-54.16-31.28a12.79 12.79 0 0 0-6.18-1.37z"/>
<path class="cls-6" transform="translate(-295.02 -107.04)" d="m383.41 237.25-72.75-42c-5.17-3-4.53-8.2 1.45-11.65l69.89-40.34a22.91 22.91 0 0 1 9.84-2.79 23.72 23.72 0 0 0-13.1 2.79l-69.86 40.33c-6 3.45-6.62 8.66-1.45 11.65l72.76 42a18.81 18.81 0 0 0 10.34 1.95 16.7 16.7 0 0 1-7.12-1.94z"/>
</g>
<path class="cls-16" transform="translate(-295.02 -107.04)" d="M475.13,156.47H439.05l-40.17-23.19c-5.17-3-14.21-2.61-20.18.84L340,156.47H303.92v24.22h0c-.15,2,1,4,3.46,5.41l72.76,42c5.17,3,14.21,2.61,20.18-.83l69.86-40.33c3.1-1.8,4.75-4.06,4.91-6.25h0Z"/>
<path class="cls-6" transform="translate(-295.02 -107.04)" d="M306.21,182.36h0V158.14h36.07L381,135.79c6-3.45,15-3.83,20.19-.84l40.16,23.19h33.81v-1.67H439.05l-40.17-23.19c-5.17-3-14.21-2.61-20.18.84L340,156.47H303.92v24.22h0c-.15,2,1,4,3.46,5.41l.41.23A5.06,5.06,0,0,1,306.21,182.36Z"/>
<path class="cls-17" transform="translate(-295.02 -107.04)" d="m380.15 203.88-72.76-42c-5.17-3-4.52-8.21 1.45-11.66l69.86-40.33c6-3.45 15-3.82 20.18-0.83l72.75 42c5.18 3 4.53 8.21-1.44 11.65l-69.86 40.29c-5.97 3.49-15.01 3.87-20.18 0.88z"/>
<path class="cls-8" transform="translate(-295.02 -107.04)" d="m471.63 151.06-72.75-42a18.72 18.72 0 0 0-10.18-2 16.87 16.87 0 0 1 7.33 2l72.76 42c5.17 3 4.52 8.21-1.45 11.65l-69.86 40.29a22.89 22.89 0 0 1-10 2.81 23.71 23.71 0 0 0 12.85-2.81l69.86-40.33c5.97-3.4 6.62-8.62 1.44-11.61z"/>
<path class="cls-18" transform="translate(-295.02 -107.04)" d="M389.06,193.63a13.66,13.66,0,0,1-6.71-1.54l-54.16-31.27a4.84,4.84,0,0,1-2.79-4.09c0-1.91,1.41-3.82,3.87-5.24l52-30c4.55-2.62,11.46-2.9,15.4-.62l54.17,31.27a4.84,4.84,0,0,1,2.79,4.09c0,1.91-1.41,3.81-3.87,5.23l-52,30A17.86,17.86,0,0,1,389.06,193.63ZM390,120a17.13,17.13,0,0,0-8.31,2.08l-52,30c-2.22,1.28-3.49,3-3.49,4.59a4.14,4.14,0,0,0,2.41,3.44l54.17,31.27c3.74,2.16,10.31,1.88,14.65-.62l52-30c2.22-1.28,3.49-2.95,3.49-4.58a4.14,4.14,0,0,0-2.41-3.44L396.3,121.5A12.89,12.89,0,0,0,390,120Z"/>
<path class="cls-19" transform="translate(-295.02 -107.04)" d="m383.41 203.88-72.75-42c-5.17-3-4.53-8.21 1.45-11.66l69.89-40.33a23.05 23.05 0 0 1 9.84-2.79 23.8 23.8 0 0 0-13.1 2.79l-69.86 40.33c-6 3.45-6.62 8.67-1.45 11.66l72.76 42a18.9 18.9 0 0 0 10.34 2 16.7 16.7 0 0 1-7.12-2z"/>
<path class="cls-20" transform="translate(-295.02 -107.04)" d="m402.41 217.37 61.59-35.6a2.46 2.46 0 0 0 1-2v-2.91c0-0.75-0.46-1.1-1-0.77l-61.54 35.6a2.4 2.4 0 0 0-1 1.94v2.92c-0.07 0.8 0.38 1.14 0.95 0.82z"/>
<path class="cls-21" transform="translate(-295.02 -107.04)" d="M462.6,181a2.44,2.44,0,0,0,1-1.95v-2.72l.33-.19c.56-.33,1,0,1,.77v2.91a2.46,2.46,0,0,1-1,2l-61.54,35.6c-.57.32-1,0-1-.77v-.19Z"/>
<path class="cls-20" transform="translate(-295.02 -107.04)" d="m377.07 217.37-61.54-35.6a2.44 2.44 0 0 1-1-2v-2.91c0-0.75 0.45-1.1 1-0.77l61.54 35.6a2.43 2.43 0 0 1 1 1.94v2.92c0.02 0.8-0.44 1.14-1 0.82z"/>
<path class="cls-21" transform="translate(-295.02 -107.04)" d="M316.87,181a2.46,2.46,0,0,1-1-1.95v-2.72l-.32-.19c-.57-.33-1,0-1,.77v2.91a2.44,2.44,0,0,0,1,2l61.54,35.6c.56.32,1,0,1-.77v-.19Z"/>
<path class="cls-17" transform="translate(-295.02 -107.04)" d="m380.15 203.88-72.76-42c-5.17-3-4.52-8.21 1.45-11.66l69.86-40.33c6-3.45 15-3.82 20.18-0.83l72.75 42c5.18 3 4.53 8.21-1.44 11.65l-69.86 40.29c-5.97 3.49-15.01 3.87-20.18 0.88z"/>
<path class="cls-20" transform="translate(-295.02 -107.04)" d="m383.94 184.67-43.27-25c-3.07-1.77-2.69-4.87 0.87-6.93l41.54-24c3.55-2.05 8.93-2.28 12-0.5l43.27 25c3.08 1.78 2.7 4.88-0.86 6.93l-41.54 24c-3.55 2.05-8.95 2.27-12.01 0.5z"/>
<path class="cls-22" transform="translate(-295.02 -107.04)" d="M389,196.33a14.74,14.74,0,0,1-7.23-1.66l-58-33.46c-1.95-1.13-3-2.72-3-4.47,0-2.07,1.53-4.14,4.19-5.68l55.65-32.13c4.89-2.82,12.32-3.12,16.58-.66l58,33.46c1.95,1.13,3,2.71,3,4.46,0,2.08-1.53,4.15-4.19,5.69L398.38,194A19.2,19.2,0,0,1,389,196.33Zm1-78.74a18.17,18.17,0,0,0-8.84,2.21L325.5,151.93c-2.35,1.35-3.69,3.11-3.69,4.81a4.33,4.33,0,0,0,2.53,3.6l58,33.47c4,2.29,11,2,15.58-.67L453.53,161c2.34-1.35,3.69-3.11,3.69-4.82,0-1.37-.9-2.65-2.53-3.6l-58-33.46A13.73,13.73,0,0,0,390,117.59Z"/>
<path class="cls-23" transform="translate(-295.02 -107.04)" d="M340.36,159.46a7.63,7.63,0,0,1,1.18-.81l41.54-24c3.55-2,8.93-2.27,12-.5l43.27,25c.13.07.21.15.32.22,2.42-2,2.38-4.56-.32-6.12l-43.27-25c-3.07-1.78-8.45-1.55-12,.5l-41.54,24C338.12,154.72,337.67,157.65,340.36,159.46Z"/>
<path class="cls-24" transform="translate(-295.02 -107.04)" d="m319.09 248.67v-2.4c0-1.24 1-1.67 2.25-1l48.57 28a4.65 4.65 0 0 1 2.24 3.54v2.4c0 1.24-1 1.67-2.24 1l-48.57-28a4.69 4.69 0 0 1-2.25-3.54z"/>
<g class="cls-25">
<polygon class="cls-26" points="2.45 158.38 37.66 138.04 85.47 165.62 50.26 185.96"/>
<polygon class="cls-27" points="2.48 154.86 37.69 134.51 85.49 162.09 50.28 182.44"/>
<polygon class="cls-26" points="85.47 165.62 85.49 162.09 50.28 182.44 50.26 185.96"/>
<polygon class="cls-26" points="37.66 138.04 37.69 134.51 2.48 154.86 2.45 158.38"/>
<path class="cls-28" transform="translate(-295.02 -107.04)" d="M347.53,295.21l2-1.12h0A1.23,1.23,0,0,0,350,293v-2.4a4.67,4.67,0,0,0-2.25-3.54L299.2,259a1.71,1.71,0,0,0-1.68-.2h0l-1.88,1.07,1.33.34v2.15a4.65,4.65,0,0,0,2.24,3.54l48.57,28h0Z"/>
<path class="cls-20" transform="translate(-295.02 -107.04)" d="M350,290.55V293a1.3,1.3,0,0,1-.38,1,1.74,1.74,0,0,0,.11-.6v-2.44a4.72,4.72,0,0,0-2.29-3.61l-49.53-28.58-.09,0a2,2,0,0,1,1.37.31l48.57,28A4.67,4.67,0,0,1,350,290.55Z"/>
<path class="cls-29" transform="translate(-295.02 -107.04)" d="M295,263.44V261c0-1.24,1-1.67,2.25-1l48.57,28a4.65,4.65,0,0,1,2.24,3.54v2.4c0,1.24-1,1.66-2.24.95l-48.57-28A4.67,4.67,0,0,1,295,263.44Z"/>
<polygon class="cls-30" points="49.44 148.99 49.45 153.31 54.19 156.04 54.19 151.72"/>
<polygon class="cls-30" points="47.06 147.61 42.02 144.71 42.02 149.03 47.06 151.93"/>
<polygon class="cls-30" points="55.94 170.92 52.03 168.66 50.73 169.41 54.64 171.67"/>
<polygon class="cls-30" points="55.01 166.94 53.72 167.69 57.62 169.94 58.92 169.19"/>
<polygon class="cls-30" points="32.94 162.09 21.92 155.73 37.54 146.7 37.54 142.19 14.27 155.64 32.94 166.41"/>
<polygon class="cls-30" points="58.21 158.37 64.04 161.73 56.7 165.97 60.6 168.22 71.68 161.82 58.21 154.04"/>
<polygon class="cls-30" points="37.55 169.06 37.54 164.74 35.32 163.46 35.33 167.78"/>
<polygon class="cls-30" points="49.05 170.39 48.19 170.88 42.03 167.33 42.03 171.65 48.35 175.3 52.95 172.64"/>
<polygon class="cls-30" points="54.84 161.6 57.45 160.09 60.06 161.6 57.45 163.1"/>
<polygon class="cls-30" points="50.3 164.22 52.91 162.72 55.52 164.22 52.91 165.73"/>
<polygon class="cls-30" points="46.24 161.88 48.85 160.38 51.46 161.88 48.85 163.39"/>
<polygon class="cls-30" points="26.49 155.73 29.1 154.23 31.71 155.73 29.1 157.24"/>
<polygon class="cls-30" points="50.79 159.26 53.4 157.75 56.01 159.26 53.4 160.76"/>
<polygon class="cls-30" points="45.76 166.85 48.37 165.34 50.98 166.85 48.37 168.35"/>
<path class="cls-31" transform="translate(-295.02 -107.04)" d="M369.58,279l.06-3.55-47.82-27.58,1.95-1.12,17.32,7.43L373.82,273s-1.23,4-1.28,3.94-.39.52-.39.52Z"/>
</g>
<path class="cls-24" transform="translate(-295.02 -107.04)" d="m319.09 215.78v-2.4c0-1.24 1-1.67 2.25-0.95l48.57 28a4.64 4.64 0 0 1 2.24 3.54v2.4c0 1.24-1 1.66-2.24 1l-48.57-28a4.69 4.69 0 0 1-2.25-3.59z"/>
<g class="cls-32">
<polygon class="cls-26" points="2.45 125.49 37.66 105.15 85.47 132.73 50.26 153.07"/>
<polygon class="cls-27" points="2.48 121.97 37.69 101.62 85.49 129.2 50.28 149.54"/>
<polygon class="cls-26" points="85.47 132.73 85.49 129.2 50.28 149.54 50.26 153.07"/>
<polygon class="cls-26" points="37.66 105.15 37.69 101.62 2.48 121.97 2.45 125.49"/>
<path class="cls-33" transform="translate(-295.02 -107.04)" d="m347.53 262.31 2-1.11a1.21 1.21 0 0 0 0.55-1.13v-2.4a4.65 4.65 0 0 0-2.25-3.54l-48.57-28a1.71 1.71 0 0 0-1.68-0.2l-1.95 1.07 1.33 0.33v2.16a4.65 4.65 0 0 0 2.24 3.51l48.57 28z"/>
<path class="cls-20" transform="translate(-295.02 -107.04)" d="M350,257.66v2.4a1.32,1.32,0,0,1-.38,1,1.74,1.74,0,0,0,.11-.6V258a4.72,4.72,0,0,0-2.29-3.61l-49.53-28.58-.09,0a2,2,0,0,1,1.37.31l48.57,28A4.65,4.65,0,0,1,350,257.66Z"/>
<path class="cls-34" transform="translate(-295.02 -107.04)" d="M295,230.55v-2.4c0-1.24,1-1.67,2.25-1l48.57,28a4.64,4.64,0,0,1,2.24,3.54v2.4c0,1.24-1,1.66-2.24.95l-48.57-28A4.67,4.67,0,0,1,295,230.55Z"/>
<polygon class="cls-30" points="49.44 116.1 49.45 120.42 54.19 123.15 54.19 118.83"/>
<polygon class="cls-30" points="47.06 114.72 42.02 111.81 42.02 116.14 47.06 119.04"/>
<polygon class="cls-30" points="55.94 138.03 52.03 135.77 50.73 136.52 54.64 138.77"/>
<polygon class="cls-30" points="55.01 134.05 53.72 134.8 57.62 137.05 58.92 136.3"/>
<polygon class="cls-30" points="32.94 129.19 21.92 122.84 37.54 113.81 37.54 109.3 14.27 122.74 32.94 133.51"/>
<polygon class="cls-30" points="58.21 125.47 64.04 128.84 56.7 133.08 60.6 135.33 71.68 128.93 58.21 121.15"/>
<polygon class="cls-30" points="37.55 136.17 37.54 131.85 35.32 130.57 35.33 134.89"/>
<polygon class="cls-30" points="49.05 137.49 48.19 137.99 42.03 134.44 42.03 138.76 48.35 142.41 52.95 139.75"/>
<polygon class="cls-30" points="54.84 128.71 57.45 127.2 60.06 128.71 57.45 130.21"/>
<polygon class="cls-30" points="50.3 131.33 52.91 129.82 55.52 131.33 52.91 132.84"/>
<polygon class="cls-30" points="46.24 128.99 48.85 127.48 51.46 128.99 48.85 130.5"/>
<polygon class="cls-30" points="26.49 122.84 29.1 121.33 31.71 122.84 29.1 124.35"/>
<polygon class="cls-30" points="50.79 126.36 53.4 124.86 56.01 126.36 53.4 127.87"/>
<polygon class="cls-30" points="45.76 133.96 48.37 132.45 50.98 133.96 48.37 135.46"/>
<path class="cls-31" transform="translate(-295.02 -107.04)" d="M369.58,246.07l.06-3.54-47.82-27.59,1.95-1.11,17.32,7.42,32.73,18.88s-1.23,4-1.28,3.94-.39.52-.39.52Z"/>
</g>
<path class="cls-24" transform="translate(-295.02 -107.04)" d="m462.6 248.67v-2.4c0-1.24-1-1.67-2.24-1l-48.57 28a4.67 4.67 0 0 0-2.25 3.54v2.4c0 1.24 1 1.67 2.25 1l48.57-28a4.65 4.65 0 0 0 2.24-3.54z"/>
<g class="cls-35">
<polygon class="cls-26" points="189.2 158.38 153.99 138.04 106.18 165.62 141.39 185.96"/>
<polygon class="cls-27" points="189.17 154.86 153.96 134.51 106.16 162.09 141.37 182.44"/>
<polygon class="cls-26" points="106.18 165.62 106.16 162.09 141.37 182.44 141.39 185.96"/>
<polygon class="cls-26" points="153.99 138.04 153.96 134.51 189.17 154.86 189.2 158.38"/>
<path class="cls-36" transform="translate(-295.02 -107.04)" d="m434.16 295.21-2-1.12a1.25 1.25 0 0 1-0.54-1.14v-2.4a4.67 4.67 0 0 1 2.25-3.54l48.57-28a1.71 1.71 0 0 1 1.68-0.2l1.89 1.07-1.33 0.34v2.15a4.67 4.67 0 0 1-2.25 3.54l-48.57 28z"/>
<path class="cls-20" transform="translate(-295.02 -107.04)" d="M431.68,290.55V293a1.3,1.3,0,0,0,.38,1,1.74,1.74,0,0,1-.11-.6v-2.44a4.75,4.75,0,0,1,2.29-3.61l49.54-28.58.08,0a2,2,0,0,0-1.36.31l-48.57,28A4.67,4.67,0,0,0,431.68,290.55Z"/>
<path class="cls-37" transform="translate(-295.02 -107.04)" d="m486.67 263.44v-2.44c0-1.24-1-1.67-2.24-1l-48.57 28a4.67 4.67 0 0 0-2.25 3.54v2.4c0 1.24 1 1.66 2.25 0.95l48.57-28a4.65 4.65 0 0 0 2.24-3.45z"/>
<polygon class="cls-30" points="142.21 148.99 142.21 153.31 137.46 156.04 137.47 151.72"/>
<polygon class="cls-30" points="144.59 147.61 149.63 144.71 149.63 149.03 144.59 151.93"/>
<polygon class="cls-30" points="135.72 170.92 139.62 168.66 140.92 169.41 137.01 171.67"/>
<polygon class="cls-30" points="136.64 166.94 137.94 167.69 134.03 169.94 132.73 169.19"/>
<polygon class="cls-30" points="158.71 162.09 169.73 155.73 154.11 146.7 154.11 142.19 177.38 155.64 158.71 166.41"/>
<polygon class="cls-30" points="133.44 158.37 127.61 161.73 134.95 165.97 131.05 168.22 119.97 161.82 133.44 154.04"/>
<polygon class="cls-30" points="154.11 169.06 154.11 164.74 156.33 163.46 156.33 167.78"/>
<polygon class="cls-30" points="142.6 170.39 143.46 170.88 149.62 167.33 149.62 171.65 143.3 175.3 138.7 172.64"/>
<polygon class="cls-30" points="136.81 161.6 134.2 160.09 131.59 161.6 134.2 163.1"/>
<polygon class="cls-30" points="141.35 164.22 138.74 162.72 136.13 164.22 138.74 165.73"/>
<polygon class="cls-30" points="145.41 161.88 142.8 160.38 140.19 161.88 142.8 163.39"/>
<polygon class="cls-30" points="165.16 155.73 162.55 154.23 159.94 155.73 162.55 157.24"/>
<polygon class="cls-30" points="140.87 159.26 138.26 157.75 135.65 159.26 138.25 160.76"/>
<polygon class="cls-30" points="145.89 166.85 143.28 165.34 140.67 166.85 143.28 168.35"/>
<path class="cls-31" transform="translate(-295.02 -107.04)" d="M412.12,279l-.06-3.55,47.81-27.58-1.94-1.12-17.33,7.43L407.88,273s1.23,4,1.28,3.94.38.52.38.52Z"/>
</g>
<path class="cls-24" transform="translate(-295.02 -107.04)" d="m462.6 215.78v-2.4c0-1.24-1-1.67-2.24-0.95l-48.57 28a4.65 4.65 0 0 0-2.25 3.54v2.4c0 1.24 1 1.66 2.25 1l48.57-28a4.65 4.65 0 0 0 2.24-3.59z"/>
<g class="cls-38">
<polygon class="cls-26" points="189.2 125.49 153.99 105.15 106.18 132.73 141.39 153.07"/>
<polygon class="cls-27" points="189.17 121.97 153.96 101.62 106.16 129.2 141.37 149.54"/>
<polygon class="cls-26" points="106.18 132.73 106.16 129.2 141.37 149.54 141.39 153.07"/>
<polygon class="cls-26" points="153.99 105.15 153.96 101.62 189.17 121.97 189.2 125.49"/>
<path class="cls-39" transform="translate(-295.02 -107.04)" d="m434.16 262.31-2-1.11a1.23 1.23 0 0 1-0.54-1.13v-2.4a4.65 4.65 0 0 1 2.25-3.54l48.57-28a1.71 1.71 0 0 1 1.68-0.2l1.89 1.07-1.33 0.33v2.16a4.67 4.67 0 0 1-2.25 3.54l-48.57 28z"/>
<path class="cls-20" transform="translate(-295.02 -107.04)" d="M431.68,257.66v2.4a1.32,1.32,0,0,0,.38,1,1.74,1.74,0,0,1-.11-.6V258a4.75,4.75,0,0,1,2.29-3.61l49.54-28.58.08,0a2,2,0,0,0-1.36.31l-48.57,28A4.65,4.65,0,0,0,431.68,257.66Z"/>
<path class="cls-40" transform="translate(-295.02 -107.04)" d="m486.67 230.55v-2.4c0-1.24-1-1.67-2.24-1l-48.57 28a4.65 4.65 0 0 0-2.25 3.54v2.4c0 1.24 1 1.66 2.25 0.95l48.57-28a4.65 4.65 0 0 0 2.24-3.49z"/>
<polygon class="cls-30" points="142.21 116.1 142.21 120.42 137.46 123.15 137.47 118.83"/>
<polygon class="cls-30" points="144.59 114.72 149.63 111.81 149.63 116.14 144.59 119.04"/>
<polygon class="cls-30" points="135.72 138.03 139.62 135.77 140.92 136.52 137.01 138.77"/>
<polygon class="cls-30" points="136.64 134.05 137.94 134.8 134.03 137.05 132.73 136.3"/>
<polygon class="cls-30" points="158.71 129.19 169.73 122.84 154.11 113.81 154.11 109.3 177.38 122.74 158.71 133.51"/>
<polygon class="cls-30" points="133.44 125.47 127.61 128.84 134.95 133.08 131.05 135.33 119.97 128.93 133.44 121.15"/>
<polygon class="cls-30" points="154.11 136.17 154.11 131.85 156.33 130.57 156.33 134.89"/>
<polygon class="cls-30" points="142.6 137.49 143.46 137.99 149.62 134.44 149.62 138.76 143.3 142.41 138.7 139.75"/>
<polygon class="cls-30" points="136.81 128.71 134.2 127.2 131.59 128.71 134.2 130.21"/>
<polygon class="cls-30" points="141.35 131.33 138.74 129.82 136.13 131.33 138.74 132.84"/>
<polygon class="cls-30" points="145.41 128.99 142.8 127.48 140.19 128.99 142.8 130.5"/>
<polygon class="cls-30" points="165.16 122.84 162.55 121.33 159.94 122.84 162.55 124.35"/>
<polygon class="cls-30" points="140.87 126.36 138.26 124.86 135.65 126.36 138.25 127.87"/>
<polygon class="cls-30" points="145.89 133.96 143.28 132.45 140.67 133.96 143.28 135.46"/>
<path class="cls-31" transform="translate(-295.02 -107.04)" d="M412.12,246.07l-.06-3.54,47.81-27.59-1.94-1.11-17.33,7.42-32.72,18.88s1.23,4,1.28,3.94.38.52.38.52Z"/>
</g>
<g class="cls-4">
<polygon class="cls-41" points="94.57 31.36 92.09 29.93 94.57 28.5 97.05 29.93"/>
<polygon class="cls-42" points="99.53 34.22 97.05 32.79 99.53 31.36 102 32.79"/>
<polygon class="cls-43" points="104.48 37.09 102 35.66 104.48 34.22 106.96 35.66"/>
<polygon class="cls-41" points="109.44 39.95 106.96 38.52 109.44 37.09 111.91 38.52"/>
<polygon class="cls-43" points="114.39 42.81 111.91 41.38 114.39 39.95 116.87 41.38"/>
<polygon class="cls-41" points="119.35 45.67 116.87 44.24 119.35 42.81 121.82 44.24"/>
<polygon class="cls-41" points="124.3 48.53 121.82 47.1 124.3 45.67 126.78 47.1"/>
<polygon class="cls-41" points="129.26 51.39 126.78 49.96 129.26 48.53 131.73 49.96"/>
<polygon class="cls-42" points="134.21 54.25 131.73 52.82 134.21 51.39 136.69 52.82"/>
<polygon class="cls-41" points="89.6 34.24 87.12 32.8 89.6 31.38 92.07 32.81"/>
<polygon class="cls-41" points="94.55 37.1 92.07 35.67 94.55 34.24 97.03 35.67"/>
<polygon class="cls-41" points="99.51 39.96 97.03 38.53 99.51 37.1 101.98 38.53"/>
<polygon class="cls-41" points="104.46 42.82 101.98 41.39 104.46 39.96 106.94 41.39"/>
<polygon class="cls-41" points="109.42 45.68 106.94 44.25 109.42 42.82 111.89 44.25"/>
<polygon class="cls-41" points="114.37 48.54 111.89 47.11 114.37 45.68 116.85 47.11"/>
<polygon class="cls-41" points="119.33 51.4 116.85 49.97 119.33 48.54 121.8 49.97"/>
<polygon class="cls-41" points="124.28 54.26 121.8 52.83 124.28 51.4 126.76 52.83"/>
<polygon class="cls-41" points="129.24 57.12 126.76 55.69 129.24 54.26 131.71 55.69"/>
<polygon class="cls-41" points="84.62 37.11 82.14 35.68 84.62 34.25 87.1 35.68"/>
<polygon class="cls-41" points="89.58 39.97 87.1 38.54 89.58 37.11 92.05 38.54"/>
<polygon class="cls-41" points="94.53 42.83 92.05 41.4 94.53 39.97 97.01 41.4"/>
<polygon class="cls-42" points="99.49 45.69 97.01 44.26 99.49 42.83 101.96 44.26"/>
<polygon class="cls-43" points="104.44 48.55 101.96 47.12 104.44 45.69 106.92 47.12"/>
<polygon class="cls-43" points="109.4 51.41 106.92 49.98 109.4 48.55 111.87 49.98"/>
<polygon class="cls-41" points="114.35 54.27 111.87 52.84 114.35 51.41 116.83 52.84"/>
<polygon class="cls-41" points="119.31 57.13 116.83 55.7 119.31 54.27 121.78 55.7"/>
<polygon class="cls-41" points="124.26 59.99 121.78 58.56 124.26 57.13 126.74 58.56"/>
<polygon class="cls-43" points="79.65 39.98 77.17 38.55 79.65 37.12 82.12 38.55"/>
<polygon class="cls-43" points="84.6 42.84 82.12 41.41 84.6 39.98 87.08 41.41"/>
<polygon class="cls-42" points="89.56 45.7 87.08 44.27 89.56 42.84 92.03 44.27"/>
<polygon class="cls-41" points="94.51 48.56 92.03 47.13 94.51 45.7 96.99 47.13"/>
<polygon class="cls-41" points="99.47 51.42 96.99 49.99 99.47 48.56 101.94 49.99"/>
<polygon class="cls-41" points="104.42 54.28 101.94 52.85 104.42 51.42 106.9 52.85"/>
<polygon class="cls-43" points="109.38 57.15 106.9 55.71 109.38 54.28 111.85 55.71"/>
<polygon class="cls-41" points="114.33 60.01 111.85 58.58 114.33 57.15 116.81 58.58"/>
<polygon class="cls-41" points="119.29 62.87 116.81 61.44 119.29 60.01 121.76 61.44"/>
<polygon class="cls-41" points="74.67 42.85 72.19 41.42 74.67 39.99 77.15 41.42"/>
<polygon class="cls-41" points="79.63 45.71 77.15 44.28 79.63 42.85 82.1 44.28"/>
<polygon class="cls-41" points="84.58 48.57 82.1 47.14 84.58 45.71 87.06 47.14"/>
<polygon class="cls-41" points="89.54 51.44 87.06 50.01 89.54 48.57 92.01 50.01"/>
<polygon class="cls-41" points="94.49 54.3 92.01 52.87 94.49 51.44 96.97 52.87"/>
<polygon class="cls-41" points="99.45 57.16 96.97 55.73 99.45 54.3 101.92 55.73"/>
<polygon class="cls-41" points="104.4 60.02 101.92 58.59 104.4 57.16 106.88 58.59"/>
<polygon class="cls-41" points="109.36 62.88 106.88 61.45 109.36 60.02 111.83 61.45"/>
<polygon class="cls-41" points="114.31 65.74 111.83 64.31 114.31 62.88 116.79 64.31"/>
<polygon class="cls-41" points="69.7 45.73 67.22 44.3 69.7 42.86 72.17 44.3"/>
<polygon class="cls-41" points="74.65 48.59 72.17 47.16 74.65 45.73 77.13 47.16"/>
<polygon class="cls-43" points="79.61 51.45 77.13 50.02 79.61 48.59 82.08 50.02"/>
<polygon class="cls-41" points="84.56 54.31 82.08 52.88 84.56 51.45 87.04 52.88"/>
<polygon class="cls-42" points="89.52 57.17 87.04 55.74 89.52 54.31 91.99 55.74"/>
<polygon class="cls-41" points="94.47 60.03 91.99 58.6 94.47 57.17 96.95 58.6"/>
<polygon class="cls-41" points="99.43 62.89 96.95 61.46 99.43 60.03 101.9 61.46"/>
<polygon class="cls-41" points="104.38 65.75 101.9 64.32 104.38 62.89 106.86 64.32"/>
<polygon class="cls-41" points="109.34 68.61 106.86 67.18 109.34 65.75 111.81 67.18"/>
<polygon class="cls-41" points="64.72 48.6 62.24 47.17 64.72 45.74 67.2 47.17"/>
<polygon class="cls-41" points="69.68 51.46 67.2 50.03 69.68 48.6 72.15 50.03"/>
<polygon class="cls-43" points="74.63 54.32 72.15 52.89 74.63 51.46 77.11 52.89"/>
<polygon class="cls-41" points="79.59 57.18 77.11 55.75 79.59 54.32 82.06 55.75"/>
<polygon class="cls-41" points="84.54 60.04 82.06 58.61 84.54 57.18 87.02 58.61"/>
<polygon class="cls-42" points="89.5 62.9 87.02 61.47 89.5 60.04 91.97 61.47"/>
<polygon class="cls-43" points="94.45 65.76 91.97 64.33 94.45 62.9 96.93 64.33"/>
<polygon class="cls-41" points="99.41 68.62 96.93 67.19 99.41 65.76 101.88 67.19"/>
<polygon class="cls-42" points="104.36 71.48 101.88 70.05 104.36 68.62 106.84 70.05"/>
<polygon class="cls-41" points="59.75 51.47 57.27 50.04 59.75 48.61 62.23 50.04"/>
<polygon class="cls-43" points="64.7 54.33 62.23 52.9 64.7 51.47 67.18 52.9"/>
<polygon class="cls-41" points="69.66 57.19 67.18 55.76 69.66 54.33 72.13 55.76"/>
<polygon class="cls-41" points="74.61 60.05 72.13 58.62 74.61 57.19 77.09 58.62"/>
<polygon class="cls-41" points="79.57 62.91 77.09 61.48 79.57 60.05 82.04 61.48"/>
<polygon class="cls-41" points="84.52 65.77 82.04 64.34 84.52 62.91 87 64.34"/>
<polygon class="cls-41" points="89.48 68.63 87 67.2 89.48 65.77 91.95 67.2"/>
<polygon class="cls-43" points="94.43 71.5 91.95 70.06 94.43 68.63 96.91 70.06"/>
<polygon class="cls-41" points="99.39 74.36 96.91 72.92 99.39 71.5 101.86 72.92"/>
<polygon class="cls-41" points="54.77 54.34 52.3 52.91 54.77 51.48 57.25 52.91"/>
<polygon class="cls-42" points="59.73 57.2 57.25 55.77 59.73 54.34 62.2 55.77"/>
<polygon class="cls-41" points="64.68 60.06 62.2 58.63 64.68 57.2 67.16 58.63"/>
<polygon class="cls-41" points="69.64 62.92 67.16 61.49 69.64 60.06 72.11 61.49"/>
<polygon class="cls-41" points="74.59 65.78 72.11 64.35 74.59 62.92 77.07 64.35"/>
<polygon class="cls-41" points="79.55 68.65 77.07 67.22 79.55 65.78 82.02 67.22"/>
<polygon class="cls-43" points="84.5 71.51 82.02 70.08 84.5 68.65 86.98 70.08"/>
<polygon class="cls-41" points="89.46 74.37 86.98 72.94 89.46 71.51 91.93 72.94"/>
<polygon class="cls-41" points="94.41 77.23 91.93 75.8 94.41 74.37 96.89 75.8"/>
</g>
</svg>
