<?xml version="1.0" encoding="UTF-8"?>
<svg data-name="—ÎÓÈ_1" viewBox="0 0 303.04 309.37" xmlns="http://www.w3.org/2000/svg" xmlns:xlink="http://www.w3.org/1999/xlink">
<defs>
<style>.cls-1{opacity:0.5;}.cls-2,.cls-3{fill:#6ee8fc;}.cls-2{opacity:0.3;}.cls-4{fill:#fff;}.cls-5{fill:#0c0f38;opacity:0.6;}.cls-6{fill:url(#c);}.cls-7{fill:url(#a);}.cls-8{fill:url(#o);}.cls-9{fill:#d4088c;}.cls-10{fill:url(#b);}.cls-11{fill:url(#d);}.cls-12{fill:url(#ab);}.cls-13{fill:url(#ay);}.cls-14{fill:#480689;}.cls-15{fill:#6de0f6;}.cls-16{fill:#267fe5;}.cls-17{fill:url(#n);}.cls-18{fill:url(#v);}.cls-19{fill:url(#as);}.cls-20{fill:url(#u);}.cls-21{fill:url(#ar);}.cls-22{fill:url(#t);}.cls-23{fill:url(#aq);}.cls-24{fill:url(#s);}.cls-25{fill:url(#ap);}.cls-26{fill:url(#r);}.cls-27{fill:url(#ao);}.cls-28{fill:url(#f);}.cls-29{fill:url(#q);}.cls-30{fill:url(#an);}.cls-31{fill:url(#m);}.cls-32{fill:url(#p);}.cls-33{fill:url(#am);}.cls-34{fill:url(#al);}.cls-35{fill:url(#bi);}.cls-36{fill:url(#ak);}.cls-37{fill:url(#bh);}.cls-38{fill:url(#aj);}.cls-39{fill:url(#bg);}.cls-40{fill:url(#ai);}.cls-41{fill:url(#bf);}.cls-42{fill:url(#e);}.cls-43{fill:url(#ah);}.cls-44{fill:url(#be);}.cls-45{fill:url(#l);}.cls-46{fill:url(#ag);}.cls-47{fill:url(#bd);}.cls-48{fill:url(#af);}.cls-49{fill:url(#bc);}.cls-50{fill:url(#ae);}.cls-51{fill:url(#bb);}.cls-52{fill:url(#ad);}.cls-53{fill:url(#ba);}.cls-54{fill:url(#ac);}.cls-55{fill:url(#az);}.cls-56{fill:url(#bn);}.cls-57{fill:url(#aa);}.cls-58{fill:url(#k);}.cls-59{fill:url(#ax);}.cls-60{fill:url(#bm);}.cls-61{fill:url(#z);}.cls-62{fill:url(#j);}.cls-63{fill:url(#aw);}.cls-64{fill:url(#bl);}.cls-65{fill:url(#y);}.cls-66{fill:url(#i);}.cls-67{fill:url(#av);}.cls-68{fill:url(#bk);}.cls-69{fill:url(#x);}.cls-70{fill:url(#h);}.cls-71{fill:url(#au);}.cls-72{fill:url(#bj);}.cls-73{fill:url(#w);}.cls-74{fill:url(#g);}.cls-75{fill:url(#at);}</style>
<linearGradient id="c" x1="349.61" x2="382.21" y1="172.84" y2="172.84" gradientUnits="userSpaceOnUse">
<stop stop-color="#d4088c" offset="0"/>
<stop stop-color="#d4088c" offset=".23"/>
<stop stop-color="#6ee1f8" offset=".51"/>
<stop stop-color="#6ee8fc" offset=".78"/>
<stop stop-color="#6ee8fc" offset="1"/>
</linearGradient>
<linearGradient id="a" x1="350.26" x2="382.33" y1="167.34" y2="167.34" gradientUnits="userSpaceOnUse">
<stop stop-color="#a31fa9" offset="0"/>
<stop stop-color="#8b17a0" offset=".07"/>
<stop stop-color="#740f98" offset=".15"/>
<stop stop-color="#640a92" offset=".24"/>
<stop stop-color="#5b078f" offset=".34"/>
<stop stop-color="#58068e" offset=".48"/>
<stop stop-color="#4d22a3" offset=".63"/>
<stop stop-color="#3168da" offset=".94"/>
<stop stop-color="#2c75e4" offset="1"/>
</linearGradient>
<linearGradient id="o" x1="350.26" x2="382.33" y1="170.89" y2="170.89" xlink:href="#c"/>
<linearGradient id="b" x1="580.56" x2="595.67" y1="675.22" y2="662.13" gradientTransform="matrix(.87 .5 -1 .58 525 -518.49)" gradientUnits="userSpaceOnUse">
<stop stop-color="#8d139b" offset="0"/>
<stop stop-color="#851ba1" offset=".17"/>
<stop stop-color="#6e33b2" offset=".43"/>
<stop stop-color="#4958cd" offset=".76"/>
<stop stop-color="#2979e4" offset="1"/>
</linearGradient>
<linearGradient id="d" x1="454.85" x2="462.78" y1="209.19" y2="259.21" gradientUnits="userSpaceOnUse">
<stop stop-color="#6ee8fc" offset="0"/>
<stop stop-color="#6ee8fc" offset=".22"/>
<stop stop-color="#6ee1f8" offset=".49"/>
<stop stop-color="#d4088c" offset=".77"/>
<stop stop-color="#d4088c" offset="1"/>
</linearGradient>
<linearGradient id="ab" x1="414.83" x2="504.96" y1="226.26" y2="226.26" xlink:href="#a"/>
<linearGradient id="ay" x1="674.34" x2="716.86" y1="687.76" y2="650.94" xlink:href="#b"/>
<linearGradient id="n" x1="414.83" x2="504.96" y1="236.57" y2="236.57" xlink:href="#c"/>
<linearGradient id="v" x1="414.83" x2="504.96" y1="207.28" y2="207.28" xlink:href="#a"/>
<linearGradient id="as" x1="655.37" x2="697.88" y1="671.33" y2="634.51" xlink:href="#b"/>
<linearGradient id="u" x1="414.83" x2="504.96" y1="188.3" y2="188.3" xlink:href="#a"/>
<linearGradient id="ar" x1="636.39" x2="678.91" y1="654.9" y2="618.08" xlink:href="#b"/>
<linearGradient id="t" x1="414.83" x2="504.96" y1="169.33" y2="169.33" xlink:href="#a"/>
<linearGradient id="aq" x1="617.42" x2="659.93" y1="638.47" y2="601.64" xlink:href="#b"/>
<linearGradient id="s" x1="414.83" x2="504.96" y1="150.35" y2="150.35" xlink:href="#a"/>
<linearGradient id="ap" x1="598.44" x2="640.96" y1="622.03" y2="585.21" xlink:href="#b"/>
<linearGradient id="r" x1="414.83" x2="504.96" y1="131.38" y2="131.38" xlink:href="#a"/>
<linearGradient id="ao" x1="579.47" x2="621.98" y1="605.6" y2="568.78" xlink:href="#b"/>
<linearGradient id="f" x1="281.81" x2="289.74" y1="209.19" y2="259.21" xlink:href="#d"/>
<linearGradient id="q" x1="241.79" x2="331.93" y1="226.26" y2="226.26" xlink:href="#a"/>
<linearGradient id="an" x1="574.43" x2="616.95" y1="774.28" y2="737.46" xlink:href="#b"/>
<linearGradient id="m" x1="241.79" x2="331.93" y1="236.57" y2="236.57" xlink:href="#c"/>
<linearGradient id="p" x1="241.79" x2="331.93" y1="207.28" y2="207.28" xlink:href="#a"/>
<linearGradient id="am" x1="555.46" x2="597.97" y1="757.85" y2="721.03" xlink:href="#b"/>
<linearGradient id="al" x1="241.79" x2="331.93" y1="188.3" y2="188.3" xlink:href="#a"/>
<linearGradient id="bi" x1="536.48" x2="579" y1="741.42" y2="704.59" xlink:href="#b"/>
<linearGradient id="ak" x1="241.79" x2="331.93" y1="169.33" y2="169.33" xlink:href="#a"/>
<linearGradient id="bh" x1="517.51" x2="560.02" y1="724.98" y2="688.16" xlink:href="#b"/>
<linearGradient id="aj" x1="241.79" x2="331.93" y1="150.35" y2="150.35" xlink:href="#a"/>
<linearGradient id="bg" x1="498.53" x2="541.05" y1="708.55" y2="671.73" xlink:href="#b"/>
<linearGradient id="ai" x1="241.79" x2="331.93" y1="131.38" y2="131.38" xlink:href="#a"/>
<linearGradient id="bf" x1="479.56" x2="522.07" y1="692.12" y2="655.3" xlink:href="#b"/>
<linearGradient id="e" x1="367.52" x2="375.44" y1="285.27" y2="335.3" xlink:href="#d"/>
<linearGradient id="ah" x1="327.49" x2="417.63" y1="302.34" y2="302.34" xlink:href="#a"/>
<linearGradient id="be" x1="700" x2="742.52" y1="797.32" y2="760.5" xlink:href="#b"/>
<linearGradient id="l" x1="327.49" x2="417.63" y1="312.66" y2="312.66" xlink:href="#c"/>
<linearGradient id="ag" x1="327.49" x2="417.63" y1="283.37" y2="283.37" xlink:href="#a"/>
<linearGradient id="bd" x1="681.02" x2="723.54" y1="780.89" y2="744.06" xlink:href="#b"/>
<linearGradient id="af" x1="327.49" x2="417.63" y1="264.39" y2="264.39" xlink:href="#a"/>
<linearGradient id="bc" x1="662.05" x2="704.57" y1="764.45" y2="727.63" xlink:href="#b"/>
<linearGradient id="ae" x1="327.49" x2="417.63" y1="245.42" y2="245.42" xlink:href="#a"/>
<linearGradient id="bb" x1="643.07" x2="685.59" y1="748.02" y2="711.2" xlink:href="#b"/>
<linearGradient id="ad" x1="327.49" x2="417.63" y1="226.44" y2="226.44" xlink:href="#a"/>
<linearGradient id="ba" x1="624.1" x2="666.62" y1="731.59" y2="694.77" xlink:href="#b"/>
<linearGradient id="ac" x1="327.49" x2="417.63" y1="207.47" y2="207.47" xlink:href="#a"/>
<linearGradient id="az" x1="605.12" x2="647.64" y1="715.16" y2="678.34" xlink:href="#b"/>
<linearGradient id="bn" x1="239.28" x2="271.88" y1="314.46" y2="314.46" xlink:href="#c"/>
<linearGradient id="aa" x1="239.93" x2="272" y1="308.96" y2="308.96" xlink:href="#a"/>
<linearGradient id="k" x1="239.93" x2="272" y1="312.51" y2="312.51" xlink:href="#c"/>
<linearGradient id="ax" x1="658.48" x2="673.58" y1="853.02" y2="839.94" xlink:href="#b"/>
<linearGradient id="bm" x1="471.55" x2="504.15" y1="314.46" y2="314.46" xlink:href="#c"/>
<linearGradient id="z" x1="472.2" x2="504.27" y1="308.96" y2="308.96" xlink:href="#a"/>
<linearGradient id="j" x1="472.2" x2="504.27" y1="312.51" y2="312.51" xlink:href="#c"/>
<linearGradient id="aw" x1="792.58" x2="807.69" y1="736.89" y2="723.81" xlink:href="#b"/>
<linearGradient id="bl" x1="424.56" x2="457.16" y1="350.13" y2="350.13" xlink:href="#c"/>
<linearGradient id="y" x1="425.21" x2="457.28" y1="344.62" y2="344.62" xlink:href="#a"/>
<linearGradient id="i" x1="425.21" x2="457.28" y1="348.18" y2="348.18" xlink:href="#c"/>
<linearGradient id="av" x1="801.12" x2="816.22" y1="791.27" y2="778.18" xlink:href="#b"/>
<linearGradient id="bk" x1="456.38" x2="488.98" y1="368.18" y2="368.18" xlink:href="#c"/>
<linearGradient id="x" x1="457.03" x2="489.1" y1="362.67" y2="362.67" xlink:href="#a"/>
<linearGradient id="h" x1="457.03" x2="489.1" y1="366.23" y2="366.23" xlink:href="#c"/>
<linearGradient id="au" x1="837.54" x2="852.65" y1="790.99" y2="777.91" xlink:href="#b"/>
<linearGradient id="bj" x1="488.2" x2="520.8" y1="386.23" y2="386.23" xlink:href="#c"/>
<linearGradient id="w" x1="488.85" x2="520.92" y1="380.72" y2="380.72" xlink:href="#a"/>
<linearGradient id="g" x1="488.85" x2="520.92" y1="384.28" y2="384.28" xlink:href="#c"/>
<linearGradient id="at" x1="873.96" x2="889.07" y1="790.71" y2="777.63" xlink:href="#b"/>
</defs>
<title>illu48</title>
<g class="cls-1">
<path class="cls-2" transform="translate(-226.33 -92.93)" d="M381.31,207.78a2.35,2.35,0,0,1-1.16-.31L329.08,178c-2.49-1.44-3.87-3.54-3.87-5.92,0-2.69,1.82-5.28,5-7.11l124-71.71a2.33,2.33,0,0,1,2.34,4L332.53,169c-2,1.13-2.65,2.32-2.65,3.07s1,1.55,1.53,1.88l51.07,29.49a2.34,2.34,0,0,1,.86,3.19A2.36,2.36,0,0,1,381.31,207.78Z"/>
<path class="cls-3" transform="translate(-226.33 -92.93)" d="M381.08,205.85,330,176.37c-1.89-1.1-2.93-2.63-2.93-4.31,0-2,1.48-4,4.05-5.49l124-71.72.46.81-124,71.71c-2.27,1.32-3.58,3-3.58,4.69a4.23,4.23,0,0,0,2.46,3.5l51.08,29.49Z"/>
<path class="cls-4" transform="translate(-226.33 -92.93)" d="m370.21 199a2.13 2.13 0 1 1 0.8 2.88 2.12 2.12 0 0 1-0.8-2.88z"/>
<path class="cls-4" transform="translate(-226.33 -92.93)" d="m359.1 192.62a2.14 2.14 0 1 1 0.8 2.88 2.12 2.12 0 0 1-0.8-2.88z"/>
<path class="cls-4" transform="translate(-226.33 -92.93)" d="m348 186.21a2.14 2.14 0 1 1 0.8 2.88 2.12 2.12 0 0 1-0.8-2.88z"/>
<path class="cls-4" transform="translate(-226.33 -92.93)" d="m336.88 179.79a2.14 2.14 0 1 1 0.8 2.89 2.12 2.12 0 0 1-0.8-2.89z"/>
<path class="cls-4" transform="translate(-226.33 -92.93)" d="M327.56,171.87a4.64,4.64,0,0,1,1.5.44c.38.19.7.3.81.56A1.83,1.83,0,0,1,330,174a2.78,2.78,0,0,1-.51,1.49,1.67,1.67,0,0,1-1.48.7,2.32,2.32,0,0,1-1.77-1.21,2.39,2.39,0,0,1-.13-2.29A1.45,1.45,0,0,1,327.56,171.87Z"/>
<path class="cls-4" transform="translate(-226.33 -92.93)" d="m336.88 163.78a2.14 2.14 0 1 1-2.88-0.78 2.11 2.11 0 0 1 2.88 0.78z"/>
<path class="cls-4" transform="translate(-226.33 -92.93)" d="m348 157.35a2.14 2.14 0 1 1-2.9-0.74 2.12 2.12 0 0 1 2.9 0.74z"/>
<path class="cls-4" transform="translate(-226.33 -92.93)" d="m359.09 150.93a2.14 2.14 0 1 1-2.9-0.74 2.11 2.11 0 0 1 2.9 0.74z"/>
<path class="cls-4" transform="translate(-226.33 -92.93)" d="m370.19 144.51a2.14 2.14 0 1 1-2.9-0.75 2.11 2.11 0 0 1 2.9 0.75z"/>
<path class="cls-4" transform="translate(-226.33 -92.93)" d="m381.29 138.08a2.14 2.14 0 1 1-2.89-0.74 2.11 2.11 0 0 1 2.89 0.74z"/>
<path class="cls-4" transform="translate(-226.33 -92.93)" d="m392.4 131.66a2.14 2.14 0 1 1-2.9-0.74 2.11 2.11 0 0 1 2.9 0.74z"/>
<path class="cls-4" transform="translate(-226.33 -92.93)" d="m403.5 125.23a2.14 2.14 0 1 1-2.9-0.74 2.12 2.12 0 0 1 2.9 0.74z"/>
<path class="cls-4" transform="translate(-226.33 -92.93)" d="m414.6 118.81a2.14 2.14 0 1 1-2.89-0.74 2.11 2.11 0 0 1 2.89 0.74z"/>
<path class="cls-4" transform="translate(-226.33 -92.93)" d="m425.71 112.39a2.14 2.14 0 1 1-2.9-0.74 2.11 2.11 0 0 1 2.9 0.74z"/>
<path class="cls-4" transform="translate(-226.33 -92.93)" d="m436.81 106a2.14 2.14 0 1 1-2.9-0.74 2.12 2.12 0 0 1 2.9 0.74z"/>
<path class="cls-4" transform="translate(-226.33 -92.93)" d="m447.92 99.54a2.14 2.14 0 1 1-2.9-0.74 2.11 2.11 0 0 1 2.9 0.74z"/>
</g>
<g class="cls-1">
<path class="cls-5" transform="translate(-226.33 -92.93)" d="M363.56,180l-10-5.76c-1.22-.7-1.06-1.92.34-2.73l9.62-5.57a5.27,5.27,0,0,1,4.74-.19l10,5.76c1.21.7,1.06,1.92-.34,2.73l-9.63,5.57A5.25,5.25,0,0,1,363.56,180Z"/>
<path class="cls-6" transform="translate(-226.33 -92.93)" d="m365.55 182.35a5.3 5.3 0 0 1-2.63-0.6l-12.19-7a1.94 1.94 0 0 1-1.12-1.66 2.61 2.61 0 0 1 1.54-2.09l11.74-6.79a6.67 6.67 0 0 1 6-0.24l12.19 7a1.94 1.94 0 0 1 1.12 1.66 2.62 2.62 0 0 1-1.53 2.09l-11.75 6.79a6.89 6.89 0 0 1-3.37 0.84zm0.73-18.54a6.49 6.49 0 0 0-3.15 0.79l-11.74 6.79a2.15 2.15 0 0 0-1.29 1.67 1.48 1.48 0 0 0 0.87 1.24l12.19 7a6.16 6.16 0 0 0 5.53-0.24l11.74-6.79a2.15 2.15 0 0 0 1.3-1.68 1.49 1.49 0 0 0-0.88-1.23l-12.19-7a4.81 4.81 0 0 0-2.38-0.55z"/>
<path class="cls-7" transform="translate(-226.33 -92.93)" d="m379.07 161.56h-8.46l-2.34-1.35a5.3 5.3 0 0 0-4.74 0.19l-2.32 1.36h-8.46v5.68a1.36 1.36 0 0 0 0.82 1.26l10 5.77a5.25 5.25 0 0 0 4.73-0.2l9.63-5.57a2 2 0 0 0 1.15-1.46z"/>
<path class="cls-8" transform="translate(-226.33 -92.93)" d="m377.92 168.31-9.63 5.57a5.25 5.25 0 0 1-4.73 0.19l-10-5.76a1.37 1.37 0 0 1-0.82-1.27v0.4a1.36 1.36 0 0 0 0.82 1.26l10 5.77a5.25 5.25 0 0 0 4.73-0.2l9.63-5.57a2 2 0 0 0 1.15-1.46v-0.39a2 2 0 0 1-1.15 1.46z"/>
<path class="cls-9" transform="translate(-226.33 -92.93)" d="m353.29 167.83v-5.68h8.45l2.33-1.35a5.25 5.25 0 0 1 4.73-0.2l2.35 1.35h7.92v-0.39h-8.46l-2.34-1.35a5.3 5.3 0 0 0-4.74 0.19l-2.32 1.36h-8.46v5.68a1.36 1.36 0 0 0 0.82 1.26l0.09 0.06a1.18 1.18 0 0 1-0.37-0.93z"/>
<path class="cls-10" transform="translate(-226.33 -92.93)" d="M363.56,168.79l-10-5.77c-1.22-.7-1.06-1.92.34-2.73l9.62-5.57a5.3,5.3,0,0,1,4.74-.19l10,5.76c1.21.7,1.06,1.92-.34,2.73l-9.63,5.57A5.25,5.25,0,0,1,363.56,168.79Z"/>
<path class="cls-3" transform="translate(-226.33 -92.93)" d="m378.26 160.29-10-5.76a4.44 4.44 0 0 0-2.39-0.46 4 4 0 0 1 1.72 0.46l10 5.76c1.21 0.7 1.06 1.92-0.34 2.73l-9.63 5.57a5.38 5.38 0 0 1-2.34 0.66 5.55 5.55 0 0 0 3-0.66l9.63-5.57c1.41-0.81 1.56-2.02 0.35-2.73z"/>
<path class="cls-9" transform="translate(-226.33 -92.93)" d="M364.32,168.79l-10-5.77c-1.21-.7-1.06-1.92.34-2.73l9.63-5.57a5.38,5.38,0,0,1,2.31-.65,5.68,5.68,0,0,0-3.08.65l-9.62,5.57c-1.4.81-1.56,2-.34,2.73l10,5.77a4.44,4.44,0,0,0,2.42.45A3.92,3.92,0,0,1,364.32,168.79Z"/>
</g>
<g class="cls-1">
<path class="cls-2" transform="translate(-226.33 -92.93)" d="M460.14,270a15.6,15.6,0,0,1-7.68-1.8h0l-49.36-28.5c-2.4-1.39-3.73-3.42-3.73-5.72,0-2.6,1.75-5.11,4.81-6.87l46.36-26.77c5.16-3,12.76-3.25,17.31-.62l49.36,28.5c2.4,1.39,3.73,3.42,3.73,5.72,0,2.6-1.76,5.1-4.81,6.87l-46.36,26.77A19.78,19.78,0,0,1,460.14,270Zm-5.42-5.7c3.17,1.83,9,1.54,12.79-.63l46.36-26.76c1.89-1.09,2.56-2.25,2.56-3s-.92-1.5-1.48-1.82l-49.36-28.5c-3.17-1.83-9-1.54-12.79.63L406.44,231c-1.89,1.09-2.56,2.25-2.56,3s.92,1.5,1.48,1.82Z"/>
<path class="cls-3" transform="translate(-226.33 -92.93)" d="M460.12,268.17a13.77,13.77,0,0,1-6.75-1.55L404,238.12a4.91,4.91,0,0,1-2.82-4.16c0-1.94,1.42-3.87,3.91-5.31l46.36-26.76c4.57-2.64,11.52-2.92,15.49-.63l49.36,28.5a4.91,4.91,0,0,1,2.83,4.16c0,1.94-1.42,3.87-3.91,5.31L468.86,266A17.93,17.93,0,0,1,460.12,268.17Zm-6.31-2.33c3.73,2.15,10.28,1.87,14.6-.62l46.37-26.77c2.19-1.27,3.45-2.92,3.45-4.53a4.08,4.08,0,0,0-2.37-3.38L466.5,202c-3.73-2.15-10.28-1.87-14.61.62l-46.36,26.77c-2.19,1.27-3.46,2.92-3.46,4.53a4.09,4.09,0,0,0,2.38,3.38Z"/>
<path class="cls-5" transform="translate(-226.33 -92.93)" d="m454.77 254.69-31.44-18.15c-2.24-1.29-1.95-3.55 0.63-5l30.18-17.42c2.58-1.49 6.49-1.66 8.72-0.37l31.44 18.15c2.23 1.3 1.95 3.55-0.63 5l-30.18 17.43c-2.58 1.49-6.49 1.67-8.72 0.36z"/>
<path class="cls-11" transform="translate(-226.33 -92.93)" d="m458.51 259.73a9.57 9.57 0 0 1-4.65-1.07l-37-21.39a3.38 3.38 0 0 1-2-2.89c0-1.35 1-2.69 2.7-3.68l35.55-20.53c3.14-1.81 7.91-2 10.65-0.42l37 21.38a3.41 3.41 0 0 1 2 2.89c0 1.35-1 2.69-2.7 3.68l-35.55 20.53a12.31 12.31 0 0 1-6 1.5zm-4.28-1.73c2.53 1.46 7 1.27 9.91-0.42l35.55-20.53c1.48-0.86 2.33-2 2.33-3a2.7 2.7 0 0 0-1.59-2.25l-37-21.38c-2.53-1.46-7-1.27-9.91 0.42l-35.55 20.53c-1.48 0.86-2.33 2-2.33 3a2.7 2.7 0 0 0 1.59 2.25z"/>
<path class="cls-12" transform="translate(-226.33 -92.93)" d="m495.81 215.79h-15.59l-17.36-10c-2.23-1.29-6.14-1.13-8.72 0.36l-16.73 9.66h-15.58v10.47a2.54 2.54 0 0 0 1.5 2.33l31.44 18.15c2.23 1.29 6.14 1.13 8.72-0.36l30.18-17.4a3.71 3.71 0 0 0 2.13-2.69z"/>
<path class="cls-9" transform="translate(-226.33 -92.93)" d="M422.82,227h0V216.51h15.58l16.73-9.66c2.59-1.49,6.49-1.65,8.73-.36l17.35,10h14.61v-.72H480.22l-17.36-10c-2.23-1.29-6.14-1.13-8.72.36l-16.73,9.66H421.83v10.47h0a2.54,2.54,0,0,0,1.5,2.33l.18.1A2.14,2.14,0,0,1,422.82,227Z"/>
<path class="cls-13" transform="translate(-226.33 -92.93)" d="m454.77 236.28-31.44-18.15c-2.24-1.3-1.95-3.55 0.63-5l30.18-17.43c2.58-1.49 6.49-1.65 8.72-0.36l31.44 18.15c2.23 1.29 1.95 3.55-0.63 5l-30.18 17.42c-2.58 1.49-6.49 1.66-8.72 0.37z"/>
<path class="cls-3" transform="translate(-226.33 -92.93)" d="m494.3 213.45-31.44-18.15a8.13 8.13 0 0 0-4.4-0.85 7.25 7.25 0 0 1 3.17 0.85l31.44 18.15c2.23 1.29 1.95 3.55-0.63 5l-30.18 17.42a10 10 0 0 1-4.32 1.22 10.24 10.24 0 0 0 5.55-1.22l30.18-17.42c2.58-1.45 2.86-3.71 0.63-5z"/>
<path class="cls-14" transform="translate(-226.33 -92.93)" d="M458.62,232a6,6,0,0,1-2.95-.68l-23.41-13.51A2.2,2.2,0,0,1,431,215.9a2.93,2.93,0,0,1,1.73-2.35l22.47-13a7.53,7.53,0,0,1,6.76-.27l23.41,13.52a2.19,2.19,0,0,1,1.26,1.86A2.93,2.93,0,0,1,484.9,218l-22.47,13A7.91,7.91,0,0,1,458.62,232Zm.39-31.8a7.21,7.21,0,0,0-3.54.89L433,214a2.44,2.44,0,0,0-1.46,1.89,1.69,1.69,0,0,0,1,1.4l23.41,13.51a6.93,6.93,0,0,0,6.22-.27l22.47-13a2.46,2.46,0,0,0,1.46-1.89,1.69,1.69,0,0,0-1-1.4l-23.41-13.51A5.47,5.47,0,0,0,459,200.15Z"/>
<path class="cls-9" transform="translate(-226.33 -92.93)" d="m456.18 236.28-31.44-18.15c-2.24-1.3-1.95-3.55 0.63-5l30.18-17.43a10 10 0 0 1 4.25-1.2 10.27 10.27 0 0 0-5.66 1.2l-30.14 17.39c-2.58 1.49-2.87 3.74-0.63 5l31.44 18.15a8.18 8.18 0 0 0 4.47 0.84 7.25 7.25 0 0 1-3.1-0.8z"/>
<path class="cls-15" transform="translate(-226.33 -92.93)" d="M464.39,242.1,491,226.72a1.07,1.07,0,0,0,.44-.84v-1.26c0-.32-.2-.47-.44-.33l-26.59,15.38a1,1,0,0,0-.44.84v1.26C464,242.1,464.14,242.24,464.39,242.1Z"/>
<path class="cls-16" transform="translate(-226.33 -92.93)" d="M490.4,226.39a1.07,1.07,0,0,0,.44-.84v-1.18l.14-.08c.24-.14.44,0,.44.33v1.26a1.07,1.07,0,0,1-.44.84L464.39,242.1c-.25.14-.44,0-.44-.33v-.08Z"/>
<path class="cls-17" transform="translate(-226.33 -92.93)" d="m493.67 228.23-30.18 17.43c-2.58 1.49-6.49 1.65-8.72 0.36l-31.44-18.15a2.54 2.54 0 0 1-1.5-2.34v0.73a2.54 2.54 0 0 0 1.5 2.33l31.44 18.15c2.23 1.29 6.14 1.13 8.72-0.36l30.18-17.38a3.71 3.71 0 0 0 2.13-2.69v-0.73a3.7 3.7 0 0 1-2.13 2.65z"/>
<path class="cls-3" transform="translate(-226.33 -92.93)" d="m494.92 216.63v10.37a2.78 2.78 0 0 1-0.74 1.6 3.39 3.39 0 0 0 1.63-2.38v-10.32a4.38 4.38 0 0 0-0.89 0.73z"/>
<path class="cls-18" transform="translate(-226.33 -92.93)" d="m495.81 196.81h-15.59l-17.36-10c-2.23-1.29-6.14-1.13-8.72 0.36l-16.73 9.66h-15.58v10.47a2.55 2.55 0 0 0 1.5 2.34l31.44 18.15c2.23 1.29 6.14 1.13 8.72-0.36l30.18-17.43a3.74 3.74 0 0 0 2.13-2.7z"/>
<path class="cls-9" transform="translate(-226.33 -92.93)" d="M422.82,208h0V197.54h15.58l16.73-9.66c2.59-1.49,6.49-1.66,8.73-.37l17.35,10h14.61v-.73H480.22l-17.36-10c-2.23-1.29-6.14-1.13-8.72.36l-16.73,9.66H421.83v10.47h0a2.55,2.55,0,0,0,1.5,2.34l.18.1A2.17,2.17,0,0,1,422.82,208Z"/>
<path class="cls-19" transform="translate(-226.33 -92.93)" d="m454.77 217.3-31.44-18.15c-2.24-1.29-1.95-3.54 0.63-5l30.18-17.42c2.58-1.49 6.49-1.65 8.72-0.36l31.44 18.15c2.23 1.29 1.95 3.54-0.63 5l-30.18 17.43c-2.58 1.48-6.49 1.64-8.72 0.35z"/>
<path class="cls-3" transform="translate(-226.33 -92.93)" d="m494.3 194.48-31.44-18.15a8 8 0 0 0-4.4-0.85 7.25 7.25 0 0 1 3.17 0.85l31.44 18.15c2.23 1.29 1.95 3.54-0.63 5l-30.18 17.43a10 10 0 0 1-4.32 1.21 10.32 10.32 0 0 0 5.55-1.21l30.18-17.43c2.58-1.48 2.86-3.71 0.63-5z"/>
<path class="cls-14" transform="translate(-226.33 -92.93)" d="M458.62,213a6.07,6.07,0,0,1-2.95-.68l-23.41-13.51a2.2,2.2,0,0,1-1.26-1.87,2.93,2.93,0,0,1,1.73-2.35l22.47-13a7.53,7.53,0,0,1,6.76-.27l23.41,13.51a2.2,2.2,0,0,1,1.26,1.86,3,3,0,0,1-1.73,2.36l-22.47,13A7.8,7.8,0,0,1,458.62,213Zm.39-31.8a7.31,7.31,0,0,0-3.54.88L433,195a2.43,2.43,0,0,0-1.46,1.88,1.68,1.68,0,0,0,1,1.4l23.41,13.51a6.9,6.9,0,0,0,6.22-.27l22.47-13a2.43,2.43,0,0,0,1.46-1.89,1.67,1.67,0,0,0-1-1.39l-23.41-13.52A5.47,5.47,0,0,0,459,181.18Z"/>
<path class="cls-9" transform="translate(-226.33 -92.93)" d="M456.18,217.3l-31.44-18.15c-2.24-1.29-1.95-3.54.63-5l30.18-17.42a10,10,0,0,1,4.25-1.21,10.28,10.28,0,0,0-5.66,1.21L424,194.11c-2.58,1.5-2.87,3.75-.63,5l31.44,18.15a8.18,8.18,0,0,0,4.47.85A7.4,7.4,0,0,1,456.18,217.3Z"/>
<path class="cls-15" transform="translate(-226.33 -92.93)" d="M464.39,223.13,491,207.75a1.07,1.07,0,0,0,.44-.85v-1.25c0-.33-.2-.48-.44-.34L464.39,220.7a1,1,0,0,0-.44.84v1.26C464,223.12,464.14,223.27,464.39,223.13Z"/>
<path class="cls-16" transform="translate(-226.33 -92.93)" d="M490.4,207.41a1.05,1.05,0,0,0,.44-.84V205.4l.14-.09c.24-.14.44,0,.44.34v1.25a1.07,1.07,0,0,1-.44.85l-26.59,15.38c-.25.14-.44,0-.44-.33v-.09Z"/>
<path class="cls-20" transform="translate(-226.33 -92.93)" d="m495.81 177.84h-15.59l-17.36-10c-2.23-1.29-6.14-1.13-8.72 0.36l-16.73 9.66h-15.58v10.44a2.54 2.54 0 0 0 1.5 2.34l31.44 18.15c2.23 1.29 6.14 1.13 8.72-0.36l30.18-17.43a3.7 3.7 0 0 0 2.13-2.7z"/>
<path class="cls-9" transform="translate(-226.33 -92.93)" d="M422.82,189h0V178.56h15.58l16.73-9.66c2.59-1.49,6.49-1.65,8.73-.36l17.35,10h14.61v-.72H480.22l-17.36-10c-2.23-1.29-6.14-1.13-8.72.36l-16.73,9.66H421.83V188.3h0a2.54,2.54,0,0,0,1.5,2.34l.18.1A2.14,2.14,0,0,1,422.82,189Z"/>
<path class="cls-21" transform="translate(-226.33 -92.93)" d="m454.77 198.33-31.44-18.16c-2.24-1.29-1.95-3.54 0.63-5l30.18-17.43c2.58-1.49 6.49-1.65 8.72-0.36l31.44 18.12c2.23 1.29 1.95 3.55-0.63 5l-30.18 17.5c-2.58 1.45-6.49 1.62-8.72 0.33z"/>
<path class="cls-3" transform="translate(-226.33 -92.93)" d="m494.3 175.5-31.44-18.15a8.13 8.13 0 0 0-4.4-0.85 7.25 7.25 0 0 1 3.17 0.85l31.44 18.15c2.23 1.29 1.95 3.55-0.63 5l-30.18 17.5a10 10 0 0 1-4.32 1.22 10.24 10.24 0 0 0 5.55-1.22l30.18-17.42c2.58-1.53 2.86-3.79 0.63-5.08z"/>
<path class="cls-14" transform="translate(-226.33 -92.93)" d="M458.62,194a6,6,0,0,1-2.95-.68l-23.41-13.51A2.2,2.2,0,0,1,431,178a2.93,2.93,0,0,1,1.73-2.35l22.47-13a7.53,7.53,0,0,1,6.76-.27l23.41,13.52a2.18,2.18,0,0,1,1.26,1.86,2.93,2.93,0,0,1-1.73,2.35l-22.47,13A7.8,7.8,0,0,1,458.62,194Zm.39-31.8a7.21,7.21,0,0,0-3.54.89l-22.47,13a2.44,2.44,0,0,0-1.46,1.89,1.69,1.69,0,0,0,1,1.4l23.41,13.51a7,7,0,0,0,6.22-.27l22.47-13a2.43,2.43,0,0,0,1.46-1.88,1.68,1.68,0,0,0-1-1.4l-23.41-13.51A5.36,5.36,0,0,0,459,162.2Z"/>
<path class="cls-9" transform="translate(-226.33 -92.93)" d="m456.18 198.33-31.44-18.16c-2.24-1.29-1.95-3.54 0.63-5l30.18-17.43a9.83 9.83 0 0 1 4.25-1.2 10.27 10.27 0 0 0-5.66 1.2l-30.14 17.4c-2.58 1.49-2.87 3.74-0.63 5l31.44 18.16a8.18 8.18 0 0 0 4.47 0.84 7.25 7.25 0 0 1-3.1-0.81z"/>
<path class="cls-15" transform="translate(-226.33 -92.93)" d="M464.39,204.15,491,188.77a1.07,1.07,0,0,0,.44-.84v-1.26c0-.32-.2-.47-.44-.33l-26.59,15.38a1,1,0,0,0-.44.84v1.26C464,204.14,464.14,204.29,464.39,204.15Z"/>
<path class="cls-16" transform="translate(-226.33 -92.93)" d="M490.4,188.44a1.07,1.07,0,0,0,.44-.84v-1.18l.14-.08c.24-.14.44,0,.44.33v1.26a1.07,1.07,0,0,1-.44.84l-26.59,15.38c-.25.14-.44,0-.44-.33v-.08Z"/>
<path class="cls-22" transform="translate(-226.33 -92.93)" d="m495.81 158.86h-15.59l-17.36-10c-2.23-1.29-6.14-1.13-8.72 0.36l-16.73 9.66h-15.58v10.47a2.55 2.55 0 0 0 1.5 2.34l31.44 18.15c2.23 1.29 6.14 1.13 8.72-0.37l30.18-17.47a3.74 3.74 0 0 0 2.13-2.7z"/>
<path class="cls-9" transform="translate(-226.33 -92.93)" d="m422.82 170.05v-10.47h15.58l16.73-9.65c2.59-1.5 6.49-1.66 8.73-0.37l17.35 10h14.61v-0.72h-15.6l-17.36-10c-2.23-1.29-6.14-1.13-8.72 0.36l-16.73 9.66h-15.58v10.47a2.55 2.55 0 0 0 1.5 2.34l0.18 0.1a2.17 2.17 0 0 1-0.69-1.72z"/>
<path class="cls-23" transform="translate(-226.33 -92.93)" d="m454.77 179.35-31.44-18.15c-2.24-1.29-1.95-3.55 0.63-5l30.18-17.42c2.58-1.49 6.49-1.66 8.72-0.36l31.44 18.15c2.23 1.29 1.95 3.54-0.63 5l-30.18 17.43c-2.58 1.48-6.49 1.64-8.72 0.35z"/>
<path class="cls-3" transform="translate(-226.33 -92.93)" d="m494.3 156.53-31.44-18.15a8 8 0 0 0-4.4-0.85 7.25 7.25 0 0 1 3.17 0.85l31.44 18.15c2.23 1.29 1.95 3.54-0.63 5l-30.18 17.47a10 10 0 0 1-4.32 1.21 10.32 10.32 0 0 0 5.55-1.21l30.18-17.43c2.58-1.5 2.86-3.75 0.63-5.04z"/>
<path class="cls-14" transform="translate(-226.33 -92.93)" d="M458.62,175a6.07,6.07,0,0,1-2.95-.68l-23.41-13.52A2.18,2.18,0,0,1,431,159a2.93,2.93,0,0,1,1.73-2.35l22.47-13a7.5,7.5,0,0,1,6.76-.27l23.41,13.51a2.2,2.2,0,0,1,1.26,1.86,2.93,2.93,0,0,1-1.73,2.35l-22.47,13A7.8,7.8,0,0,1,458.62,175Zm-2.68-1.15a6.9,6.9,0,0,0,6.22-.27l22.47-13a2.44,2.44,0,0,0,1.46-1.89,1.67,1.67,0,0,0-1-1.39l-23.41-13.52a7,7,0,0,0-6.22.27l-22.47,13a2.43,2.43,0,0,0-1.46,1.88,1.68,1.68,0,0,0,1,1.4Z"/>
<path class="cls-9" transform="translate(-226.33 -92.93)" d="M456.18,179.35,424.74,161.2c-2.24-1.29-1.95-3.55.63-5l30.18-17.42a10,10,0,0,1,4.25-1.21,10.28,10.28,0,0,0-5.66,1.21L424,156.16c-2.58,1.49-2.87,3.75-.63,5l31.44,18.15a8.18,8.18,0,0,0,4.47.85A7.4,7.4,0,0,1,456.18,179.35Z"/>
<path class="cls-15" transform="translate(-226.33 -92.93)" d="M464.39,185.18,491,169.8a1.07,1.07,0,0,0,.44-.85V167.7c0-.33-.2-.48-.44-.34l-26.59,15.38a1,1,0,0,0-.44.85v1.25C464,185.17,464.14,185.32,464.39,185.18Z"/>
<path class="cls-16" transform="translate(-226.33 -92.93)" d="M490.4,169.46a1.05,1.05,0,0,0,.44-.84v-1.18l.14-.08c.24-.14.44,0,.44.34V169a1.09,1.09,0,0,1-.44.85l-26.59,15.38c-.25.14-.44,0-.44-.34v-.08Z"/>
<path class="cls-24" transform="translate(-226.33 -92.93)" d="m495.81 139.89h-15.59l-17.36-10c-2.23-1.29-6.14-1.13-8.72 0.36l-16.73 9.66h-15.58v10.46a2.54 2.54 0 0 0 1.5 2.34l31.44 18.15c2.23 1.29 6.14 1.13 8.72-0.36l30.18-17.43a3.7 3.7 0 0 0 2.13-2.7z"/>
<path class="cls-9" transform="translate(-226.33 -92.93)" d="m422.82 151.08v-10.47h15.58l16.72-9.61c2.59-1.49 6.49-1.65 8.73-0.36l17.35 10h14.61v-0.72h-15.59l-17.36-10c-2.23-1.29-6.14-1.13-8.72 0.36l-16.73 9.66h-15.58v10.46a2.54 2.54 0 0 0 1.5 2.34l0.18 0.1a2.15 2.15 0 0 1-0.69-1.76z"/>
<path class="cls-25" transform="translate(-226.33 -92.93)" d="m454.77 160.37-31.44-18.15c-2.24-1.29-1.95-3.54 0.63-5l30.18-17.43c2.58-1.49 6.49-1.65 8.72-0.36l31.44 18.15c2.23 1.29 1.95 3.55-0.63 5l-30.18 17.42c-2.58 1.5-6.49 1.66-8.72 0.37z"/>
<path class="cls-3" transform="translate(-226.33 -92.93)" d="m494.3 137.55-31.44-18.15a8.13 8.13 0 0 0-4.4-0.85 7.25 7.25 0 0 1 3.17 0.85l31.44 18.15c2.23 1.29 1.95 3.55-0.63 5l-30.18 17.45a9.86 9.86 0 0 1-4.32 1.21 10.14 10.14 0 0 0 5.55-1.21l30.18-17.42c2.58-1.48 2.86-3.74 0.63-5.03z"/>
<path class="cls-14" transform="translate(-226.33 -92.93)" d="M458.62,156.05a6,6,0,0,1-2.95-.68l-23.41-13.51A2.2,2.2,0,0,1,431,140a2.93,2.93,0,0,1,1.73-2.35l22.47-13a7.53,7.53,0,0,1,6.76-.27l23.41,13.52a2.18,2.18,0,0,1,1.26,1.86,2.93,2.93,0,0,1-1.73,2.35l-22.47,13A7.8,7.8,0,0,1,458.62,156.05Zm-2.68-1.14a7,7,0,0,0,6.22-.27l22.47-13a2.43,2.43,0,0,0,1.46-1.88,1.68,1.68,0,0,0-1-1.4l-23.41-13.51a6.9,6.9,0,0,0-6.22.27l-22.47,13a2.44,2.44,0,0,0-1.46,1.89,1.68,1.68,0,0,0,1,1.39Z"/>
<path class="cls-9" transform="translate(-226.33 -92.93)" d="m456.18 160.37-31.44-18.15c-2.24-1.29-1.95-3.54 0.63-5l30.18-17.43a10 10 0 0 1 4.25-1.21 10.36 10.36 0 0 0-5.66 1.21l-30.14 17.4c-2.58 1.49-2.87 3.74-0.63 5l31.44 18.15a8.09 8.09 0 0 0 4.47 0.85 7.11 7.11 0 0 1-3.1-0.82z"/>
<path class="cls-15" transform="translate(-226.33 -92.93)" d="M464.39,166.2,491,150.82a1.07,1.07,0,0,0,.44-.84v-1.26c0-.32-.2-.47-.44-.33l-26.59,15.38a1,1,0,0,0-.44.84v1.26C464,166.19,464.14,166.34,464.39,166.2Z"/>
<path class="cls-16" transform="translate(-226.33 -92.93)" d="M490.4,150.49a1.07,1.07,0,0,0,.44-.84v-1.18l.14-.08c.24-.14.44,0,.44.33V150a1.07,1.07,0,0,1-.44.84L464.39,166.2c-.25.14-.44,0-.44-.33v-.08Z"/>
<path class="cls-26" transform="translate(-226.33 -92.93)" d="m495.81 120.91h-15.59l-17.36-10c-2.23-1.29-6.14-1.13-8.72 0.36l-16.73 9.66h-15.58v10.47a2.54 2.54 0 0 0 1.5 2.33l31.44 18.16c2.23 1.29 6.14 1.12 8.72-0.37l30.18-17.42a3.74 3.74 0 0 0 2.13-2.7z"/>
<path class="cls-9" transform="translate(-226.33 -92.93)" d="m422.82 132.1v-10.47h15.58l16.72-9.63c2.59-1.49 6.49-1.65 8.73-0.36l17.35 10h14.61v-0.72h-15.59l-17.36-10c-2.23-1.29-6.14-1.13-8.72 0.36l-16.73 9.66h-15.58v10.47a2.54 2.54 0 0 0 1.5 2.33l0.18 0.11a2.17 2.17 0 0 1-0.69-1.75z"/>
<path class="cls-27" transform="translate(-226.33 -92.93)" d="m454.77 141.4-31.44-18.15c-2.24-1.29-1.95-3.55 0.63-5l30.18-17.42c2.58-1.49 6.49-1.66 8.72-0.37l31.44 18.16c2.23 1.29 1.95 3.54-0.63 5l-30.18 17.38c-2.58 1.53-6.49 1.69-8.72 0.4z"/>
<path class="cls-3" transform="translate(-226.33 -92.93)" d="m494.3 118.58-31.44-18.16a8.22 8.22 0 0 0-4.4-0.85 7.53 7.53 0 0 1 3.17 0.85l31.44 18.16c2.23 1.29 1.95 3.54-0.63 5l-30.18 17.42a10 10 0 0 1-4.32 1.21 10.32 10.32 0 0 0 5.55-1.21l30.18-17.43c2.58-1.45 2.86-3.7 0.63-4.99z"/>
<path class="cls-14" transform="translate(-226.33 -92.93)" d="M458.62,137.08a6.07,6.07,0,0,1-2.95-.68l-23.41-13.52A2.19,2.19,0,0,1,431,121a2.93,2.93,0,0,1,1.73-2.35l22.47-13a7.47,7.47,0,0,1,6.76-.27l23.41,13.51a2.2,2.2,0,0,1,1.26,1.86,2.93,2.93,0,0,1-1.73,2.35l-22.47,13A7.8,7.8,0,0,1,458.62,137.08Zm.39-31.8a7.31,7.31,0,0,0-3.54.88l-22.47,13a2.43,2.43,0,0,0-1.46,1.88,1.69,1.69,0,0,0,1,1.4l23.41,13.51a6.9,6.9,0,0,0,6.22-.27l22.47-13a2.44,2.44,0,0,0,1.46-1.89,1.69,1.69,0,0,0-1-1.4l-23.41-13.51A5.47,5.47,0,0,0,459,105.28Z"/>
<path class="cls-9" transform="translate(-226.33 -92.93)" d="M456.18,141.4l-31.44-18.15c-2.24-1.29-1.95-3.55.63-5l30.18-17.42a9.83,9.83,0,0,1,4.25-1.21,10.19,10.19,0,0,0-5.66,1.21L424,118.21c-2.58,1.49-2.87,3.75-.63,5l31.44,18.15a8.09,8.09,0,0,0,4.47.84A7.25,7.25,0,0,1,456.18,141.4Z"/>
<path class="cls-15" transform="translate(-226.33 -92.93)" d="M464.39,147.23,491,131.84a1.05,1.05,0,0,0,.44-.84v-1.26c0-.32-.2-.47-.44-.33l-26.59,15.38a1,1,0,0,0-.44.85v1.25C464,147.22,464.14,147.37,464.39,147.23Z"/>
<path class="cls-16" transform="translate(-226.33 -92.93)" d="M490.4,131.51a1.07,1.07,0,0,0,.44-.84v-1.18l.14-.08c.24-.14.44,0,.44.33V131a1.05,1.05,0,0,1-.44.84l-26.59,15.39c-.25.14-.44,0-.44-.34v-.08Z"/>
</g>
<g class="cls-1">
<path class="cls-2" transform="translate(-226.33 -92.93)" d="M287.1,270a15.6,15.6,0,0,1-7.68-1.8h0l-49.36-28.5c-2.4-1.39-3.73-3.42-3.73-5.72,0-2.6,1.76-5.11,4.81-6.87l46.36-26.77c5.16-3,12.76-3.25,17.31-.62l49.36,28.5c2.4,1.39,3.73,3.42,3.73,5.72,0,2.6-1.75,5.1-4.81,6.87l-46.36,26.77A19.78,19.78,0,0,1,287.1,270Zm-5.42-5.7c3.17,1.83,9,1.54,12.79-.63l46.36-26.76c1.89-1.09,2.56-2.25,2.56-3s-.92-1.5-1.48-1.82l-49.36-28.5c-3.17-1.83-9-1.54-12.79.63L233.4,231c-1.89,1.09-2.56,2.25-2.56,3s.92,1.5,1.48,1.82Z"/>
<path class="cls-3" transform="translate(-226.33 -92.93)" d="M287.08,268.17a13.77,13.77,0,0,1-6.75-1.55L231,238.12a4.91,4.91,0,0,1-2.83-4.16c0-1.94,1.42-3.87,3.91-5.31l46.36-26.76c4.57-2.64,11.52-2.92,15.5-.63l49.36,28.5a4.91,4.91,0,0,1,2.82,4.16c0,1.94-1.42,3.87-3.91,5.31L295.82,266A17.93,17.93,0,0,1,287.08,268.17Zm-6.31-2.33c3.73,2.15,10.28,1.87,14.61-.62l46.36-26.77c2.19-1.27,3.46-2.92,3.46-4.53a4.09,4.09,0,0,0-2.38-3.38L293.46,202c-3.73-2.15-10.28-1.87-14.6.62l-46.37,26.77C230.3,230.7,229,232.35,229,234a4.08,4.08,0,0,0,2.37,3.38Z"/>
<path class="cls-5" transform="translate(-226.33 -92.93)" d="m281.73 254.69-31.44-18.15c-2.23-1.29-1.95-3.55 0.63-5l30.18-17.42c2.58-1.49 6.49-1.66 8.72-0.37l31.44 18.15c2.24 1.3 1.95 3.55-0.63 5l-30.18 17.43c-2.58 1.49-6.45 1.67-8.72 0.36z"/>
<path class="cls-28" transform="translate(-226.33 -92.93)" d="m285.47 259.73a9.57 9.57 0 0 1-4.65-1.07l-37-21.39a3.4 3.4 0 0 1-2-2.89c0-1.35 1-2.69 2.7-3.68l35.55-20.53c3.14-1.81 7.92-2 10.65-0.42l37 21.38a3.41 3.41 0 0 1 2 2.89c0 1.35-1 2.69-2.7 3.68l-35.55 20.53a12.31 12.31 0 0 1-6 1.5zm-4.28-1.73c2.53 1.46 7 1.27 9.91-0.42l35.55-20.53c1.48-0.86 2.33-2 2.33-3a2.7 2.7 0 0 0-1.59-2.25l-37-21.38c-2.53-1.46-7-1.27-9.91 0.42l-35.58 20.5c-1.48 0.86-2.33 2-2.33 3a2.7 2.7 0 0 0 1.59 2.25z"/>
<path class="cls-29" transform="translate(-226.33 -92.93)" d="m322.77 215.79h-15.59l-17.36-10c-2.23-1.29-6.14-1.13-8.72 0.36l-16.73 9.66h-15.58v10.47a2.54 2.54 0 0 0 1.5 2.33l31.44 18.15c2.23 1.29 6.14 1.13 8.72-0.36l30.18-17.4a3.71 3.71 0 0 0 2.13-2.69z"/>
<path class="cls-9" transform="translate(-226.33 -92.93)" d="M249.78,227h0V216.51h15.59l16.73-9.66c2.58-1.49,6.48-1.65,8.72-.36l17.35,10h14.61v-.72H307.18l-17.36-10c-2.23-1.29-6.14-1.13-8.72.36l-16.73,9.66H248.79v10.47h0a2.54,2.54,0,0,0,1.5,2.33l.18.1A2.14,2.14,0,0,1,249.78,227Z"/>
<path class="cls-30" transform="translate(-226.33 -92.93)" d="m281.73 236.28-31.44-18.15c-2.23-1.3-1.95-3.55 0.63-5l30.18-17.43c2.58-1.49 6.49-1.65 8.72-0.36l31.44 18.15c2.24 1.29 1.95 3.55-0.63 5l-30.18 17.42c-2.58 1.49-6.45 1.66-8.72 0.37z"/>
<path class="cls-3" transform="translate(-226.33 -92.93)" d="m321.26 213.45-31.44-18.15a8.13 8.13 0 0 0-4.4-0.85 7.25 7.25 0 0 1 3.17 0.85l31.41 18.15c2.24 1.29 2 3.55-0.63 5l-30.18 17.42a10 10 0 0 1-4.32 1.22 10.24 10.24 0 0 0 5.55-1.22l30.18-17.42c2.61-1.45 2.9-3.71 0.66-5z"/>
<path class="cls-14" transform="translate(-226.33 -92.93)" d="M285.58,232a6,6,0,0,1-2.95-.68l-23.41-13.51A2.19,2.19,0,0,1,258,215.9a2.9,2.9,0,0,1,1.72-2.35l22.47-13a7.53,7.53,0,0,1,6.76-.27l23.41,13.52a2.19,2.19,0,0,1,1.26,1.86,2.93,2.93,0,0,1-1.73,2.35l-22.47,13A7.91,7.91,0,0,1,285.58,232Zm-2.68-1.14a6.93,6.93,0,0,0,6.22-.27l22.47-13a2.46,2.46,0,0,0,1.46-1.89,1.69,1.69,0,0,0-1-1.4l-23.41-13.51a6.9,6.9,0,0,0-6.22.27L260,214a2.44,2.44,0,0,0-1.46,1.89,1.69,1.69,0,0,0,1,1.4Z"/>
<path class="cls-9" transform="translate(-226.33 -92.93)" d="m283.14 236.28-31.44-18.15c-2.23-1.3-1.95-3.55 0.63-5l30.18-17.43a10 10 0 0 1 4.25-1.2 10.27 10.27 0 0 0-5.66 1.2l-30.18 17.43c-2.58 1.49-2.86 3.74-0.63 5l31.44 18.15a8.18 8.18 0 0 0 4.47 0.84 7.25 7.25 0 0 1-3.06-0.84z"/>
<path class="cls-15" transform="translate(-226.33 -92.93)" d="m291.35 242.1 26.59-15.38a1.07 1.07 0 0 0 0.44-0.84v-1.26c0-0.32-0.2-0.47-0.44-0.33l-26.59 15.38a1 1 0 0 0-0.44 0.84v1.26c0 0.33 0.19 0.47 0.44 0.33z"/>
<path class="cls-16" transform="translate(-226.33 -92.93)" d="M317.36,226.39a1.07,1.07,0,0,0,.44-.84v-1.18l.14-.08c.24-.14.44,0,.44.33v1.26a1.07,1.07,0,0,1-.44.84L291.35,242.1c-.25.14-.44,0-.44-.33v-.08Z"/>
<path class="cls-31" transform="translate(-226.33 -92.93)" d="m320.63 228.23-30.18 17.43c-2.58 1.49-6.49 1.65-8.72 0.36l-31.44-18.15a2.54 2.54 0 0 1-1.5-2.34v0.73a2.54 2.54 0 0 0 1.5 2.33l31.44 18.15c2.23 1.29 6.14 1.13 8.72-0.36l30.18-17.38a3.71 3.71 0 0 0 2.13-2.69v-0.73a3.7 3.7 0 0 1-2.13 2.65z"/>
<path class="cls-3" transform="translate(-226.33 -92.93)" d="m321.88 216.63v10.37a2.78 2.78 0 0 1-0.74 1.6 3.39 3.39 0 0 0 1.63-2.38v-10.32a4.38 4.38 0 0 0-0.89 0.73z"/>
<path class="cls-32" transform="translate(-226.33 -92.93)" d="m322.77 196.81h-15.59l-17.36-10c-2.23-1.29-6.14-1.13-8.72 0.36l-16.73 9.66h-15.58v10.47a2.55 2.55 0 0 0 1.5 2.34l31.44 18.15c2.23 1.29 6.14 1.13 8.72-0.36l30.18-17.43a3.74 3.74 0 0 0 2.13-2.7z"/>
<path class="cls-9" transform="translate(-226.33 -92.93)" d="M249.78,208h0V197.54h15.59l16.73-9.66c2.58-1.49,6.48-1.66,8.72-.37l17.35,10h14.61v-.73H307.18l-17.36-10c-2.23-1.29-6.14-1.13-8.72.36l-16.73,9.66H248.79v10.47h0a2.55,2.55,0,0,0,1.5,2.34l.18.1A2.17,2.17,0,0,1,249.78,208Z"/>
<path class="cls-33" transform="translate(-226.33 -92.93)" d="m281.73 217.3-31.44-18.15c-2.23-1.29-1.95-3.54 0.63-5l30.18-17.42c2.58-1.49 6.49-1.65 8.72-0.36l31.44 18.15c2.24 1.29 1.95 3.54-0.63 5l-30.18 17.43c-2.58 1.48-6.45 1.64-8.72 0.35z"/>
<path class="cls-3" transform="translate(-226.33 -92.93)" d="m321.26 194.48-31.44-18.15a8 8 0 0 0-4.4-0.85 7.25 7.25 0 0 1 3.17 0.85l31.41 18.15c2.24 1.29 2 3.54-0.63 5l-30.18 17.43a10 10 0 0 1-4.32 1.21 10.32 10.32 0 0 0 5.55-1.21l30.18-17.43c2.61-1.48 2.9-3.71 0.66-5z"/>
<path class="cls-14" transform="translate(-226.33 -92.93)" d="M285.58,213a6.09,6.09,0,0,1-2.95-.68l-23.41-13.51a2.19,2.19,0,0,1-1.25-1.86,2.9,2.9,0,0,1,1.72-2.36l22.47-13a7.53,7.53,0,0,1,6.76-.27l23.41,13.51a2.2,2.2,0,0,1,1.26,1.86,3,3,0,0,1-1.73,2.36l-22.47,13A7.8,7.8,0,0,1,285.58,213Zm-2.68-1.15a6.9,6.9,0,0,0,6.22-.27l22.47-13a2.43,2.43,0,0,0,1.46-1.89,1.67,1.67,0,0,0-1-1.39l-23.41-13.52a7,7,0,0,0-6.22.27L260,195a2.43,2.43,0,0,0-1.46,1.89,1.68,1.68,0,0,0,1,1.39Z"/>
<path class="cls-9" transform="translate(-226.33 -92.93)" d="M283.14,217.3,251.7,199.15c-2.23-1.29-1.95-3.54.63-5l30.18-17.42a10,10,0,0,1,4.25-1.21,10.28,10.28,0,0,0-5.66,1.21l-30.18,17.42c-2.58,1.5-2.86,3.75-.63,5l31.44,18.15a8.18,8.18,0,0,0,4.47.85A7.4,7.4,0,0,1,283.14,217.3Z"/>
<path class="cls-15" transform="translate(-226.33 -92.93)" d="m291.35 223.13 26.59-15.38a1.07 1.07 0 0 0 0.44-0.85v-1.25c0-0.33-0.2-0.48-0.44-0.34l-26.59 15.39a1 1 0 0 0-0.44 0.84v1.26c0 0.32 0.19 0.47 0.44 0.33z"/>
<path class="cls-16" transform="translate(-226.33 -92.93)" d="M317.36,207.41a1.05,1.05,0,0,0,.44-.84V205.4l.14-.09c.24-.14.44,0,.44.34v1.25a1.07,1.07,0,0,1-.44.85l-26.59,15.38c-.25.14-.44,0-.44-.33v-.09Z"/>
<path class="cls-34" transform="translate(-226.33 -92.93)" d="m322.77 177.84h-15.59l-17.36-10c-2.23-1.29-6.14-1.13-8.72 0.36l-16.73 9.66h-15.58v10.44a2.54 2.54 0 0 0 1.5 2.34l31.44 18.15c2.23 1.29 6.14 1.13 8.72-0.36l30.18-17.43a3.7 3.7 0 0 0 2.13-2.7z"/>
<path class="cls-9" transform="translate(-226.33 -92.93)" d="M249.78,189h0V178.56h15.59l16.73-9.66c2.58-1.49,6.48-1.65,8.72-.36l17.35,10h14.61v-.72H307.18l-17.36-10c-2.23-1.29-6.14-1.13-8.72.36l-16.73,9.66H248.79V188.3h0a2.54,2.54,0,0,0,1.5,2.34l.18.1A2.14,2.14,0,0,1,249.78,189Z"/>
<path class="cls-35" transform="translate(-226.33 -92.93)" d="m281.73 198.33-31.44-18.16c-2.23-1.29-1.95-3.54 0.63-5l30.18-17.43c2.58-1.49 6.49-1.65 8.72-0.36l31.44 18.15c2.24 1.29 1.95 3.55-0.63 5l-30.18 17.47c-2.58 1.45-6.45 1.62-8.72 0.33z"/>
<path class="cls-3" transform="translate(-226.33 -92.93)" d="m321.26 175.5-31.44-18.15a8.13 8.13 0 0 0-4.4-0.85 7.25 7.25 0 0 1 3.17 0.85l31.41 18.15c2.24 1.29 2 3.55-0.63 5l-30.15 17.5a10 10 0 0 1-4.32 1.22 10.24 10.24 0 0 0 5.55-1.22l30.18-17.42c2.58-1.53 2.87-3.79 0.63-5.08z"/>
<path class="cls-14" transform="translate(-226.33 -92.93)" d="M285.58,194a6,6,0,0,1-2.95-.68l-23.41-13.51A2.19,2.19,0,0,1,258,178a2.9,2.9,0,0,1,1.72-2.35l22.47-13a7.53,7.53,0,0,1,6.76-.27l23.41,13.52a2.18,2.18,0,0,1,1.26,1.86,2.93,2.93,0,0,1-1.73,2.35l-22.47,13A7.8,7.8,0,0,1,285.58,194Zm-2.68-1.14a7,7,0,0,0,6.22-.27l22.47-13a2.43,2.43,0,0,0,1.46-1.88,1.68,1.68,0,0,0-1-1.4l-23.41-13.51a6.9,6.9,0,0,0-6.22.27l-22.47,13A2.44,2.44,0,0,0,258.5,178a1.69,1.69,0,0,0,1,1.4Z"/>
<path class="cls-9" transform="translate(-226.33 -92.93)" d="m283.14 198.33-31.44-18.16c-2.23-1.29-1.95-3.54 0.63-5l30.18-17.43a9.83 9.83 0 0 1 4.25-1.2 10.27 10.27 0 0 0-5.66 1.2l-30.18 17.43c-2.58 1.49-2.86 3.74-0.63 5l31.44 18.16a8.18 8.18 0 0 0 4.47 0.84 7.25 7.25 0 0 1-3.06-0.84z"/>
<path class="cls-15" transform="translate(-226.33 -92.93)" d="m291.35 204.15 26.59-15.38a1.07 1.07 0 0 0 0.44-0.84v-1.26c0-0.32-0.2-0.47-0.44-0.33l-26.59 15.38a1 1 0 0 0-0.44 0.84v1.26c0 0.32 0.19 0.47 0.44 0.33z"/>
<path class="cls-16" transform="translate(-226.33 -92.93)" d="M317.36,188.44a1.07,1.07,0,0,0,.44-.84v-1.18l.14-.08c.24-.14.44,0,.44.33v1.26a1.07,1.07,0,0,1-.44.84l-26.59,15.38c-.25.14-.44,0-.44-.33v-.08Z"/>
<path class="cls-36" transform="translate(-226.33 -92.93)" d="m322.77 158.86h-15.59l-17.36-10c-2.23-1.29-6.14-1.13-8.72 0.36l-16.73 9.66h-15.58v10.47a2.55 2.55 0 0 0 1.5 2.34l31.44 18.15c2.23 1.29 6.14 1.13 8.72-0.37l30.18-17.47a3.74 3.74 0 0 0 2.13-2.7z"/>
<path class="cls-9" transform="translate(-226.33 -92.93)" d="m249.78 170.05v-10.47h15.59l16.73-9.65c2.58-1.5 6.48-1.66 8.72-0.37l17.35 10h14.61v-0.72h-15.6l-17.36-10c-2.23-1.29-6.14-1.13-8.72 0.36l-16.73 9.66h-15.58v10.47a2.55 2.55 0 0 0 1.5 2.34l0.18 0.1a2.17 2.17 0 0 1-0.69-1.72z"/>
<path class="cls-37" transform="translate(-226.33 -92.93)" d="m281.73 179.35-31.44-18.15c-2.23-1.29-1.95-3.55 0.63-5l30.18-17.42c2.58-1.49 6.49-1.66 8.72-0.36l31.44 18.15c2.24 1.29 1.95 3.54-0.63 5l-30.18 17.43c-2.58 1.48-6.45 1.64-8.72 0.35z"/>
<path class="cls-3" transform="translate(-226.33 -92.93)" d="m321.26 156.53-31.44-18.15a8 8 0 0 0-4.4-0.85 7.25 7.25 0 0 1 3.17 0.85l31.41 18.15c2.24 1.29 2 3.54-0.63 5l-30.15 17.47a10 10 0 0 1-4.32 1.21 10.32 10.32 0 0 0 5.55-1.21l30.18-17.43c2.58-1.5 2.87-3.75 0.63-5.04z"/>
<path class="cls-14" transform="translate(-226.33 -92.93)" d="M285.58,175a6.07,6.07,0,0,1-2.95-.68h0l-23.41-13.52A2.17,2.17,0,0,1,258,159a2.9,2.9,0,0,1,1.72-2.35l22.47-13a7.47,7.47,0,0,1,6.76-.27l23.41,13.51a2.2,2.2,0,0,1,1.26,1.86,2.93,2.93,0,0,1-1.73,2.35l-22.47,13A7.8,7.8,0,0,1,285.58,175Zm-2.68-1.15a6.9,6.9,0,0,0,6.22-.27l22.47-13a2.44,2.44,0,0,0,1.46-1.89,1.67,1.67,0,0,0-1-1.39l-23.41-13.52a7,7,0,0,0-6.22.27l-22.47,13A2.43,2.43,0,0,0,258.5,159a1.68,1.68,0,0,0,1,1.4Z"/>
<path class="cls-9" transform="translate(-226.33 -92.93)" d="M283.14,179.35,251.7,161.2c-2.23-1.29-1.95-3.55.63-5l30.18-17.42a10,10,0,0,1,4.25-1.21,10.28,10.28,0,0,0-5.66,1.21l-30.18,17.42c-2.58,1.49-2.86,3.75-.63,5l31.44,18.15a8.18,8.18,0,0,0,4.47.85A7.4,7.4,0,0,1,283.14,179.35Z"/>
<path class="cls-15" transform="translate(-226.33 -92.93)" d="m291.35 185.18 26.59-15.38a1.07 1.07 0 0 0 0.44-0.85v-1.25c0-0.33-0.2-0.48-0.44-0.34l-26.59 15.38a1 1 0 0 0-0.44 0.85v1.25c0 0.33 0.19 0.48 0.44 0.34z"/>
<path class="cls-16" transform="translate(-226.33 -92.93)" d="M317.36,169.46a1.05,1.05,0,0,0,.44-.84v-1.18l.14-.08c.24-.14.44,0,.44.34V169a1.09,1.09,0,0,1-.44.85l-26.59,15.38c-.25.14-.44,0-.44-.34v-.08Z"/>
<path class="cls-38" transform="translate(-226.33 -92.93)" d="m322.77 139.89h-15.59l-17.36-10c-2.23-1.29-6.14-1.13-8.72 0.36l-16.73 9.66h-15.58v10.46a2.54 2.54 0 0 0 1.5 2.34l31.44 18.15c2.23 1.29 6.14 1.13 8.72-0.36l30.18-17.43a3.7 3.7 0 0 0 2.13-2.7z"/>
<path class="cls-9" transform="translate(-226.33 -92.93)" d="m249.78 151.08v-10.47h15.59l16.72-9.61c2.58-1.49 6.48-1.65 8.72-0.36l17.35 10h14.61v-0.72h-15.59l-17.36-10c-2.23-1.29-6.14-1.13-8.72 0.36l-16.73 9.66h-15.58v10.46a2.54 2.54 0 0 0 1.5 2.34l0.18 0.1a2.15 2.15 0 0 1-0.69-1.76z"/>
<path class="cls-39" transform="translate(-226.33 -92.93)" d="m281.73 160.37-31.44-18.15c-2.23-1.29-1.95-3.54 0.63-5l30.18-17.43c2.58-1.49 6.49-1.65 8.72-0.36l31.44 18.15c2.24 1.29 1.95 3.55-0.63 5l-30.18 17.42c-2.58 1.5-6.45 1.66-8.72 0.37z"/>
<path class="cls-3" transform="translate(-226.33 -92.93)" d="m321.26 137.55-31.44-18.15a8.13 8.13 0 0 0-4.4-0.85 7.25 7.25 0 0 1 3.17 0.85l31.41 18.15c2.24 1.29 2 3.55-0.63 5l-30.15 17.45a9.86 9.86 0 0 1-4.32 1.21 10.14 10.14 0 0 0 5.55-1.21l30.18-17.42c2.58-1.48 2.87-3.74 0.63-5.03z"/>
<path class="cls-14" transform="translate(-226.33 -92.93)" d="M285.58,156.05a6,6,0,0,1-2.95-.68h0l-23.41-13.51A2.19,2.19,0,0,1,258,140a2.9,2.9,0,0,1,1.72-2.35l22.47-13a7.53,7.53,0,0,1,6.76-.27l23.41,13.52a2.18,2.18,0,0,1,1.26,1.86,2.93,2.93,0,0,1-1.73,2.35l-22.47,13A7.8,7.8,0,0,1,285.58,156.05Zm-2.68-1.14a7,7,0,0,0,6.22-.27l22.47-13a2.43,2.43,0,0,0,1.46-1.88,1.68,1.68,0,0,0-1-1.4l-23.41-13.51a6.9,6.9,0,0,0-6.22.27l-22.47,13A2.44,2.44,0,0,0,258.5,140a1.67,1.67,0,0,0,1,1.39Z"/>
<path class="cls-9" transform="translate(-226.33 -92.93)" d="m283.14 160.37-31.44-18.15c-2.23-1.29-1.95-3.54 0.63-5l30.18-17.43a10 10 0 0 1 4.25-1.21 10.36 10.36 0 0 0-5.66 1.21l-30.18 17.43c-2.58 1.49-2.86 3.74-0.63 5l31.44 18.15a8.09 8.09 0 0 0 4.47 0.85 7.11 7.11 0 0 1-3.06-0.85z"/>
<path class="cls-15" transform="translate(-226.33 -92.93)" d="m291.35 166.2 26.59-15.38a1.07 1.07 0 0 0 0.44-0.84v-1.26c0-0.32-0.2-0.47-0.44-0.33l-26.59 15.38a1 1 0 0 0-0.44 0.84v1.26c0 0.32 0.19 0.47 0.44 0.33z"/>
<path class="cls-16" transform="translate(-226.33 -92.93)" d="M317.36,150.49a1.07,1.07,0,0,0,.44-.84v-1.18l.14-.08c.24-.14.44,0,.44.33V150a1.07,1.07,0,0,1-.44.84L291.35,166.2c-.25.14-.44,0-.44-.33v-.08Z"/>
<path class="cls-40" transform="translate(-226.33 -92.93)" d="m322.77 120.91h-15.59l-17.36-10c-2.23-1.29-6.14-1.13-8.72 0.36l-16.73 9.66h-15.58v10.47a2.54 2.54 0 0 0 1.5 2.33l31.44 18.16c2.23 1.29 6.14 1.12 8.72-0.37l30.18-17.42a3.74 3.74 0 0 0 2.13-2.7z"/>
<path class="cls-9" transform="translate(-226.33 -92.93)" d="m249.78 132.1v-10.47h15.59l16.72-9.63c2.58-1.49 6.48-1.65 8.72-0.36l17.35 10h14.61v-0.72h-15.59l-17.36-10c-2.23-1.29-6.14-1.13-8.72 0.36l-16.73 9.66h-15.58v10.47a2.54 2.54 0 0 0 1.5 2.33l0.18 0.11a2.17 2.17 0 0 1-0.69-1.75z"/>
<path class="cls-41" transform="translate(-226.33 -92.93)" d="m281.73 141.4-31.44-18.15c-2.23-1.29-1.95-3.55 0.63-5l30.18-17.42c2.58-1.49 6.49-1.66 8.72-0.37l31.44 18.16c2.24 1.29 1.95 3.54-0.63 5l-30.18 17.38c-2.58 1.53-6.45 1.69-8.72 0.4z"/>
<path class="cls-3" transform="translate(-226.33 -92.93)" d="m321.26 118.58-31.44-18.16a8.22 8.22 0 0 0-4.4-0.85 7.53 7.53 0 0 1 3.17 0.85l31.41 18.16c2.24 1.29 2 3.54-0.63 5l-30.15 17.42a10 10 0 0 1-4.32 1.21 10.32 10.32 0 0 0 5.55-1.21l30.18-17.43c2.58-1.45 2.87-3.7 0.63-4.99z"/>
<path class="cls-14" transform="translate(-226.33 -92.93)" d="M285.58,137.08a6.07,6.07,0,0,1-2.95-.68l-23.41-13.52A2.18,2.18,0,0,1,258,121a2.9,2.9,0,0,1,1.72-2.35l22.47-13a7.47,7.47,0,0,1,6.76-.27l23.41,13.51a2.2,2.2,0,0,1,1.26,1.86,2.93,2.93,0,0,1-1.73,2.35l-22.47,13A7.8,7.8,0,0,1,285.58,137.08Zm-2.68-1.15a6.9,6.9,0,0,0,6.22-.27l22.47-13a2.44,2.44,0,0,0,1.46-1.89,1.69,1.69,0,0,0-1-1.4l-23.41-13.51a7,7,0,0,0-6.22.27l-22.47,13A2.43,2.43,0,0,0,258.5,121a1.69,1.69,0,0,0,1,1.4Z"/>
<path class="cls-9" transform="translate(-226.33 -92.93)" d="M283.14,141.4,251.7,123.25c-2.23-1.29-1.95-3.55.63-5l30.18-17.42a9.83,9.83,0,0,1,4.25-1.21,10.19,10.19,0,0,0-5.66,1.21l-30.18,17.42c-2.58,1.49-2.86,3.75-.63,5l31.44,18.15a8.09,8.09,0,0,0,4.47.84A7.25,7.25,0,0,1,283.14,141.4Z"/>
<path class="cls-15" transform="translate(-226.33 -92.93)" d="m291.35 147.23 26.59-15.39a1.05 1.05 0 0 0 0.44-0.84v-1.26c0-0.32-0.2-0.47-0.44-0.33l-26.59 15.38a1 1 0 0 0-0.44 0.85v1.25c0 0.33 0.19 0.48 0.44 0.34z"/>
<path class="cls-16" transform="translate(-226.33 -92.93)" d="M317.36,131.51a1.07,1.07,0,0,0,.44-.84v-1.18l.14-.08c.24-.14.44,0,.44.33V131a1.05,1.05,0,0,1-.44.84l-26.59,15.39c-.25.14-.44,0-.44-.34v-.08Z"/>
</g>
<path class="cls-2" transform="translate(-226.33 -92.93)" d="M372.15,314.43a2.36,2.36,0,0,1-1.17-.31l-51.07-29.49c-2.49-1.44-3.86-3.54-3.86-5.93,0-2.69,1.81-5.28,5-7.1l76.81-45a2.33,2.33,0,0,1,2.36,4l-76.83,45c-2,1.13-2.66,2.33-2.66,3.07s1,1.56,1.53,1.89l51.08,29.48a2.34,2.34,0,0,1-1.17,4.36Z"/>
<path class="cls-3" transform="translate(-226.33 -92.93)" d="M371.92,312.5,320.84,283a5.09,5.09,0,0,1-2.93-4.31c0-2,1.48-4,4-5.49l76.83-45,.47.8-76.83,45c-2.28,1.31-3.59,3-3.59,4.68a4.21,4.21,0,0,0,2.47,3.5l51.07,29.49Z"/>
<path class="cls-4" transform="translate(-226.33 -92.93)" d="m361.24 305.8a2.1 2.1 0 1 1 0.77 2.86 2.08 2.08 0 0 1-0.77-2.86z"/>
<path class="cls-4" transform="translate(-226.33 -92.93)" d="m350.32 299.49a2.1 2.1 0 1 1 0.78 2.87 2.1 2.1 0 0 1-0.78-2.87z"/>
<path class="cls-4" transform="translate(-226.33 -92.93)" d="m339.41 293.19a2.1 2.1 0 1 1 0.77 2.87 2.1 2.1 0 0 1-0.77-2.87z"/>
<path class="cls-4" transform="translate(-226.33 -92.93)" d="m328.5 286.89a2.1 2.1 0 1 1 0.77 2.87 2.09 2.09 0 0 1-0.77-2.87z"/>
<path class="cls-4" transform="translate(-226.33 -92.93)" d="M318.51,279.63a4.35,4.35,0,0,1,1.56,0,1.6,1.6,0,0,1,1,.39,2.57,2.57,0,0,1,.14,2.7,1.7,1.7,0,0,1-1.33.91,2.16,2.16,0,0,1-1.85-.74,2.37,2.37,0,0,1-.67-2A1.53,1.53,0,0,1,318.51,279.63Z"/>
<path class="cls-4" transform="translate(-226.33 -92.93)" d="m326.53 271.08a2.1 2.1 0 1 1-2.87-0.75 2.11 2.11 0 0 1 2.87 0.75z"/>
<path class="cls-4" transform="translate(-226.33 -92.93)" d="m337.4 264.71a2.1 2.1 0 1 1-2.87-0.74 2.09 2.09 0 0 1 2.87 0.74z"/>
<path class="cls-4" transform="translate(-226.33 -92.93)" d="m348.28 258.35a2.1 2.1 0 1 1-2.87-0.75 2.11 2.11 0 0 1 2.87 0.75z"/>
<path class="cls-4" transform="translate(-226.33 -92.93)" d="m359.15 252a2.1 2.1 0 1 1-2.87-0.75 2.1 2.1 0 0 1 2.87 0.75z"/>
<path class="cls-4" transform="translate(-226.33 -92.93)" d="m370 245.61a2.1 2.1 0 1 1-2.87-0.74 2.09 2.09 0 0 1 2.87 0.74z"/>
<path class="cls-4" transform="translate(-226.33 -92.93)" d="m380.9 239.25a2.1 2.1 0 1 1-2.87-0.75 2.11 2.11 0 0 1 2.87 0.75z"/>
<path class="cls-4" transform="translate(-226.33 -92.93)" d="m391.77 232.88a2.1 2.1 0 1 1-2.87-0.74 2.09 2.09 0 0 1 2.87 0.74z"/>
<path class="cls-2" transform="translate(-226.33 -92.93)" d="m372.81 346.07a15.57 15.57 0 0 1-7.68-1.8l-49.36-28.5c-2.41-1.39-3.74-3.42-3.74-5.73 0-2.6 1.76-5.1 4.82-6.86l46.36-26.77c5.15-3 12.75-3.25 17.3-0.62l49.36 28.49c2.41 1.39 3.73 3.43 3.73 5.73 0 2.6-1.75 5.1-4.81 6.87l-46.36 26.76a19.64 19.64 0 0 1-9.62 2.43zm0.06-67.59a15.41 15.41 0 0 0-7.41 1.83l-46.36 26.77c-1.88 1.09-2.56 2.24-2.56 3s0.93 1.51 1.48 1.82l49.36 28.5c3.18 1.84 9 1.55 12.8-0.62l46.36-26.78c1.88-1.09 2.55-2.24 2.55-3s-0.92-1.5-1.47-1.82l-49.36-28.5a11.09 11.09 0 0 0-5.39-1.2z"/>
<path class="cls-3" transform="translate(-226.33 -92.93)" d="m372.79 344.26a13.7 13.7 0 0 1-6.79-1.56l-49.36-28.49a4.92 4.92 0 0 1-2.83-4.17c0-1.93 1.42-3.87 3.91-5.3l46.39-26.74c4.57-2.64 11.52-2.92 15.5-0.62l49.39 28.47a4.93 4.93 0 0 1 2.8 4.15c0 1.94-1.43 3.87-3.91 5.3l-46.36 26.77a18 18 0 0 1-8.74 2.19zm0.06-67.58a17 17 0 0 0-8.29 2.07l-46.36 26.77c-2.2 1.27-3.46 2.92-3.46 4.52a4.07 4.07 0 0 0 2.38 3.39l49.36 28.5c3.73 2.15 10.27 1.87 14.6-0.63l46.36-26.76c2.2-1.27 3.46-2.92 3.46-4.53a4.06 4.06 0 0 0-2.38-3.38l-49.36-28.5a12.88 12.88 0 0 0-6.31-1.45z"/>
<path class="cls-5" transform="translate(-226.33 -92.93)" d="m367.43 330.78-31.43-18.16c-2.23-1.29-1.95-3.54 0.63-5l30.18-17.43c2.59-1.49 6.49-1.65 8.73-0.36l31.46 18.17c2.24 1.29 2 3.55-0.62 5l-30.19 17.42c-2.62 1.48-6.52 1.65-8.76 0.36z"/>
<path class="cls-42" transform="translate(-226.33 -92.93)" d="m371.17 335.81a9.41 9.41 0 0 1-4.64-1.07l-37-21.38a3.43 3.43 0 0 1-2-2.9c0-1.34 1-2.68 2.7-3.67l35.56-20.53c3.14-1.81 7.91-2 10.64-0.43l37 21.38a3.43 3.43 0 0 1 2 2.9c0 1.35-1 2.69-2.7 3.68l-35.56 20.53a12.3 12.3 0 0 1-6 1.49zm-4.27-1.71c2.52 1.46 7 1.27 9.9-0.43l35.56-20.52c1.48-0.86 2.33-2 2.33-3a2.72 2.72 0 0 0-1.6-2.25l-37-21.38c-2.53-1.46-7-1.27-9.9 0.42l-35.59 20.49c-1.48 0.86-2.33 2-2.33 3a2.72 2.72 0 0 0 1.59 2.26z"/>
<path class="cls-43" transform="translate(-226.33 -92.93)" d="m408.47 291.88h-15.59l-17.35-10c-2.24-1.3-6.14-1.13-8.73 0.36l-16.73 9.66h-15.58v10.46a2.51 2.51 0 0 0 1.49 2.34l31.44 18.15c2.24 1.29 6.14 1.13 8.72-0.36l30.2-17.49a3.68 3.68 0 0 0 2.12-2.7z"/>
<path class="cls-9" transform="translate(-226.33 -92.93)" d="m335.48 303.06v-10.46h15.58l16.73-9.66c2.58-1.49 6.48-1.65 8.72-0.36l17.36 10h14.6v-0.72h-15.59l-17.35-10c-2.24-1.3-6.14-1.13-8.73 0.36l-16.73 9.66h-15.58v10.46a2.51 2.51 0 0 0 1.49 2.34l0.18 0.1a2.22 2.22 0 0 1-0.68-1.72z"/>
<path class="cls-44" transform="translate(-226.33 -92.93)" d="m367.43 312.36-31.43-18.15c-2.23-1.29-1.95-3.54 0.63-5l30.18-17.43c2.59-1.49 6.49-1.65 8.73-0.36l31.46 18.12c2.24 1.29 2 3.54-0.62 5l-30.23 17.46c-2.58 1.49-6.48 1.65-8.72 0.36z"/>
<path class="cls-3" transform="translate(-226.33 -92.93)" d="m407 289.54-31.43-18.15a8.07 8.07 0 0 0-4.41-0.85 7.29 7.29 0 0 1 3.18 0.85l31.43 18.15c2.24 1.29 2 3.54-0.62 5l-30.23 17.46a9.79 9.79 0 0 1-4.32 1.21 10.14 10.14 0 0 0 5.55-1.21l30.19-17.43c2.58-1.49 2.86-3.74 0.66-5.03z"/>
<path class="cls-14" transform="translate(-226.33 -92.93)" d="M371.28,308a6,6,0,0,1-2.95-.68l-23.4-13.51a2.18,2.18,0,0,1-1.26-1.86,3,3,0,0,1,1.72-2.36l22.47-13a7.55,7.55,0,0,1,6.77-.27L398,289.9a2.2,2.2,0,0,1,1.26,1.86,3,3,0,0,1-1.72,2.36l-22.48,13A7.77,7.77,0,0,1,371.28,308Zm.39-31.8a7.34,7.34,0,0,0-3.54.88l-22.47,13a2.43,2.43,0,0,0-1.45,1.89,1.69,1.69,0,0,0,1,1.39L368.6,306.9a7,7,0,0,0,6.22-.27l22.48-13a2.43,2.43,0,0,0,1.45-1.89,1.68,1.68,0,0,0-1-1.39l-23.4-13.51A5.43,5.43,0,0,0,371.67,276.24Z"/>
<path class="cls-9" transform="translate(-226.33 -92.93)" d="m368.84 312.36-31.44-18.15c-2.23-1.29-1.95-3.54 0.63-5l30.18-17.43a10 10 0 0 1 4.26-1.21 10.4 10.4 0 0 0-5.67 1.21l-30.18 17.43c-2.58 1.49-2.86 3.74-0.63 5l31.44 18.15a8.2 8.2 0 0 0 4.47 0.85 7.11 7.11 0 0 1-3.06-0.85z"/>
<path class="cls-15" transform="translate(-226.33 -92.93)" d="m377.05 318.19 26.59-15.38a1 1 0 0 0 0.44-0.84v-1.26c0-0.33-0.19-0.47-0.44-0.33l-26.59 15.38a1.05 1.05 0 0 0-0.44 0.84v1.26c0 0.32 0.2 0.47 0.44 0.33z"/>
<path class="cls-16" transform="translate(-226.33 -92.93)" d="M403.06,302.48a1.07,1.07,0,0,0,.44-.85v-1.17l.14-.08c.25-.14.44,0,.44.33V302a1,1,0,0,1-.44.84l-26.59,15.38c-.24.14-.44,0-.44-.33v-.08Z"/>
<path class="cls-45" transform="translate(-226.33 -92.93)" d="m406.34 304.32-30.19 17.43c-2.58 1.49-6.48 1.65-8.72 0.36l-31.43-18.11a2.52 2.52 0 0 1-1.49-2.34v0.72a2.51 2.51 0 0 0 1.49 2.34l31.44 18.15c2.24 1.29 6.14 1.13 8.72-0.36l30.18-17.51a3.68 3.68 0 0 0 2.12-2.7v-0.72a3.68 3.68 0 0 1-2.12 2.74z"/>
<path class="cls-3" transform="translate(-226.33 -92.93)" d="m407.59 292.71v10.42a2.8 2.8 0 0 1-0.75 1.6 3.4 3.4 0 0 0 1.63-2.39v-10.34a4.74 4.74 0 0 0-0.88 0.71z"/>
<path class="cls-46" transform="translate(-226.33 -92.93)" d="m408.47 272.9h-15.59l-17.35-10c-2.24-1.29-6.14-1.13-8.73 0.36l-16.73 9.66h-15.58v10.47a2.51 2.51 0 0 0 1.51 2.31l31.44 18.15c2.24 1.29 6.14 1.13 8.72-0.36l30.19-17.42a3.72 3.72 0 0 0 2.12-2.7z"/>
<path class="cls-9" transform="translate(-226.33 -92.93)" d="m335.48 284.09v-10.47h15.58l16.73-9.62c2.58-1.49 6.48-1.65 8.72-0.36l17.36 10h14.6v-0.72h-15.59l-17.35-10c-2.24-1.29-6.14-1.13-8.73 0.36l-16.73 9.66h-15.58v10.47a2.51 2.51 0 0 0 1.51 2.29l0.18 0.11a2.24 2.24 0 0 1-0.7-1.72z"/>
<path class="cls-47" transform="translate(-226.33 -92.93)" d="m367.43 293.39-31.43-18.15c-2.23-1.29-1.95-3.55 0.63-5l30.18-17.43c2.59-1.49 6.49-1.65 8.73-0.36l31.46 18.11c2.24 1.29 2 3.55-0.62 5l-30.23 17.44c-2.58 1.52-6.48 1.68-8.72 0.39z"/>
<path class="cls-3" transform="translate(-226.33 -92.93)" d="m407 270.56-31.43-18.15a8.17 8.17 0 0 0-4.41-0.85 7.29 7.29 0 0 1 3.18 0.85l31.43 18.15c2.24 1.29 2 3.55-0.62 5l-30.23 17.44a10.06 10.06 0 0 1-4.32 1.21 10.32 10.32 0 0 0 5.55-1.21l30.19-17.43c2.58-1.46 2.86-3.72 0.66-5.01z"/>
<path class="cls-14" transform="translate(-226.33 -92.93)" d="m371.29 289.06a6.1 6.1 0 0 1-3-0.67l-23.4-13.52a2.18 2.18 0 0 1-1.26-1.86 2.94 2.94 0 0 1 1.72-2.35l22.47-13a7.52 7.52 0 0 1 6.77-0.26l23.41 13.53a2.2 2.2 0 0 1 1.26 1.86 2.94 2.94 0 0 1-1.72 2.35l-22.48 13a7.87 7.87 0 0 1-3.77 0.92zm0.38-31.79a7.23 7.23 0 0 0-3.54 0.88l-22.47 13a2.46 2.46 0 0 0-1.45 1.89 1.7 1.7 0 0 0 1 1.4l23.41 13.51a6.9 6.9 0 0 0 6.22-0.27l22.48-13a2.45 2.45 0 0 0 1.45-1.89 1.69 1.69 0 0 0-1-1.4l-23.4-13.51a5.54 5.54 0 0 0-2.7-0.61z"/>
<path class="cls-9" transform="translate(-226.33 -92.93)" d="m368.84 293.39-31.44-18.15c-2.23-1.29-1.95-3.55 0.63-5l30.18-17.43a10 10 0 0 1 4.26-1.2 10.3 10.3 0 0 0-5.67 1.2l-30.18 17.39c-2.58 1.49-2.86 3.75-0.63 5l31.44 18.15a8.11 8.11 0 0 0 4.47 0.84 7.25 7.25 0 0 1-3.06-0.8z"/>
<path class="cls-15" transform="translate(-226.33 -92.93)" d="m377.05 299.22 26.59-15.39a1 1 0 0 0 0.44-0.84v-1.26c0-0.32-0.19-0.47-0.44-0.33l-26.59 15.38a1.07 1.07 0 0 0-0.44 0.84v1.26c0 0.33 0.2 0.48 0.44 0.34z"/>
<path class="cls-16" transform="translate(-226.33 -92.93)" d="M403.06,283.5a1.07,1.07,0,0,0,.44-.84v-1.18l.14-.08c.25-.14.44,0,.44.33V283a1,1,0,0,1-.44.84l-26.59,15.39c-.24.14-.44,0-.44-.34v-.08Z"/>
<path class="cls-48" transform="translate(-226.33 -92.93)" d="m408.47 253.92h-15.59l-17.35-10c-2.24-1.29-6.14-1.12-8.73 0.37l-16.73 9.65h-15.58v10.47a2.52 2.52 0 0 0 1.49 2.34l31.44 18.15c2.24 1.29 6.14 1.13 8.72-0.36l30.19-17.43a3.68 3.68 0 0 0 2.12-2.7z"/>
<path class="cls-9" transform="translate(-226.33 -92.93)" d="m335.48 265.11v-10.46h15.58l16.73-9.65c2.58-1.49 6.48-1.65 8.72-0.36l17.36 10h14.6v-0.73h-15.59l-17.35-10c-2.24-1.29-6.14-1.12-8.73 0.37l-16.73 9.65h-15.58v10.47a2.52 2.52 0 0 0 1.49 2.34l0.18 0.1a2.22 2.22 0 0 1-0.68-1.73z"/>
<path class="cls-49" transform="translate(-226.33 -92.93)" d="m367.43 274.41-31.43-18.15c-2.23-1.29-1.95-3.54 0.63-5l30.17-17.46c2.59-1.49 6.49-1.65 8.73-0.36l31.47 18.15c2.24 1.29 2 3.54-0.62 5l-30.19 17.43c-2.62 1.52-6.52 1.68-8.76 0.39z"/>
<path class="cls-3" transform="translate(-226.33 -92.93)" d="m407 251.59-31.43-18.15a8.07 8.07 0 0 0-4.41-0.85 7.29 7.29 0 0 1 3.18 0.85l31.43 18.15c2.24 1.29 2 3.54-0.62 5l-30.19 17.43a9.79 9.79 0 0 1-4.32 1.21 10.23 10.23 0 0 0 5.55-1.21l30.19-17.43c2.54-1.46 2.82-3.71 0.62-5z"/>
<path class="cls-14" transform="translate(-226.33 -92.93)" d="M371.29,270.09a6,6,0,0,1-3-.68l-23.4-13.51a2.18,2.18,0,0,1-1.26-1.86,2.94,2.94,0,0,1,1.72-2.36l22.47-13a7.55,7.55,0,0,1,6.77-.27L398,252a2.2,2.2,0,0,1,1.26,1.86,3,3,0,0,1-1.72,2.36l-22.48,13A7.76,7.76,0,0,1,371.29,270.09Zm.38-31.8a7.34,7.34,0,0,0-3.54.88l-22.47,13a2.43,2.43,0,0,0-1.45,1.89,1.69,1.69,0,0,0,1,1.39l23.41,13.51a6.92,6.92,0,0,0,6.22-.26l22.48-13a2.43,2.43,0,0,0,1.45-1.89,1.68,1.68,0,0,0-1-1.39l-23.4-13.52A5.54,5.54,0,0,0,371.67,238.29Z"/>
<path class="cls-9" transform="translate(-226.33 -92.93)" d="m368.84 274.41-31.44-18.15c-2.23-1.29-1.95-3.54 0.63-5l30.18-17.43a10 10 0 0 1 4.26-1.21 10.4 10.4 0 0 0-5.67 1.21l-30.18 17.43c-2.58 1.49-2.86 3.74-0.63 5l31.44 18.15a8.2 8.2 0 0 0 4.47 0.85 7.11 7.11 0 0 1-3.06-0.85z"/>
<path class="cls-15" transform="translate(-226.33 -92.93)" d="m377.05 280.24 26.59-15.38a1 1 0 0 0 0.44-0.84v-1.26c0-0.33-0.19-0.48-0.44-0.34l-26.59 15.39a1.05 1.05 0 0 0-0.44 0.84v1.26c0 0.32 0.2 0.47 0.44 0.33z"/>
<path class="cls-16" transform="translate(-226.33 -92.93)" d="M403.06,264.53a1.09,1.09,0,0,0,.44-.85v-1.17l.14-.09c.25-.14.44,0,.44.34V264a1,1,0,0,1-.44.84l-26.59,15.38c-.24.14-.44,0-.44-.33v-.08Z"/>
<path class="cls-50" transform="translate(-226.33 -92.93)" d="m408.47 235h-15.59l-17.35-10c-2.24-1.29-6.14-1.13-8.73 0.36l-16.73 9.64h-15.58v10.47a2.51 2.51 0 0 0 1.49 2.33l31.44 18.15c2.24 1.29 6.14 1.13 8.72-0.36l30.19-17.43a3.69 3.69 0 0 0 2.12-2.69z"/>
<path class="cls-9" transform="translate(-226.33 -92.93)" d="M335.48,246.14h0V235.67h15.58L367.79,226c2.58-1.49,6.48-1.65,8.72-.36l17.36,10h14.6V235H392.88l-17.35-10c-2.24-1.29-6.14-1.13-8.73.36L350.07,235H334.49v10.47h0a2.51,2.51,0,0,0,1.49,2.33l.18.1A2.2,2.2,0,0,1,335.48,246.14Z"/>
<path class="cls-51" transform="translate(-226.33 -92.93)" d="m367.43 255.44-31.43-18.15c-2.23-1.29-1.95-3.55 0.63-5l30.18-17.43c2.59-1.49 6.49-1.65 8.73-0.36l31.46 18.11c2.24 1.29 2 3.55-0.62 5l-30.19 17.42c-2.62 1.54-6.52 1.7-8.76 0.41z"/>
<path class="cls-3" transform="translate(-226.33 -92.93)" d="m407 232.61-31.43-18.15a8.17 8.17 0 0 0-4.41-0.85 7.29 7.29 0 0 1 3.18 0.85l31.43 18.15c2.24 1.29 2 3.55-0.62 5l-30.19 17.42a9.93 9.93 0 0 1-4.32 1.22 10.24 10.24 0 0 0 5.55-1.22l30.19-17.42c2.54-1.45 2.82-3.71 0.62-5z"/>
<path class="cls-14" transform="translate(-226.33 -92.93)" d="M371.29,251.11a6,6,0,0,1-3-.68l-23.4-13.51a2.18,2.18,0,0,1-1.26-1.86,2.94,2.94,0,0,1,1.72-2.35l22.47-13a7.55,7.55,0,0,1,6.77-.27L398,233a2.19,2.19,0,0,1,1.26,1.86,2.94,2.94,0,0,1-1.72,2.35l-22.48,13A7.87,7.87,0,0,1,371.29,251.11Zm.38-31.8a7.24,7.24,0,0,0-3.54.89l-22.47,13a2.46,2.46,0,0,0-1.45,1.89,1.7,1.7,0,0,0,1,1.4L368.6,250a6.93,6.93,0,0,0,6.22-.27l22.48-13a2.46,2.46,0,0,0,1.45-1.89,1.69,1.69,0,0,0-1-1.4l-23.4-13.51A5.54,5.54,0,0,0,371.67,219.31Z"/>
<path class="cls-9" transform="translate(-226.33 -92.93)" d="m368.84 255.44-31.44-18.15c-2.23-1.29-1.95-3.55 0.63-5l30.18-17.43a10 10 0 0 1 4.26-1.2 10.3 10.3 0 0 0-5.67 1.2l-30.18 17.43c-2.58 1.49-2.86 3.75-0.63 5l31.44 18.15a8.2 8.2 0 0 0 4.47 0.84 7.25 7.25 0 0 1-3.06-0.84z"/>
<path class="cls-15" transform="translate(-226.33 -92.93)" d="m377.05 261.26 26.59-15.38a1 1 0 0 0 0.44-0.84v-1.26c0-0.32-0.19-0.47-0.44-0.33l-26.59 15.38a1.07 1.07 0 0 0-0.44 0.84v1.26c0 0.33 0.2 0.47 0.44 0.33z"/>
<path class="cls-16" transform="translate(-226.33 -92.93)" d="M403.06,245.55a1.07,1.07,0,0,0,.44-.84v-1.18l.14-.08c.25-.14.44,0,.44.33V245a1,1,0,0,1-.44.84l-26.59,15.38c-.24.14-.44,0-.44-.33v-.08Z"/>
<path class="cls-52" transform="translate(-226.33 -92.93)" d="m408.47 216h-15.59l-17.35-10c-2.24-1.29-6.14-1.13-8.73 0.36l-16.73 9.64h-15.58v10.47a2.52 2.52 0 0 0 1.49 2.34l31.44 18.15c2.24 1.29 6.14 1.13 8.72-0.36l30.19-17.43a3.7 3.7 0 0 0 2.12-2.7z"/>
<path class="cls-9" transform="translate(-226.33 -92.93)" d="M335.48,227.16h0V216.7h15.58L367.79,207c2.58-1.49,6.48-1.66,8.72-.37l17.36,10h14.6V216H392.88l-17.35-10c-2.24-1.29-6.14-1.13-8.73.36L350.07,216H334.49v10.47h0a2.52,2.52,0,0,0,1.49,2.34l.18.1A2.24,2.24,0,0,1,335.48,227.16Z"/>
<path class="cls-53" transform="translate(-226.33 -92.93)" d="m367.43 236.46-31.43-18.15c-2.23-1.29-1.95-3.54 0.63-5l30.18-17.43c2.59-1.49 6.49-1.65 8.73-0.36l31.46 18.12c2.24 1.29 2 3.54-0.62 5l-30.23 17.46c-2.58 1.49-6.48 1.65-8.72 0.36z"/>
<path class="cls-3" transform="translate(-226.33 -92.93)" d="m407 213.64-31.43-18.15a8.07 8.07 0 0 0-4.41-0.85 7.29 7.29 0 0 1 3.18 0.85l31.43 18.15c2.24 1.29 2 3.54-0.62 5l-30.23 17.46a9.92 9.92 0 0 1-4.32 1.21 10.23 10.23 0 0 0 5.55-1.21l30.19-17.43c2.58-1.49 2.86-3.74 0.66-5.03z"/>
<path class="cls-14" transform="translate(-226.33 -92.93)" d="M371.29,232.14a6.11,6.11,0,0,1-3-.68L344.93,218a2.18,2.18,0,0,1-1.26-1.86,2.94,2.94,0,0,1,1.72-2.36l22.47-13a7.55,7.55,0,0,1,6.77-.27L398,214a2.2,2.2,0,0,1,1.26,1.86,3,3,0,0,1-1.72,2.36l-22.48,13A7.76,7.76,0,0,1,371.29,232.14Zm.38-31.8a7.34,7.34,0,0,0-3.54.88l-22.47,13a2.43,2.43,0,0,0-1.45,1.89,1.69,1.69,0,0,0,1,1.39L368.6,231a6.92,6.92,0,0,0,6.22-.26l22.48-13a2.43,2.43,0,0,0,1.45-1.89,1.68,1.68,0,0,0-1-1.39L374.36,201A5.54,5.54,0,0,0,371.67,200.34Z"/>
<path class="cls-9" transform="translate(-226.33 -92.93)" d="m368.84 236.46-31.44-18.15c-2.23-1.29-1.95-3.54 0.63-5l30.18-17.43a10 10 0 0 1 4.26-1.21 10.31 10.31 0 0 0-5.67 1.21l-30.18 17.43c-2.58 1.49-2.86 3.74-0.63 5l31.44 18.15a8.2 8.2 0 0 0 4.47 0.85 7.4 7.4 0 0 1-3.06-0.85z"/>
<path class="cls-15" transform="translate(-226.33 -92.93)" d="m377.05 242.29 26.59-15.38a1 1 0 0 0 0.44-0.84v-1.26c0-0.33-0.19-0.48-0.44-0.34l-26.59 15.39a1.05 1.05 0 0 0-0.44 0.84v1.3c0 0.28 0.2 0.43 0.44 0.29z"/>
<path class="cls-16" transform="translate(-226.33 -92.93)" d="M403.06,226.57a1.05,1.05,0,0,0,.44-.84v-1.17l.14-.09c.25-.14.44,0,.44.34v1.26a1,1,0,0,1-.44.84l-26.59,15.38c-.24.14-.44,0-.44-.33v-.09Z"/>
<path class="cls-54" transform="translate(-226.33 -92.93)" d="m408.47 197h-15.59l-17.35-10c-2.24-1.29-6.14-1.13-8.73 0.36l-16.73 9.64h-15.58v10.47a2.51 2.51 0 0 0 1.51 2.33l31.43 18.2c2.24 1.29 6.14 1.13 8.72-0.36l30.19-17.43a3.69 3.69 0 0 0 2.12-2.69z"/>
<path class="cls-9" transform="translate(-226.33 -92.93)" d="m335.48 208.19v-10.47h15.58l16.73-9.66c2.58-1.49 6.48-1.65 8.72-0.36l17.36 10h14.6v-0.7h-15.59l-17.35-10c-2.24-1.29-6.14-1.13-8.73 0.36l-16.73 9.64h-15.58v10.47a2.51 2.51 0 0 0 1.51 2.33l0.18 0.1a2.2 2.2 0 0 1-0.7-1.71z"/>
<path class="cls-55" transform="translate(-226.33 -92.93)" d="m367.43 217.49-31.43-18.16c-2.23-1.29-1.95-3.54 0.63-5l30.18-17.43c2.59-1.49 6.49-1.65 8.73-0.36l31.46 18.12c2.24 1.29 2 3.55-0.62 5l-30.19 17.42c-2.62 1.53-6.52 1.7-8.76 0.41z"/>
<path class="cls-3" transform="translate(-226.33 -92.93)" d="m407 194.66-31.43-18.15a8.17 8.17 0 0 0-4.41-0.85 7.29 7.29 0 0 1 3.18 0.85l31.43 18.15c2.24 1.29 2 3.55-0.62 5l-30.19 17.42a9.93 9.93 0 0 1-4.32 1.22 10.24 10.24 0 0 0 5.55-1.22l30.19-17.42c2.54-1.45 2.82-3.66 0.62-5z"/>
<path class="cls-14" transform="translate(-226.33 -92.93)" d="M371.28,213.16a6,6,0,0,1-2.95-.68L344.93,199a2.18,2.18,0,0,1-1.26-1.86,2.94,2.94,0,0,1,1.72-2.35l22.47-13a7.55,7.55,0,0,1,6.77-.27L398,195a2.19,2.19,0,0,1,1.26,1.86,2.94,2.94,0,0,1-1.72,2.35l-22.48,13A7.77,7.77,0,0,1,371.28,213.16ZM368.6,212a7,7,0,0,0,6.22-.27l22.48-13a2.43,2.43,0,0,0,1.45-1.88,1.69,1.69,0,0,0-1-1.4L374.36,182a6.92,6.92,0,0,0-6.23.27l-22.47,13a2.45,2.45,0,0,0-1.45,1.89,1.7,1.7,0,0,0,1,1.4Z"/>
<path class="cls-9" transform="translate(-226.33 -92.93)" d="m368.84 217.49-31.44-18.16c-2.23-1.29-1.95-3.54 0.63-5l30.18-17.43a10 10 0 0 1 4.26-1.2 10.3 10.3 0 0 0-5.67 1.2l-30.18 17.4c-2.58 1.49-2.86 3.74-0.63 5l31.44 18.16a8.2 8.2 0 0 0 4.47 0.84 7.25 7.25 0 0 1-3.06-0.81z"/>
<path class="cls-15" transform="translate(-226.33 -92.93)" d="m377.05 223.31 26.59-15.38a1 1 0 0 0 0.44-0.84v-1.26c0-0.32-0.19-0.47-0.44-0.33l-26.59 15.38a1.07 1.07 0 0 0-0.44 0.84v1.28c0 0.3 0.2 0.45 0.44 0.31z"/>
<path class="cls-16" transform="translate(-226.33 -92.93)" d="M403.06,207.6a1.07,1.07,0,0,0,.44-.84v-1.18l.14-.08c.25-.14.44,0,.44.33v1.26a1,1,0,0,1-.44.84l-26.59,15.38c-.24.14-.44,0-.44-.33v-.08Z"/>
<path class="cls-5" transform="translate(-226.33 -92.93)" d="M253.23,321.59l-10-5.76c-1.22-.7-1.06-1.92.34-2.73l9.62-5.57a5.25,5.25,0,0,1,4.73-.19l10,5.76c1.22.7,1.07,1.92-.34,2.73L258,321.4A5.25,5.25,0,0,1,253.23,321.59Z"/>
<path class="cls-56" transform="translate(-226.33 -92.93)" d="M255.22,324a5.3,5.3,0,0,1-2.63-.61l-12.19-7a1.94,1.94,0,0,1-1.12-1.65,2.61,2.61,0,0,1,1.54-2.1l11.74-6.79a6.67,6.67,0,0,1,6-.24l12.19,7a1.94,1.94,0,0,1,1.12,1.66,2.61,2.61,0,0,1-1.54,2.09l-11.74,6.79A6.92,6.92,0,0,1,255.22,324Zm.73-18.55a6.46,6.46,0,0,0-3.15.79L241.06,313a2.17,2.17,0,0,0-1.29,1.68,1.48,1.48,0,0,0,.87,1.23l12.19,7a6.16,6.16,0,0,0,5.53-.24l11.74-6.79a2.15,2.15,0,0,0,1.29-1.68,1.48,1.48,0,0,0-.87-1.23l-12.19-7A4.81,4.81,0,0,0,256,305.43Z"/>
<path class="cls-57" transform="translate(-226.33 -92.93)" d="m268.74 303.18h-8.46l-2.35-1.35a5.25 5.25 0 0 0-4.73 0.2l-2.32 1.35h-8.46v5.68a1.36 1.36 0 0 0 0.82 1.26l10 5.77a5.25 5.25 0 0 0 4.73-0.2l9.62-5.57a2 2 0 0 0 1.16-1.46z"/>
<path class="cls-58" transform="translate(-226.33 -92.93)" d="m267.58 309.93-9.58 5.57a5.25 5.25 0 0 1-4.73 0.19l-10-5.76a1.36 1.36 0 0 1-0.82-1.26v0.39a1.36 1.36 0 0 0 0.82 1.26l10 5.77a5.25 5.25 0 0 0 4.73-0.2l9.62-5.57a2 2 0 0 0 1.16-1.46v-0.39a2 2 0 0 1-1.2 1.46z"/>
<path class="cls-9" transform="translate(-226.33 -92.93)" d="M243,309.45h0v-5.68h8.46l2.33-1.35a5.25,5.25,0,0,1,4.73-.2l2.35,1.35h7.92v-.39h-8.46l-2.35-1.35a5.25,5.25,0,0,0-4.73.2l-2.32,1.35h-8.46v5.68h0a1.36,1.36,0,0,0,.82,1.26l.09.06A1.18,1.18,0,0,1,243,309.45Z"/>
<path class="cls-59" transform="translate(-226.33 -92.93)" d="M253.23,310.41l-10-5.77c-1.22-.7-1.06-1.92.34-2.73l9.62-5.56a5.25,5.25,0,0,1,4.73-.2l10,5.76c1.22.7,1.07,1.92-.34,2.73L258,310.21A5.25,5.25,0,0,1,253.23,310.41Z"/>
<path class="cls-3" transform="translate(-226.33 -92.93)" d="m267.92 301.91-10-5.76a4.41 4.41 0 0 0-2.38-0.46 4 4 0 0 1 1.72 0.46l10 5.76c1.21 0.7 1.06 1.92-0.34 2.73l-9.63 5.57a5.42 5.42 0 0 1-2.34 0.66 5.55 5.55 0 0 0 3-0.66l9.62-5.57c1.43-0.81 1.57-2.03 0.35-2.73z"/>
<path class="cls-9" transform="translate(-226.33 -92.93)" d="M254,310.41l-10-5.77c-1.21-.7-1.06-1.92.34-2.73l9.63-5.56a5.25,5.25,0,0,1,2.3-.66,5.58,5.58,0,0,0-3.07.66l-9.62,5.56c-1.4.81-1.56,2-.34,2.73l10,5.77a4.44,4.44,0,0,0,2.42.45A3.92,3.92,0,0,1,254,310.41Z"/>
<path class="cls-5" transform="translate(-226.33 -92.93)" d="M485.49,321.59l-10-5.76c-1.21-.7-1.06-1.92.34-2.73l9.63-5.57a5.25,5.25,0,0,1,4.73-.19l10,5.76c1.21.7,1.06,1.92-.34,2.73l-9.63,5.57A5.25,5.25,0,0,1,485.49,321.59Z"/>
<path class="cls-60" transform="translate(-226.33 -92.93)" d="M487.48,324a5.35,5.35,0,0,1-2.63-.61l-12.18-7a1.92,1.92,0,0,1-1.12-1.65,2.6,2.6,0,0,1,1.53-2.1l11.74-6.79a6.69,6.69,0,0,1,6-.24l12.19,7a1.94,1.94,0,0,1,1.12,1.66,2.61,2.61,0,0,1-1.54,2.09l-11.74,6.79A7,7,0,0,1,487.48,324Zm.73-18.55a6.45,6.45,0,0,0-3.14.79L473.32,313a2.17,2.17,0,0,0-1.29,1.68,1.47,1.47,0,0,0,.88,1.23l12.19,7a6.16,6.16,0,0,0,5.53-.24l11.74-6.79a2.15,2.15,0,0,0,1.29-1.68,1.47,1.47,0,0,0-.88-1.23l-12.18-7A4.85,4.85,0,0,0,488.21,305.43Z"/>
<path class="cls-61" transform="translate(-226.33 -92.93)" d="m501 303.18h-8.46l-2.35-1.35a5.25 5.25 0 0 0-4.73 0.2l-2.33 1.35h-8.45v5.68a1.35 1.35 0 0 0 0.81 1.26l10 5.77a5.25 5.25 0 0 0 4.73-0.2l9.63-5.57a2 2 0 0 0 1.15-1.46z"/>
<path class="cls-62" transform="translate(-226.33 -92.93)" d="m499.85 309.93-9.63 5.57a5.25 5.25 0 0 1-4.73 0.19l-10-5.76a1.35 1.35 0 0 1-0.81-1.26v0.39a1.35 1.35 0 0 0 0.81 1.26l10 5.77a5.25 5.25 0 0 0 4.73-0.2l9.63-5.57a2 2 0 0 0 1.15-1.46v-0.39a2 2 0 0 1-1.15 1.46z"/>
<path class="cls-9" transform="translate(-226.33 -92.93)" d="M475.22,309.45h0v-5.68h8.46l2.32-1.35a5.25,5.25,0,0,1,4.73-.2l2.35,1.35H501v-.39h-8.46l-2.35-1.35a5.25,5.25,0,0,0-4.73.2l-2.33,1.35h-8.45v5.68h0a1.35,1.35,0,0,0,.81,1.26l.1.06A1.19,1.19,0,0,1,475.22,309.45Z"/>
<path class="cls-63" transform="translate(-226.33 -92.93)" d="M485.49,310.41l-10-5.77c-1.21-.7-1.06-1.92.34-2.73l9.63-5.56a5.25,5.25,0,0,1,4.73-.2l10,5.76c1.21.7,1.06,1.92-.34,2.73l-9.63,5.57A5.25,5.25,0,0,1,485.49,310.41Z"/>
<path class="cls-3" transform="translate(-226.33 -92.93)" d="m500.19 301.91-10-5.76a4.44 4.44 0 0 0-2.39-0.46 4 4 0 0 1 1.72 0.46l10 5.76c1.22 0.7 1.06 1.92-0.34 2.73l-9.62 5.57a5.47 5.47 0 0 1-2.35 0.66 5.51 5.51 0 0 0 3-0.66l9.63-5.57c1.41-0.81 1.56-2.03 0.35-2.73z"/>
<path class="cls-9" transform="translate(-226.33 -92.93)" d="M486.26,310.41l-10-5.77c-1.22-.7-1.06-1.92.34-2.73l9.62-5.56a5.29,5.29,0,0,1,2.31-.66,5.57,5.57,0,0,0-3.07.66l-9.63,5.56c-1.4.81-1.55,2-.34,2.73l10,5.77a4.5,4.5,0,0,0,2.43.45A3.84,3.84,0,0,1,486.26,310.41Z"/>
<path class="cls-2" transform="translate(-226.33 -92.93)" d="M527,402.3a2.27,2.27,0,0,1-1.17-.32l-123.27-71a2.33,2.33,0,0,1,2.33-4l123.27,71A2.34,2.34,0,0,1,527,402.3Z"/>
<rect class="cls-3" transform="translate(-309.08 492.77) rotate(-60.04)" x="464.94" y="293.3" width=".93" height="142.28"/>
<path class="cls-4" transform="translate(-226.33 -92.93)" d="m414.34 335a2 2 0 1 1-0.72-2.83 2.07 2.07 0 0 1 0.72 2.83z"/>
<path class="cls-4" transform="translate(-226.33 -92.93)" d="m424.9 341.1a2 2 0 1 1-0.71-2.83 2.06 2.06 0 0 1 0.71 2.83z"/>
<path class="cls-4" transform="translate(-226.33 -92.93)" d="m435.47 347.19a2 2 0 1 1-0.72-2.83 2.07 2.07 0 0 1 0.72 2.83z"/>
<path class="cls-4" transform="translate(-226.33 -92.93)" d="m446 353.28a2 2 0 1 1-0.71-2.83 2.06 2.06 0 0 1 0.71 2.83z"/>
<path class="cls-4" transform="translate(-226.33 -92.93)" d="m456.6 359.37a2 2 0 1 1-0.72-2.83 2.07 2.07 0 0 1 0.72 2.83z"/>
<path class="cls-4" transform="translate(-226.33 -92.93)" d="m467.17 365.46a2 2 0 1 1-0.72-2.83 2.07 2.07 0 0 1 0.72 2.83z"/>
<path class="cls-4" transform="translate(-226.33 -92.93)" d="m477.73 371.55a2 2 0 1 1-0.71-2.83 2.07 2.07 0 0 1 0.71 2.83z"/>
<path class="cls-4" transform="translate(-226.33 -92.93)" d="m488.3 377.64a2 2 0 1 1-0.72-2.83 2.07 2.07 0 0 1 0.72 2.83z"/>
<path class="cls-4" transform="translate(-226.33 -92.93)" d="m498.86 383.73a2 2 0 1 1-0.71-2.83 2 2 0 0 1 0.71 2.83z"/>
<path class="cls-4" transform="translate(-226.33 -92.93)" d="m509.43 389.81a2 2 0 1 1-0.72-2.82 2.06 2.06 0 0 1 0.72 2.82z"/>
<path class="cls-4" transform="translate(-226.33 -92.93)" d="M520,395.9a2,2,0,1,1-.71-2.82A2,2,0,0,1,520,395.9Z"/>
<path class="cls-5" transform="translate(-226.33 -92.93)" d="M438.51,357.26l-10-5.77c-1.22-.7-1.07-1.92.34-2.73l9.62-5.56a5.25,5.25,0,0,1,4.73-.2l10,5.76c1.22.7,1.07,1.92-.34,2.73l-9.62,5.57A5.25,5.25,0,0,1,438.51,357.26Z"/>
<path class="cls-64" transform="translate(-226.33 -92.93)" d="M440.5,359.64a5.3,5.3,0,0,1-2.63-.61l-12.19-7a2,2,0,0,1-1.12-1.66,2.62,2.62,0,0,1,1.53-2.1l11.75-6.79a6.7,6.7,0,0,1,6-.24l12.19,7a2,2,0,0,1,1.12,1.66,2.61,2.61,0,0,1-1.53,2.09l-11.75,6.79A6.9,6.9,0,0,1,440.5,359.64Zm.72-18.54a6.44,6.44,0,0,0-3.14.78l-11.74,6.79a2.18,2.18,0,0,0-1.29,1.68,1.51,1.51,0,0,0,.87,1.24l12.19,7a6.13,6.13,0,0,0,5.53-.24l11.74-6.79a2.15,2.15,0,0,0,1.29-1.67,1.51,1.51,0,0,0-.87-1.24l-12.19-7A4.85,4.85,0,0,0,441.22,341.1Z"/>
<path class="cls-65" transform="translate(-226.33 -92.93)" d="m454 338.84h-8.46l-2.35-1.35a5.25 5.25 0 0 0-4.73 0.2l-2.3 1.31h-8.46v5.68a1.39 1.39 0 0 0 0.82 1.27l10 5.76a5.25 5.25 0 0 0 4.73-0.2l9.62-5.56a2 2 0 0 0 1.16-1.47z"/>
<path class="cls-66" transform="translate(-226.33 -92.93)" d="m452.86 345.59-9.62 5.57a5.25 5.25 0 0 1-4.73 0.2l-10-5.76a1.39 1.39 0 0 1-0.82-1.27v0.39a1.39 1.39 0 0 0 0.82 1.27l10 5.76a5.25 5.25 0 0 0 4.73-0.2l9.62-5.56a2 2 0 0 0 1.16-1.47v-0.39a2 2 0 0 1-1.16 1.46z"/>
<path class="cls-9" transform="translate(-226.33 -92.93)" d="m428.24 345.11v-5.68h8.46l2.33-1.35a5.25 5.25 0 0 1 4.73-0.2l2.35 1.35h7.89v-0.39h-8.46l-2.35-1.35a5.25 5.25 0 0 0-4.73 0.2l-2.3 1.31h-8.46v5.68a1.39 1.39 0 0 0 0.82 1.27l0.09 0.05a1.18 1.18 0 0 1-0.37-0.89z"/>
<path class="cls-67" transform="translate(-226.33 -92.93)" d="M438.51,346.07l-10-5.76c-1.22-.7-1.07-1.93.34-2.74l9.62-5.56a5.25,5.25,0,0,1,4.73-.2l10,5.76c1.22.7,1.07,1.93-.34,2.74l-9.62,5.56A5.25,5.25,0,0,1,438.51,346.07Z"/>
<path class="cls-3" transform="translate(-226.33 -92.93)" d="m453.2 337.57-10-5.76a4.41 4.41 0 0 0-2.38-0.46 4 4 0 0 1 1.72 0.46l10 5.76c1.21 0.7 1.06 1.93-0.34 2.74l-9.63 5.56a5.42 5.42 0 0 1-2.34 0.66 5.55 5.55 0 0 0 3-0.66l9.62-5.56c1.42-0.81 1.57-2.04 0.35-2.74z"/>
<path class="cls-9" transform="translate(-226.33 -92.93)" d="M439.27,346.07l-10-5.76c-1.21-.7-1.06-1.93.34-2.74l9.63-5.56a5.25,5.25,0,0,1,2.3-.66,5.58,5.58,0,0,0-3.07.66l-9.62,5.56c-1.41.81-1.56,2-.34,2.74l10,5.76a4.44,4.44,0,0,0,2.42.46A4.07,4.07,0,0,1,439.27,346.07Z"/>
<path class="cls-5" transform="translate(-226.33 -92.93)" d="M470.33,375.31l-10-5.76c-1.22-.7-1.07-1.93.34-2.74l9.62-5.56a5.25,5.25,0,0,1,4.73-.2l10,5.76c1.22.7,1.07,1.93-.34,2.73l-9.62,5.57A5.25,5.25,0,0,1,470.33,375.31Z"/>
<path class="cls-68" transform="translate(-226.33 -92.93)" d="M472.31,377.69a5.29,5.29,0,0,1-2.62-.61l-12.19-7a2,2,0,0,1-1.12-1.66,2.63,2.63,0,0,1,1.54-2.1l11.74-6.79a6.7,6.7,0,0,1,6-.24l12.19,7A2,2,0,0,1,489,368a2.6,2.6,0,0,1-1.54,2.09l-11.74,6.8A7,7,0,0,1,472.31,377.69Zm.74-18.54a6.45,6.45,0,0,0-3.15.78l-11.74,6.79a2.18,2.18,0,0,0-1.29,1.68,1.51,1.51,0,0,0,.87,1.24l12.19,7a6.16,6.16,0,0,0,5.53-.23l11.74-6.8a2.15,2.15,0,0,0,1.29-1.67,1.51,1.51,0,0,0-.87-1.24l-12.19-7A4.92,4.92,0,0,0,473.05,359.15Z"/>
<path class="cls-69" transform="translate(-226.33 -92.93)" d="m485.84 356.89h-8.46l-2.38-1.35a5.25 5.25 0 0 0-4.73 0.2l-2.27 1.35h-8.46v5.68a1.39 1.39 0 0 0 0.82 1.27l10 5.76a5.25 5.25 0 0 0 4.73-0.2l9.62-5.56a2 2 0 0 0 1.16-1.47z"/>
<path class="cls-70" transform="translate(-226.33 -92.93)" d="m484.68 363.65-9.62 5.56a5.25 5.25 0 0 1-4.73 0.2l-10-5.76a1.39 1.39 0 0 1-0.82-1.27v0.39a1.39 1.39 0 0 0 0.82 1.27l10 5.76a5.25 5.25 0 0 0 4.73-0.2l9.62-5.56a2 2 0 0 0 1.16-1.47v-0.39a2.05 2.05 0 0 1-1.16 1.47z"/>
<path class="cls-9" transform="translate(-226.33 -92.93)" d="m460.06 363.16v-5.68h8.46l2.33-1.35a5.25 5.25 0 0 1 4.73-0.2l2.35 1.35h7.92v-0.39h-8.46l-2.39-1.35a5.25 5.25 0 0 0-4.73 0.2l-2.27 1.35h-8.46v5.68a1.39 1.39 0 0 0 0.82 1.27h0.09a1.18 1.18 0 0 1-0.39-0.88z"/>
<path class="cls-71" transform="translate(-226.33 -92.93)" d="M470.33,364.12l-10-5.76c-1.22-.7-1.07-1.93.34-2.73l9.62-5.57a5.25,5.25,0,0,1,4.73-.2l10,5.76c1.22.7,1.07,1.93-.34,2.74l-9.62,5.56A5.25,5.25,0,0,1,470.33,364.12Z"/>
<path class="cls-3" transform="translate(-226.33 -92.93)" d="m485 355.62-10-5.76a4.41 4.41 0 0 0-2.38-0.46 4 4 0 0 1 1.72 0.46l10 5.76c1.21 0.7 1.06 1.93-0.34 2.74l-9.63 5.56a5.42 5.42 0 0 1-2.34 0.66 5.55 5.55 0 0 0 3-0.66l9.62-5.56c1.44-0.81 1.59-2.04 0.35-2.74z"/>
<path class="cls-9" transform="translate(-226.33 -92.93)" d="M471.09,364.12l-10-5.76c-1.21-.7-1.06-1.93.34-2.73l9.63-5.57a5.53,5.53,0,0,1,2.3-.66,5.58,5.58,0,0,0-3.07.66l-9.62,5.57c-1.41.8-1.56,2-.34,2.73l10,5.76a4.35,4.35,0,0,0,2.42.46A4.07,4.07,0,0,1,471.09,364.12Z"/>
<path class="cls-5" transform="translate(-226.33 -92.93)" d="M502.15,393.36l-10-5.76c-1.22-.7-1.06-1.93.34-2.73l9.62-5.57a5.25,5.25,0,0,1,4.73-.2l10,5.76c1.22.7,1.07,1.93-.34,2.74l-9.62,5.56A5.25,5.25,0,0,1,502.15,393.36Z"/>
<path class="cls-72" transform="translate(-226.33 -92.93)" d="M504.14,395.74a5.41,5.41,0,0,1-2.63-.6l-12.19-7a2,2,0,0,1-1.12-1.66,2.63,2.63,0,0,1,1.54-2.1l11.74-6.79a6.7,6.7,0,0,1,6-.24l12.19,7A2,2,0,0,1,520.8,386a2.63,2.63,0,0,1-1.54,2.1l-11.74,6.79A6.92,6.92,0,0,1,504.14,395.74Zm.73-18.54a6.45,6.45,0,0,0-3.15.78L490,384.77a2.18,2.18,0,0,0-1.29,1.68,1.51,1.51,0,0,0,.87,1.24l12.19,7a6.19,6.19,0,0,0,5.53-.24L519,387.69a2.18,2.18,0,0,0,1.29-1.68,1.51,1.51,0,0,0-.87-1.24l-12.19-7A4.92,4.92,0,0,0,504.87,377.2Z"/>
<path class="cls-73" transform="translate(-226.33 -92.93)" d="m517.66 374.94h-8.46l-2.35-1.35a5.25 5.25 0 0 0-4.73 0.2l-2.32 1.35h-8.46v5.68a1.38 1.38 0 0 0 0.82 1.27l10 5.76a5.28 5.28 0 0 0 4.73-0.19l9.62-5.57a2 2 0 0 0 1.16-1.47z"/>
<path class="cls-74" transform="translate(-226.33 -92.93)" d="m516.5 381.7-9.62 5.56a5.25 5.25 0 0 1-4.73 0.2l-10-5.76a1.39 1.39 0 0 1-0.82-1.27v0.39a1.38 1.38 0 0 0 0.82 1.27l10 5.76a5.28 5.28 0 0 0 4.73-0.19l9.62-5.57a2 2 0 0 0 1.16-1.47v-0.39a2 2 0 0 1-1.16 1.47z"/>
<path class="cls-9" transform="translate(-226.33 -92.93)" d="m491.88 381.21v-5.68h8.46l2.33-1.35a5.25 5.25 0 0 1 4.73-0.19l2.35 1.35h7.92v-0.4h-8.47l-2.35-1.35a5.25 5.25 0 0 0-4.73 0.2l-2.32 1.35h-8.46v5.68a1.38 1.38 0 0 0 0.82 1.27l0.09 0.06a1.2 1.2 0 0 1-0.37-0.94z"/>
<path class="cls-75" transform="translate(-226.33 -92.93)" d="M502.15,382.17l-10-5.76c-1.22-.7-1.06-1.92.34-2.73l9.62-5.57a5.25,5.25,0,0,1,4.73-.2l10,5.77c1.22.7,1.07,1.92-.34,2.73L506.88,382A5.28,5.28,0,0,1,502.15,382.17Z"/>
<path class="cls-3" transform="translate(-226.33 -92.93)" d="m516.84 373.68-10-5.77a4.41 4.41 0 0 0-2.38-0.46 4 4 0 0 1 1.72 0.46l10 5.77c1.21 0.7 1.06 1.92-0.34 2.73l-9.63 5.59a5.41 5.41 0 0 1-2.34 0.65 5.64 5.64 0 0 0 3-0.65l9.62-5.57c1.42-0.83 1.57-2.05 0.35-2.75z"/>
<path class="cls-9" transform="translate(-226.33 -92.93)" d="M502.91,382.17l-10-5.76c-1.21-.7-1.06-1.92.34-2.73l9.63-5.57a5.38,5.38,0,0,1,2.3-.65,5.49,5.49,0,0,0-3.07.65l-9.62,5.57c-1.4.81-1.56,2-.34,2.73l10,5.76a4.35,4.35,0,0,0,2.42.46A3.92,3.92,0,0,1,502.91,382.17Z"/>
</svg>
